<?xml version="1.0" encoding="UTF-8" standalone="no"?>
<svg
   xmlns:dc="http://purl.org/dc/elements/1.1/"
   xmlns:cc="http://creativecommons.org/ns#"
   xmlns:rdf="http://www.w3.org/1999/02/22-rdf-syntax-ns#"
   xmlns:svg="http://www.w3.org/2000/svg"
   xmlns="http://www.w3.org/2000/svg"
   viewBox="0 0 816 1056"
   height="1056"
   width="816"
   xml:space="preserve"
   id="svg2"
   version="1.1"><metadata
     id="metadata8"><rdf:RDF><cc:Work
         rdf:about=""><dc:format>image/svg+xml</dc:format><dc:type
           rdf:resource="http://purl.org/dc/dcmitype/StillImage" /></cc:Work></rdf:RDF></metadata><defs
     id="defs6"><clipPath
       id="clipPath18"
       clipPathUnits="userSpaceOnUse"><path
         id="path16"
         d="M 0,792 H 612 V 0 H 0 Z" /></clipPath><clipPath
       id="clipPath26"
       clipPathUnits="userSpaceOnUse"><path
         id="path24"
         d="M 11.7304,735.749 H 601.39 V 146.042 H 11.7304 Z" /></clipPath></defs><g
     transform="matrix(1.3333333,0,0,-1.3333333,0,1056)"
     id="g10"><g
       id="g12"><g
         clip-path="url(#clipPath18)"
         id="g14"><g
           id="g20"><g
             id="g22" /><g
             id="g182"><g
               id="g180"
               clip-path="url(#clipPath26)"><g
                 id="g30"
                 transform="translate(309.7698,373.7038)"><path
                   id="path28"
                   style="fill:#ffffff;fill-opacity:1;fill-rule:nonzero;stroke:none"
                   d="M 0,0 C 0.956,0.016 1.553,0.364 1.76,0.971 2.154,2.12 1.561,3.326 0.421,3.653 -1.231,4.127 -2.214,3.039 -2.658,1.67 -2.882,0.979 -1.909,0.212 -0.676,0.044 -0.421,0.009 -0.161,0.01 0,0 m 197.357,0.004 c 1.155,-0.018 1.773,0.332 1.981,1.073 0.234,0.835 -0.027,1.529 -0.655,2.1 -0.472,0.429 -1.028,0.616 -1.666,0.57 -1.062,-0.077 -2.167,-1.188 -2.191,-2.209 -0.015,-0.671 0.76,-1.284 1.885,-1.476 0.255,-0.044 0.516,-0.047 0.646,-0.058 m -10.019,-22.752 c -0.081,-0.965 0.366,-1.253 1.274,-0.852 0.999,0.441 1.783,1.115 2.215,2.118 0.448,1.037 0.9,2.085 1.205,3.169 0.45,1.603 1.014,3.142 1.787,4.62 0.44,0.842 0.746,1.761 1.047,2.667 0.33,0.992 0.02,1.891 -0.581,2.699 -0.243,0.328 -0.574,0.369 -0.902,0.132 -1.194,-0.862 -1.784,-2.131 -2.21,-3.47 -0.74,-2.328 -1.593,-4.606 -2.589,-6.839 -0.6,-1.345 -1.156,-2.735 -1.246,-4.244 M -2.503,-10.146 c -0.006,0.087 0.005,0.18 -0.019,0.262 -0.189,0.667 -0.234,1.511 -0.958,1.773 -0.848,0.306 -1.173,-0.556 -1.593,-1.065 -0.332,-0.403 -0.678,-0.85 -0.83,-1.335 -1.074,-3.44 -2.499,-6.742 -3.833,-10.081 -0.194,-0.486 -0.291,-1.012 -0.405,-1.526 -0.056,-0.254 -0.06,-0.522 -0.068,-0.784 -0.019,-0.575 0.512,-0.966 1.073,-0.756 0.406,0.152 0.818,0.331 1.165,0.584 0.962,0.7 1.502,1.712 1.854,2.813 0.883,2.757 1.711,5.529 3.112,8.091 0.329,0.601 0.565,1.293 0.502,2.024 M 128.802,3.556 c 0.014,0.495 -0.269,0.903 -0.711,1.246 -0.804,0.627 -1.496,0.626 -2.019,-0.178 -0.521,-0.799 -0.957,-1.669 -1.321,-2.552 -0.365,-0.887 -0.62,-1.822 -0.879,-2.748 -0.716,-2.551 -1.869,-4.892 -3.274,-7.131 -2.232,-3.556 -4.424,-7.138 -6.606,-10.726 -0.544,-0.895 -1.006,-1.842 -1.464,-2.786 -0.188,-0.388 -0.314,-0.822 -0.384,-1.249 -0.187,-1.154 0.946,-2.004 2.056,-1.563 0.685,0.273 1.176,0.789 1.483,1.424 0.38,0.785 0.722,1.6 0.964,2.435 0.493,1.699 1.228,3.27 2.214,4.735 1.078,1.601 1.962,3.308 2.783,5.055 0.594,1.264 1.284,2.488 1.995,3.692 1.556,2.639 3.174,5.242 4.449,8.036 0.326,0.713 0.722,1.406 0.714,2.31 M 14.514,-24.248 c 3.47,-0.06 6.626,0.724 9.807,1.316 0.323,0.06 0.697,0.213 0.667,0.646 -0.028,0.396 -0.366,0.576 -0.69,0.716 -0.656,0.283 -1.328,0.405 -2.049,0.241 -0.768,-0.174 -1.559,-0.252 -2.32,-0.45 -2.241,-0.584 -4.51,-0.525 -6.789,-0.382 -1.159,0.073 -2.226,0.426 -3.223,1.016 -1.536,0.908 -2.103,2.275 -1.91,4.003 0.151,1.351 0.691,2.592 1.59,3.547 2.838,3.013 6.452,4.391 10.529,4.646 0.497,0.031 0.796,-0.503 0.524,-0.886 -0.456,-0.641 -0.977,-1.237 -1.407,-1.894 -0.465,-0.708 -0.393,-1.354 0.116,-1.921 0.463,-0.517 1.27,-0.721 1.918,-0.477 0.595,0.223 1.043,0.645 1.418,1.135 1.208,1.575 1.906,3.326 1.85,5.349 -0.05,1.784 -0.998,2.615 -2.689,2.192 -3.839,-0.96 -7.534,-2.304 -10.961,-4.317 -2.41,-1.416 -4.358,-3.293 -5.321,-5.956 -1.576,-4.353 0.052,-6.232 3.223,-7.598 1.899,-0.819 3.884,-1.009 5.717,-0.926 M 245.353,-9.26 c 0.003,0.808 -0.153,1.284 -0.727,1.517 -0.554,0.225 -1.066,0.036 -1.469,-0.301 -0.685,-0.573 -1.112,-1.363 -1.399,-2.191 -0.382,-1.1 -1.029,-2.015 -1.718,-2.932 -1.579,-2.102 -3.111,-4.238 -4.653,-6.367 -0.62,-0.855 -1.175,-1.746 -1.393,-2.806 -0.184,-0.893 0.5,-1.534 1.407,-1.292 0.857,0.228 1.611,0.661 2.343,1.159 1.98,1.345 3.604,3.08 5.154,4.861 1.047,1.204 2.205,2.251 3.431,3.242 1.248,1.007 2.696,1.626 4.223,2.071 1.002,0.293 1.948,0.184 2.632,-0.665 0.667,-0.828 0.648,-1.762 0.22,-2.727 -0.396,-0.894 -0.949,-1.671 -1.569,-2.416 -0.617,-0.741 -1.219,-1.496 -1.788,-2.273 -0.469,-0.641 -0.83,-1.35 -0.91,-2.156 -0.096,-0.952 0.68,-1.81 1.743,-1.965 0.886,-0.13 1.815,0.494 1.784,1.458 -0.035,1.061 0.425,1.835 0.912,2.666 0.711,1.209 1.383,2.441 2.066,3.667 0.473,0.85 0.803,1.758 0.948,2.718 0.527,3.5 -2.151,5.769 -5.514,4.698 -1.515,-0.483 -2.896,-1.243 -4.291,-1.983 -0.53,-0.281 -1.12,-0.986 -1.622,-0.655 -0.742,0.49 0.087,1.226 0.108,1.868 0.012,0.35 0.07,0.697 0.082,0.804 m -377.139,-2.706 c -0.242,0.32 -0.198,0.657 -0.057,0.99 0.277,0.659 0.385,1.347 0.363,2.056 -0.014,0.454 -0.147,0.855 -0.577,1.103 -0.529,0.305 -1.026,0.153 -1.482,-0.134 -0.701,-0.441 -1.113,-1.166 -1.353,-1.894 -0.567,-1.716 -1.716,-3.04 -2.745,-4.454 -1.34,-1.841 -2.664,-3.695 -4.01,-5.533 -0.579,-0.79 -1.004,-1.648 -1.212,-2.602 -0.16,-0.736 0.521,-1.379 1.265,-1.226 0.965,0.199 1.785,0.687 2.582,1.247 2.029,1.424 3.718,3.208 5.308,5.077 1.094,1.286 2.373,2.338 3.706,3.332 1.208,0.899 2.602,1.48 4.07,1.779 1.904,0.388 3.242,-1.194 2.646,-3.064 -0.324,-1.018 -0.934,-1.873 -1.606,-2.695 -0.721,-0.881 -1.434,-1.772 -2.09,-2.703 -0.401,-0.57 -0.696,-1.22 -0.722,-1.947 -0.033,-0.933 0.808,-1.795 1.84,-1.89 0.75,-0.07 1.749,0.565 1.684,1.312 -0.121,1.372 0.65,2.312 1.245,3.365 0.604,1.068 1.241,2.123 1.77,3.228 0.375,0.783 0.704,1.619 0.865,2.467 0.689,3.612 -2.055,5.965 -5.551,4.826 -1.512,-0.493 -2.891,-1.255 -4.282,-2.001 -0.524,-0.281 -0.973,-0.775 -1.657,-0.639 M 265.65,-26.818 c 2.339,0.014 5.275,0.742 7.341,1.803 1.999,1.028 3.576,2.545 4.824,4.372 1.153,1.689 0.849,3.1 -0.79,4.337 -1.064,0.803 -2.305,1.251 -3.571,1.627 -1.595,0.475 -3.194,0.939 -4.785,1.425 -0.33,0.101 -0.669,0.236 -0.942,0.439 -0.202,0.149 -0.282,0.475 -0.059,0.68 0.318,0.291 0.669,0.559 1.043,0.771 2.483,1.402 5.21,2.04 7.994,2.451 0.964,0.142 1.9,0.312 2.771,0.757 0.553,0.282 1.065,0.617 1.378,1.178 0.217,0.39 0.403,0.803 0.107,1.222 -0.279,0.395 -0.728,0.506 -1.166,0.428 -0.514,-0.091 -1.012,-0.276 -1.511,-0.437 -2.749,-0.891 -5.498,-1.783 -8.244,-2.684 -1.747,-0.573 -3.501,-1.13 -5.228,-1.758 -1.079,-0.393 -2.035,-1.03 -2.824,-1.88 -0.348,-0.374 -0.311,-0.775 0.027,-1.161 0.601,-0.686 1.388,-1.097 2.227,-1.341 1.005,-0.293 2.044,-0.489 3.079,-0.654 1.82,-0.289 3.648,-0.555 5.35,-1.291 2.85,-1.233 3.13,-3.214 0.736,-5.162 -1.878,-1.528 -4.039,-2.335 -6.432,-2.786 -1.971,-0.372 -3.436,0.25 -4.771,1.506 -0.506,0.475 -0.893,1.076 -1.328,1.625 -0.6,0.756 -1.182,1.531 -2.02,2.047 -0.132,0.081 -0.333,0.095 -0.495,0.078 -0.333,-0.036 -0.379,-0.33 -0.389,-0.578 -0.131,-3.183 1.794,-5.826 4.816,-6.707 0.946,-0.276 1.897,-0.311 2.862,-0.307 m -175.249,2.816 c 2.95,0.179 5.996,0.445 8.932,1.396 1.833,0.594 3.637,1.275 5.178,2.482 2.094,1.639 2.736,3.77 1.924,6.302 -0.894,2.788 -2.935,4.246 -5.677,4.867 -3.177,0.72 -6.271,0.288 -9.255,-0.88 -2.948,-1.152 -5.598,-2.866 -8.194,-4.657 -0.801,-0.552 -1.447,-1.263 -1.927,-2.117 -0.969,-1.725 -0.754,-3.383 0.602,-4.793 0.809,-0.841 1.778,-1.398 2.881,-1.755 1.765,-0.572 3.586,-0.751 5.536,-0.845 m 122.018,0.01 c 3.915,0.129 7.525,0.72 10.985,2.091 1.229,0.488 2.385,1.107 3.416,1.939 2.024,1.632 2.621,3.908 1.712,6.361 -0.708,1.912 -1.98,3.285 -3.848,4.088 -1.635,0.703 -3.38,1.027 -5.128,0.895 -2.354,-0.178 -4.677,-0.577 -6.863,-1.607 -2.387,-1.124 -4.627,-2.49 -6.807,-3.951 -0.786,-0.526 -1.509,-1.231 -2.066,-1.997 -1.507,-2.074 -1.283,-3.756 0.617,-5.582 0.754,-0.725 1.71,-1.188 2.746,-1.491 1.784,-0.523 3.61,-0.65 5.236,-0.746 m -425.338,0 c 3.922,0.127 7.532,0.716 10.993,2.087 1.228,0.486 2.385,1.105 3.417,1.936 2.026,1.631 2.629,3.905 1.725,6.357 -0.705,1.913 -1.974,3.29 -3.841,4.094 -1.634,0.704 -3.374,1.013 -5.129,0.909 -2.908,-0.173 -5.718,-0.848 -8.288,-2.277 -1.684,-0.936 -3.328,-1.945 -4.964,-2.964 -0.972,-0.605 -1.841,-1.363 -2.5,-2.304 -1.478,-2.107 -1.277,-3.767 0.614,-5.593 0.753,-0.727 1.709,-1.19 2.744,-1.496 1.784,-0.528 3.611,-0.646 5.229,-0.749 m 162.326,-0.26 c 1.734,-0.068 3.823,0.15 5.883,0.617 1.107,0.251 2.234,0.491 3.165,1.208 0.192,0.148 0.5,0.344 0.297,0.626 -0.116,0.161 -0.421,0.262 -0.641,0.262 -1.489,-0.005 -2.979,-0.021 -4.45,-0.315 -2.256,-0.451 -4.544,-0.411 -6.815,-0.276 -3.187,0.19 -4.101,2.043 -2.494,4.834 0.978,1.699 1.574,1.944 3.425,1.438 0.758,-0.207 1.514,-0.453 2.288,-0.565 2.787,-0.403 5.402,0.122 7.807,1.604 1.524,0.939 2.009,2.355 1.793,4.066 -0.198,1.575 -1.207,2.46 -2.596,3.015 -1.264,0.504 -2.557,0.623 -3.859,0.209 -1.251,-0.399 -2.495,-0.825 -3.721,-1.294 -3.787,-1.446 -6.405,-4.205 -8.367,-7.64 -0.426,-0.745 -0.717,-1.615 -0.862,-2.463 -0.276,-1.606 0.301,-2.95 1.685,-3.851 0.58,-0.377 1.244,-0.637 1.891,-0.896 1.673,-0.668 3.439,-0.581 5.571,-0.579 m -178.096,2.636 c -2.035,0.183 -3.704,0.131 -5.331,-0.184 -2.175,-0.422 -4.358,-0.358 -6.545,-0.375 -0.981,-0.007 -1.913,0.211 -2.8,0.622 -0.599,0.277 -0.974,0.753 -1.055,1.406 -0.215,1.737 0.665,3.071 1.801,4.184 0.801,0.785 1.818,0.272 2.729,-0.042 0.165,-0.056 0.329,-0.122 0.498,-0.167 2.826,-0.755 5.549,-0.366 8.205,0.753 0.736,0.31 1.397,0.736 1.934,1.329 1.724,1.903 1.224,4.852 -1.047,6.048 -1.448,0.762 -2.988,1.003 -4.579,0.506 -1.169,-0.365 -2.33,-0.763 -3.477,-1.192 -3.888,-1.454 -6.542,-4.289 -8.563,-7.79 -0.387,-0.67 -0.624,-1.45 -0.81,-2.208 -0.418,-1.707 0.188,-3.074 1.684,-4.044 1.124,-0.729 2.378,-1.223 3.675,-1.335 3.766,-0.323 7.529,-0.314 11.18,0.906 0.815,0.273 1.647,0.525 2.501,1.583 m 62.58,-15.224 c 1.403,-0.135 2.053,0.315 2.515,1.191 0.49,0.927 0.979,1.88 1.627,2.695 1.588,1.995 2.962,4.131 4.381,6.24 1.137,1.69 2.416,3.236 4.342,4.094 0.508,0.226 0.911,0.578 0.947,1.16 0.117,1.874 1.216,3.227 2.318,4.611 1.31,1.645 2.544,3.351 3.813,5.029 0.659,0.871 1.078,1.818 0.83,2.936 -0.11,0.495 -0.2,1.09 -0.815,1.205 -0.485,0.091 -0.778,-0.347 -1.071,-0.657 -0.42,-0.444 -0.806,-0.923 -1.196,-1.395 -2.019,-2.445 -3.565,-5.201 -5.198,-7.901 -0.496,-0.822 -1.047,-1.62 -1.652,-2.366 -1.709,-2.108 -4.607,-1.249 -5.689,0.312 -0.713,1.028 -1.213,2.129 -1.209,3.414 0.005,1.228 0.008,2.457 -0.016,3.684 -0.025,1.294 -0.551,2.374 -1.488,3.255 -0.686,0.644 -1.562,0.423 -1.862,-0.456 -0.355,-1.037 -0.214,-2.083 -0.041,-3.121 0.274,-1.641 0.58,-3.277 0.886,-4.913 0.302,-1.611 1.074,-2.967 2.35,-3.993 0.818,-0.657 1.703,-1.232 2.565,-1.834 0.96,-0.668 1.003,-0.87 0.311,-1.885 -0.246,-0.362 -0.512,-0.713 -0.796,-1.046 -1.137,-1.334 -2.284,-2.66 -3.428,-3.988 -1.316,-1.529 -2.641,-3.053 -3.567,-4.865 -0.274,-0.537 -0.03,-1.098 0.521,-1.262 0.333,-0.099 0.678,-0.157 0.622,-0.144 m -20.715,10.062 c 3.522,0.042 6.739,1.042 9.532,3.222 1.25,0.975 2.361,2.106 3.026,3.586 0.576,1.282 0.346,2.381 -0.724,3.309 -0.731,0.633 -1.549,1.142 -2.493,1.428 -1.593,0.483 -3.181,0.98 -4.768,1.481 -0.833,0.263 -1.665,0.532 -2.486,0.829 -0.361,0.13 -0.396,0.592 -0.095,0.842 0.819,0.68 1.747,1.178 2.736,1.546 2.057,0.766 4.154,1.395 6.346,1.637 1.145,0.127 2.274,0.334 3.228,1.008 0.637,0.451 1.265,1.007 1.18,1.905 -0.055,0.59 -1.116,0.748 -2.318,0.368 -3.76,-1.188 -7.519,-2.381 -11.277,-3.573 -1.593,-0.506 -3.145,-1.115 -4.557,-2.021 -1.782,-1.145 -1.738,-1.933 0.162,-2.931 0.461,-0.242 0.963,-0.436 1.469,-0.554 1.022,-0.238 2.06,-0.412 3.092,-0.606 1.808,-0.341 3.636,-0.594 5.313,-1.429 2.512,-1.251 2.758,-2.742 0.711,-4.636 -1.93,-1.786 -4.254,-2.66 -6.835,-3.104 -1.838,-0.315 -3.291,0.137 -4.532,1.421 -0.668,0.692 -1.286,1.438 -1.875,2.2 -0.488,0.633 -0.997,1.227 -1.718,1.593 -0.138,0.071 -0.34,0.085 -0.491,0.044 -0.283,-0.077 -0.409,-0.328 -0.409,-0.599 -0.004,-3.682 2.509,-6.506 6.206,-6.958 0.519,-0.063 1.051,-0.008 1.577,-0.008 m 247.177,0 c 3.524,0.033 6.738,1.044 9.533,3.22 1.251,0.974 2.362,2.106 3.028,3.585 0.576,1.28 0.347,2.383 -0.721,3.309 -0.731,0.635 -1.548,1.144 -2.492,1.43 -1.593,0.483 -3.181,0.981 -4.769,1.482 -0.833,0.263 -1.665,0.53 -2.486,0.827 -0.364,0.131 -0.401,0.591 -0.099,0.842 0.818,0.681 1.746,1.179 2.735,1.547 2.056,0.766 4.153,1.396 6.346,1.638 1.144,0.126 2.274,0.333 3.228,1.007 0.638,0.45 1.27,1.002 1.186,1.904 -0.056,0.59 -1.118,0.75 -2.317,0.371 -3.761,-1.188 -7.52,-2.38 -11.278,-3.573 -1.593,-0.506 -3.145,-1.115 -4.557,-2.021 -1.784,-1.145 -1.742,-1.932 0.156,-2.93 0.46,-0.242 0.962,-0.437 1.468,-0.555 1.023,-0.239 2.06,-0.413 3.093,-0.607 1.807,-0.34 3.636,-0.593 5.313,-1.428 2.515,-1.25 2.757,-2.735 0.718,-4.636 -1.999,-1.865 -4.427,-2.733 -7.096,-3.147 -1.628,-0.252 -2.959,0.173 -4.082,1.279 -0.747,0.735 -1.416,1.556 -2.065,2.382 -0.494,0.628 -0.998,1.226 -1.718,1.594 -0.138,0.071 -0.34,0.086 -0.491,0.046 -0.285,-0.074 -0.411,-0.326 -0.411,-0.597 -0.012,-3.678 2.502,-6.507 6.202,-6.96 0.518,-0.064 1.05,-0.009 1.576,-0.009 m 111.425,19.169 c -0.01,-0.488 -0.34,-0.796 -0.63,-1.115 -1.533,-1.686 -3.089,-3.352 -4.609,-5.05 -1.354,-1.513 -2.568,-3.122 -3.038,-5.158 -0.39,-1.693 0.226,-3.175 1.709,-4.044 0.45,-0.264 0.943,-0.483 1.444,-0.625 3.595,-1.023 7.229,-1.366 10.913,-0.52 0.506,0.116 1.03,0.246 1.181,0.862 0.097,0.395 -0.409,0.596 -1.258,0.499 -0.174,-0.02 -0.349,-0.043 -0.52,-0.077 -2.794,-0.562 -5.385,0.138 -7.904,1.273 -0.239,0.108 -0.474,0.231 -0.696,0.372 -1.469,0.935 -1.783,1.997 -1.046,3.573 0.562,1.202 1.314,2.299 2.226,3.242 1.409,1.458 2.597,3.085 3.852,4.664 0.435,0.547 0.868,1.116 1.396,1.565 1.421,1.213 3.025,1.731 4.883,1.086 0.578,-0.2 1.175,-0.353 1.772,-0.489 0.461,-0.105 0.647,0.25 0.669,0.6 0.06,0.97 -0.467,1.611 -1.213,2.186 -1.726,1.329 -1.706,1.354 -0.46,3.203 0.295,0.436 0.611,0.86 0.873,1.315 0.352,0.608 0.644,1.248 0.704,1.965 0.059,0.713 -0.011,1.386 -0.441,2.007 -0.433,0.625 -1.106,0.69 -1.458,0.062 -0.299,-0.535 -0.532,-1.107 -0.812,-1.653 -0.6,-1.171 -1.169,-2.36 -1.828,-3.497 -1.058,-1.829 -2.601,-3.056 -4.708,-3.482 -0.857,-0.173 -1.717,-0.356 -2.585,-0.44 -1.919,-0.186 -3.844,-0.297 -5.763,-0.473 -0.514,-0.048 -1.04,-0.166 -1.517,-0.357 -0.416,-0.167 -0.677,-0.557 -0.696,-1.033 -0.019,-0.486 0.258,-0.829 0.653,-1.061 0.791,-0.467 1.666,-0.572 2.545,-0.405 1.549,0.296 3.086,0.651 4.628,0.984 0.572,0.124 1.142,0.437 1.734,0.021 m -276.453,-17.036 c 1.595,-0.016 3.133,0.382 4.689,0.629 0.236,0.038 0.47,0.234 0.653,0.41 0.101,0.098 0.149,0.321 0.117,0.464 -0.032,0.142 -0.191,0.358 -0.301,0.362 -0.521,0.019 -1.065,0.065 -1.562,-0.059 -2.428,-0.603 -4.698,0.085 -6.945,0.838 -0.731,0.245 -1.426,0.685 -2.045,1.157 -0.959,0.731 -1.241,1.69 -0.77,2.808 0.371,0.878 0.859,1.739 1.447,2.488 1.677,2.137 3.427,4.216 5.161,6.307 0.335,0.404 0.718,0.771 1.099,1.133 1.324,1.257 2.881,1.594 4.625,1.122 0.677,-0.183 1.341,-0.414 2.02,-0.585 0.473,-0.119 0.805,0.302 0.722,0.8 -0.106,0.638 -0.397,1.169 -0.878,1.574 -0.467,0.393 -0.99,0.719 -1.481,1.085 -0.633,0.471 -0.691,0.683 -0.297,1.283 0.433,0.66 0.894,1.302 1.347,1.949 0.509,0.728 0.831,1.528 1.042,2.395 0.226,0.933 0.007,1.723 -0.536,2.474 -0.378,0.522 -0.95,0.541 -1.231,-0.011 -0.676,-1.328 -1.363,-2.653 -1.981,-4.009 -1.54,-3.377 -4.197,-5.033 -7.849,-5.252 -1.923,-0.116 -3.842,-0.29 -5.763,-0.447 -0.609,-0.05 -1.227,-0.076 -1.756,-0.459 -0.389,-0.281 -0.565,-0.654 -0.544,-1.122 0.022,-0.486 0.283,-0.829 0.723,-0.996 0.918,-0.351 1.868,-0.485 2.84,-0.265 1.367,0.31 2.727,0.646 4.095,0.951 0.423,0.095 0.86,0.164 1.292,0.173 0.334,0.007 0.437,-0.337 0.317,-0.543 -0.306,-0.526 -0.65,-1.044 -1.06,-1.492 -1.182,-1.295 -2.426,-2.535 -3.606,-3.833 -1.301,-1.431 -2.521,-2.928 -3.192,-4.782 -0.863,-2.385 -0.149,-4.102 2.152,-5.171 0.395,-0.183 0.812,-0.33 1.232,-0.449 2.034,-0.578 4.121,-0.808 6.224,-0.927 m 79.925,0.029 c 2.308,-0.044 3.846,0.354 5.402,0.601 0.236,0.037 0.47,0.234 0.652,0.411 0.101,0.097 0.149,0.321 0.117,0.463 -0.033,0.142 -0.192,0.358 -0.303,0.362 -0.52,0.019 -1.062,0.058 -1.562,-0.058 -2.519,-0.585 -4.873,0.079 -7.191,0.928 -0.645,0.236 -1.256,0.636 -1.801,1.063 -0.949,0.745 -1.237,1.694 -0.765,2.812 0.37,0.878 0.859,1.739 1.447,2.488 1.678,2.136 3.427,4.216 5.162,6.307 0.334,0.404 0.717,0.77 1.098,1.132 1.325,1.257 2.882,1.592 4.626,1.12 0.592,-0.16 1.177,-0.35 1.764,-0.528 0.351,-0.107 0.72,-0.145 0.893,0.238 0.097,0.215 0.083,0.523 0.019,0.763 -0.324,1.213 -1.335,1.779 -2.293,2.41 -0.656,0.432 -0.693,0.676 -0.298,1.277 0.434,0.66 0.894,1.302 1.347,1.949 0.51,0.729 0.831,1.528 1.041,2.395 0.226,0.934 0.005,1.724 -0.538,2.474 -0.378,0.521 -0.949,0.537 -1.23,-0.015 -0.676,-1.329 -1.363,-2.653 -1.982,-4.009 -1.54,-3.378 -4.199,-5.031 -7.85,-5.25 -1.923,-0.116 -3.843,-0.291 -5.763,-0.448 -0.61,-0.049 -1.228,-0.076 -1.756,-0.46 -0.387,-0.281 -0.565,-0.653 -0.542,-1.123 0.023,-0.487 0.285,-0.829 0.724,-0.995 0.918,-0.348 1.868,-0.484 2.84,-0.263 1.367,0.31 2.728,0.646 4.096,0.951 0.423,0.095 0.86,0.164 1.292,0.173 0.335,0.007 0.436,-0.338 0.316,-0.544 -0.306,-0.525 -0.651,-1.043 -1.06,-1.491 -1.183,-1.296 -2.426,-2.536 -3.606,-3.833 -1.302,-1.431 -2.522,-2.929 -3.193,-4.783 -0.862,-2.385 -0.147,-4.102 2.154,-5.17 0.395,-0.184 0.812,-0.33 1.232,-0.449 2.034,-0.578 4.122,-0.808 5.511,-0.898 m 170.435,5.817 c 0.068,-1.141 0.061,-1.84 0.161,-2.524 0.252,-1.72 1.281,-2.719 2.997,-2.729 1.311,-0.008 2.604,0.303 3.804,0.879 0.119,0.057 0.236,0.278 0.222,0.408 -0.017,0.145 -0.157,0.319 -0.291,0.4 -0.639,0.383 -1.37,0.185 -2.055,0.29 -1.443,0.223 -1.967,0.975 -1.625,2.398 0.122,0.506 0.336,0.995 0.555,1.47 0.629,1.362 1.475,2.583 2.458,3.715 1.149,1.324 2.281,2.663 3.419,3.996 0.862,1.009 1.526,2.141 2.018,3.369 0.198,0.495 0.31,1.02 -0.128,1.474 -0.484,0.502 -1.103,0.549 -1.702,0.354 -0.399,-0.13 -0.767,-0.409 -1.097,-0.684 -0.967,-0.807 -1.487,-1.935 -2.085,-3.006 -1.463,-2.619 -3.163,-5.011 -5.602,-6.872 -3.402,-2.596 -7.262,-4.209 -11.238,-5.615 -0.917,-0.324 -1.891,-0.346 -2.859,-0.159 -0.625,0.121 -0.919,0.565 -0.683,1.134 0.682,1.644 1.753,3.034 2.958,4.314 1.442,1.532 2.949,3.003 4.4,4.527 0.785,0.824 1.533,1.684 2.254,2.563 0.329,0.401 0.597,0.868 0.816,1.34 0.31,0.672 0.178,1.428 -0.243,1.687 -0.51,0.315 -1.037,0.208 -1.484,-0.096 -0.577,-0.392 -1.141,-0.821 -1.636,-1.31 -3.435,-3.391 -6.643,-6.986 -9.581,-10.818 -0.478,-0.624 -0.937,-1.28 -1.289,-1.98 -0.915,-1.819 -0.377,-3.05 1.557,-3.622 1.549,-0.458 3.117,-0.357 4.684,-0.054 2.968,0.574 5.656,1.83 8.236,3.355 0.893,0.527 1.788,1.05 3.059,1.796 m -210.366,8.138 c 0.009,3.148 -1.77,4.339 -4.494,3.234 -0.081,-0.033 -0.163,-0.065 -0.244,-0.099 -2.819,-1.202 -5.731,-2.188 -8.448,-3.63 -0.23,-0.122 -0.478,-0.231 -0.73,-0.282 -0.144,-0.028 -0.358,0.03 -0.458,0.131 -0.1,0.101 -0.175,0.33 -0.13,0.457 0.607,1.747 1.504,3.35 2.413,4.954 1.469,2.593 2.868,5.226 4.291,7.844 0.125,0.23 0.232,0.475 0.311,0.725 0.273,0.861 -0.04,1.623 -0.802,1.99 -0.652,0.314 -1.236,0.123 -1.795,-0.643 -0.888,-1.217 -1.402,-2.62 -1.958,-4.004 -1.906,-4.75 -4.387,-9.18 -7.584,-13.179 -2.08,-2.6 -4.292,-5.094 -6.412,-7.662 -0.498,-0.603 -0.9,-1.294 -1.281,-1.981 -0.431,-0.776 -0.274,-1.079 0.572,-1.324 1.893,-0.548 1.882,-0.542 2.84,1.119 1.773,3.075 4.061,5.701 6.885,7.86 3.556,2.718 7.549,4.413 11.96,5.124 1.098,0.177 1.451,-0.152 1.493,-1.218 0.065,-1.639 -0.546,-3.084 -1.225,-4.52 -1.125,-2.377 -2.262,-4.749 -3.331,-7.151 -0.314,-0.708 -0.507,-1.501 -0.591,-2.273 -0.105,-0.962 0.578,-1.831 1.403,-1.958 0.827,-0.127 1.543,0.233 2.219,0.631 0.35,0.206 0.29,0.594 0.151,0.939 -0.376,0.928 -0.443,1.906 -0.174,2.842 0.264,0.92 0.664,1.811 1.094,2.67 0.904,1.803 1.864,3.578 2.807,5.361 0.707,1.338 1.086,2.767 1.218,4.043 m -206.676,-11.478 c -2.912,0.088 -5.665,0.619 -8.239,1.816 -2.618,1.217 -3.384,3.471 -2.22,6.132 0.677,1.547 1.687,2.866 2.839,4.088 1.629,1.729 3.405,3.297 5.248,4.788 3.861,3.122 8.084,5.585 12.915,6.878 2.201,0.589 4.432,1.062 6.641,1.623 0.937,0.238 1.179,1.008 0.614,1.795 -0.692,0.964 -1.64,1.292 -2.771,0.99 -1.524,-0.407 -3.062,-0.786 -4.548,-1.308 -3.74,-1.313 -7.297,-3.025 -10.522,-5.345 -2.278,-1.638 -4.507,-3.353 -6.678,-5.131 -1.216,-0.997 -2.341,-2.13 -3.379,-3.313 -1.716,-1.956 -2.788,-4.257 -3.092,-6.857 -0.289,-2.463 0.508,-4.494 2.627,-5.901 1.49,-0.99 3.164,-1.487 4.917,-1.755 2.891,-0.441 5.761,-0.32 8.63,0.235 1.027,0.198 2.086,0.258 3.133,0.313 0.696,0.037 0.927,-0.295 0.783,-0.985 -0.089,-0.427 -0.266,-0.841 -0.312,-1.27 -0.081,-0.762 0.409,-1.324 1.197,-1.46 1.202,-0.208 2.098,0.22 2.409,1.469 0.718,2.88 2.333,5.261 3.882,7.715 1.403,2.222 2.63,4.56 3.842,6.894 0.479,0.922 0.733,1.965 1.041,2.968 0.145,0.472 -0.2,0.843 -0.688,0.888 -1.184,0.109 -2.23,-0.399 -3.319,-0.719 -3.103,-0.912 -6.18,-1.946 -9.504,-1.589 -0.998,0.107 -1.64,-0.536 -1.749,-1.552 -0.153,-1.425 0.748,-2.419 2.184,-2.261 0.861,0.094 1.709,0.371 2.542,0.632 1.338,0.418 2.653,0.909 3.989,1.332 0.498,0.158 0.856,-0.127 0.908,-0.648 0.273,-2.78 -0.871,-4.985 -2.932,-6.704 -3.012,-2.512 -6.581,-3.582 -10.388,-3.758 M 279.199,79.939 c 0,11.501 10e-4,23.001 -0.001,34.501 -10e-4,0.789 -0.01,1.58 -0.041,2.368 -0.019,0.495 -0.284,0.819 -0.797,0.845 -0.701,0.036 -1.403,0.049 -2.105,0.05 -6.145,0.003 -12.29,0.005 -18.435,0 -3.277,-0.002 -2.968,0.24 -2.969,-2.981 -0.006,-15.714 -0.003,-31.428 -0.003,-47.142 0,-0.614 -0.047,-1.233 0.009,-1.842 0.093,-1.017 -0.373,-1.605 -1.236,-2.086 -2.939,-1.636 -6.031,-2.88 -9.348,-3.413 -3.05,-0.49 -6.127,-0.459 -9.138,0.383 -2.41,0.674 -4.194,2.113 -5.269,4.411 -0.713,1.525 -1.214,3.109 -1.386,4.778 -0.289,2.791 -0.526,5.583 -0.519,8.399 0.027,12.114 0.012,24.229 0.01,36.344 -0.001,0.789 -0.019,1.579 -0.051,2.367 -0.015,0.389 -0.229,0.655 -0.631,0.705 -0.347,0.043 -0.698,0.073 -1.048,0.073 -6.935,0.004 -13.87,0.012 -20.806,-0.003 -1.748,-0.004 -1.748,-0.04 -1.791,-1.764 -0.004,-0.175 -0.001,-0.351 -0.001,-0.526 0,-16.153 0.003,-32.306 -0.002,-48.459 -0.001,-3.001 0.395,-5.955 1.128,-8.854 2.152,-8.505 7.239,-14.305 15.815,-16.692 4.171,-1.161 8.439,-1.398 12.775,-0.937 4.079,0.434 7.897,1.535 11.484,3.515 2.694,1.487 5.253,3.177 7.781,4.925 0.606,0.419 1.169,1.387 1.969,0.929 0.589,-0.337 0.223,-1.29 0.243,-1.964 0.045,-1.492 0.017,-2.985 0.03,-4.477 0.005,-0.606 0.291,-0.99 0.928,-1.032 0.35,-0.023 0.701,-0.027 1.052,-0.027 6.76,-10e-4 13.52,-0.009 20.279,0.004 2.029,0.004 2.038,0.039 2.072,2.048 0.009,0.527 0.002,1.054 0.002,1.58 z M 39.71,75.267 c 1.061,0.399 2.031,0.262 2.977,0.263 16.244,0.008 32.488,0.005 48.732,0.006 0.702,0 1.406,-0.018 2.107,0.01 1.007,0.04 1.236,0.236 1.245,1.263 0.028,3.073 0.085,6.148 -0.004,9.219 -0.13,4.488 -0.71,8.918 -2.176,13.194 -2.05,5.973 -5.414,10.989 -10.636,14.662 -3.202,2.252 -6.753,3.729 -10.516,4.702 -5.572,1.44 -11.254,1.785 -16.98,1.495 C 49.62,119.835 44.851,119.117 40.268,117.49 28.17,113.198 20.121,104.986 16.677,92.556 14.582,84.997 14.467,77.302 16.052,69.611 c 2.003,-9.718 7.21,-17.195 15.736,-22.33 5.741,-3.459 12.041,-5.226 18.614,-6.132 5.316,-0.733 10.656,-0.797 16.022,-0.622 8.797,0.287 17.164,2.398 25.349,5.457 1.134,0.423 1.664,0.982 1.647,2.282 -0.071,5.355 -0.022,10.712 -0.034,16.068 -0.004,1.614 -0.264,1.804 -1.794,1.786 -0.946,-0.012 -1.65,-0.462 -2.399,-0.937 -6.232,-3.95 -12.928,-6.707 -20.307,-7.517 -5.545,-0.608 -11.048,-0.257 -16.416,1.379 -3.247,0.99 -6.116,2.637 -8.414,5.183 -2.817,3.121 -4.146,6.813 -4.346,11.039 m 142.044,-4.82 c 0,7.552 0.007,15.103 -0.005,22.655 -0.004,2.636 -0.153,5.262 -0.76,7.843 -1.514,6.437 -5.092,11.271 -11.039,14.291 -2.519,1.279 -5.161,2.192 -7.897,2.866 -5.484,1.352 -11.084,1.769 -16.699,1.929 -6.948,0.198 -13.854,-0.419 -20.708,-1.538 -3.374,-0.552 -6.724,-1.257 -10.074,-1.948 -1.357,-0.279 -1.38,-0.345 -1.385,-1.769 -0.018,-4.829 -0.015,-9.659 -0.005,-14.488 0.005,-2.407 0.474,-2.779 2.773,-2.234 0.424,0.101 0.824,0.298 1.24,0.434 3.002,0.982 5.997,1.986 9.009,2.933 6.664,2.095 13.454,2.316 20.309,1.235 1.992,-0.314 3.968,-0.765 5.82,-1.603 2.821,-1.275 4.661,-3.336 5.206,-6.476 0.405,-2.329 0.392,-2.411 -1.844,-2.633 -0.699,-0.069 -1.399,-0.126 -2.1,-0.168 -6.747,-0.403 -13.469,-1.06 -20.139,-2.17 -5.13,-0.853 -10.113,-2.23 -14.732,-4.685 -4.37,-2.322 -7.967,-5.486 -10.008,-10.095 -2.551,-5.763 -2.869,-11.787 -1.089,-17.761 2.59,-8.689 8.817,-13.664 17.395,-15.911 3.176,-0.831 6.431,-0.74 9.686,-0.621 6.872,0.251 13.078,2.356 18.577,6.508 1.05,0.793 2.107,1.579 3.18,2.342 0.534,0.381 1.097,0.143 1.113,-0.475 0.042,-1.579 0.026,-3.16 0.056,-4.74 0.034,-1.763 0.072,-1.826 1.752,-1.829 6.849,-0.015 13.698,-0.014 20.547,-10e-4 1.71,0.003 1.771,0.091 1.817,1.767 0.014,0.526 0.003,1.053 0.004,1.58 0,8.254 0,16.508 0,24.762 M -141.791,22.641 c 48.391,0 96.783,0 145.175,0.002 2.907,0 2.704,-0.217 2.704,2.694 0.002,31.617 0.002,63.234 0,94.851 0,0.614 -0.009,1.229 -0.038,1.842 -0.025,0.515 -0.336,0.784 -0.836,0.803 -0.701,0.027 -1.404,0.034 -2.106,0.034 -8.343,0.003 -16.687,0.013 -25.03,-0.004 -3.611,-0.007 -3.162,0.407 -3.164,-3.277 -0.012,-24.503 -0.006,-49.007 -0.006,-73.51 0,-0.79 0.018,-1.582 -0.011,-2.371 -0.041,-1.119 -0.243,-1.304 -1.446,-1.356 -0.614,-0.027 -1.23,-0.01 -1.844,-0.01 -6.236,-10e-4 -12.472,-0.018 -18.707,0.005 -4.405,0.017 -3.802,-0.486 -3.805,3.742 -0.018,24.767 -0.009,49.534 -0.009,74.3 0,2.52 0.134,2.487 -2.401,2.485 -8.607,-0.006 -17.214,-0.003 -25.821,-10e-4 -0.702,10e-4 -1.404,0.015 -2.106,0.038 -0.524,0.017 -0.772,0.349 -0.837,0.83 -0.034,0.26 -0.03,0.526 -0.03,0.79 -0.001,5.445 -0.001,10.89 0.003,16.335 0,0.262 0.028,0.525 0.061,0.786 0.05,0.395 0.291,0.639 0.68,0.656 0.877,0.038 1.755,0.055 2.632,0.055 27.138,0.003 54.276,0.002 81.414,0.005 0.877,0 1.755,0.018 2.632,0.051 0.39,0.015 0.67,0.242 0.699,0.639 0.05,0.699 0.073,1.401 0.074,2.102 0.006,4.654 0.009,9.309 0.002,13.964 -0.006,3.43 0.301,3.09 -3.121,3.09 -96.432,0.004 -192.864,0.003 -289.296,0.003 -0.702,0 -1.405,0 -2.107,-0.018 -0.61,-0.016 -0.998,-0.316 -1.019,-0.952 -0.027,-0.79 -0.023,-1.58 -0.023,-2.371 0,-44.264 -0.004,-88.528 0.006,-132.791 10e-4,-3.918 -0.495,-3.434 3.56,-3.435 48.04,-0.009 96.08,-0.006 144.121,-0.006 M -298.039,362.046 H 291.62 v -589.708 h -589.659 z" /></g><g
                 id="g34"
                 transform="translate(191.397,449.2455)"><path
                   id="path32"
                   style="fill:#02a2e1;fill-opacity:1;fill-rule:nonzero;stroke:none"
                   d="m 0,0 c 8.079,0 16.159,0 24.238,0 0.703,0 1.406,-0.016 2.108,0.015 0.964,0.043 1.229,0.281 1.226,1.29 -0.007,3.687 -0.032,7.374 -0.092,11.061 -0.057,3.445 -0.676,6.813 -1.667,10.099 -1.901,6.306 -5.229,11.659 -10.635,15.591 -3.314,2.41 -7.007,3.988 -10.952,4.992 -6.013,1.529 -12.139,1.864 -18.296,1.404 -4.646,-0.346 -9.229,-1.134 -13.616,-2.808 -12.736,-4.86 -20.57,-13.94 -23.407,-27.276 -1.274,-5.985 -1.348,-12.028 -0.429,-18.066 1.054,-6.928 3.7,-13.165 8.483,-18.369 4.188,-4.557 9.351,-7.648 15.162,-9.678 6.186,-2.161 12.586,-3.037 19.115,-3.3 11.017,-0.444 21.703,1.079 32.026,5.002 0.738,0.28 1.465,0.59 2.197,0.887 0.445,0.181 0.707,0.512 0.738,0.989 0.033,0.525 0.042,1.053 0.042,1.579 0.003,4.918 0.002,9.836 0.001,14.754 0,0.438 -0.008,0.877 -0.022,1.316 -0.019,0.62 -0.33,0.954 -0.962,1.003 -1.171,0.093 -2.167,-0.163 -3.21,-0.837 -6.123,-3.953 -12.758,-6.66 -20.035,-7.504 -5.718,-0.663 -11.401,-0.331 -16.93,1.42 -3.057,0.969 -5.785,2.528 -7.997,4.899 -2.676,2.868 -4.083,6.302 -4.482,10.169 -0.117,1.133 0.089,1.319 1.314,1.359 C -25.38,0.014 -24.677,0 -23.975,0 -15.983,0 -7.992,0 0,0 m -64.408,48.367 h -0.003 c 0,3.601 -0.014,7.202 0.011,10.803 0.006,0.799 -0.276,1.327 -0.997,1.67 -5.161,2.452 -10.402,4.697 -16.018,5.902 -7.847,1.683 -15.757,2.415 -23.792,1.739 -4.842,-0.407 -9.564,-1.303 -14.151,-2.86 -10.46,-3.549 -18.694,-9.906 -24.281,-19.523 -4.225,-7.271 -6.407,-15.174 -6.998,-23.514 -0.385,-5.435 -0.314,-10.871 0.426,-16.293 0.839,-6.147 2.554,-12.013 5.42,-17.513 2.457,-4.714 5.645,-8.869 9.687,-12.367 7.059,-6.109 15.368,-9.389 24.471,-10.813 5.295,-0.829 10.619,-1.059 15.998,-0.733 4.232,0.257 8.364,0.877 12.472,1.848 5.756,1.36 11.165,3.638 16.526,6.069 0.958,0.434 1.32,1.06 1.232,2.048 -0.024,0.261 -0.003,0.526 -0.003,0.79 0,6.412 0.001,12.823 -0.001,19.235 -10e-4,0.527 -0.004,1.055 -0.042,1.579 -0.038,0.513 -0.367,0.731 -0.86,0.798 -1.302,0.178 -2.35,-0.214 -3.359,-1.094 -3.25,-2.833 -6.74,-5.346 -10.529,-7.423 -7.52,-4.122 -15.442,-5.572 -23.882,-3.592 -6.322,1.484 -11.497,4.708 -15.198,10.11 -2.102,3.067 -3.589,6.427 -4.488,10.044 -0.745,2.997 -1.105,6.04 -1.178,9.119 -0.124,5.199 0.113,10.361 1.709,15.368 1.686,5.291 4.31,10 8.726,13.511 7.001,5.565 15.009,6.928 23.602,5.296 4.887,-0.928 9.283,-3.151 13.455,-5.82 2.669,-1.707 5.203,-3.602 7.609,-5.65 1.044,-0.889 2.126,-1.114 3.392,-1.01 0.604,0.05 0.995,0.298 1.016,0.946 0.019,0.614 0.027,1.229 0.027,1.844 0.003,3.162 0.001,6.324 0.001,9.486 M -23.419,-52.9 c -48.04,0 -96.08,-0.004 -144.12,0.006 -4.056,0 -3.559,-0.483 -3.56,3.434 -0.01,44.264 -0.007,88.528 -0.006,132.792 0,0.79 -0.004,1.581 0.023,2.37 0.021,0.636 0.409,0.936 1.018,0.952 0.703,0.019 1.405,0.018 2.108,0.018 96.432,0.001 192.864,0.001 289.296,-0.002 3.422,0 3.115,0.339 3.12,-3.091 0.008,-4.655 0.005,-9.309 -10e-4,-13.964 -0.001,-0.701 -0.024,-1.403 -0.075,-2.101 -0.028,-0.398 -0.308,-0.625 -0.698,-0.64 -0.877,-0.033 -1.755,-0.051 -2.632,-0.051 -27.138,-0.002 -54.276,-0.002 -81.414,-0.004 -0.877,0 -1.755,-0.018 -2.632,-0.055 -0.39,-0.017 -0.63,-0.262 -0.68,-0.657 -0.033,-0.26 -0.061,-0.524 -0.061,-0.786 -0.004,-5.445 -0.004,-10.89 -0.003,-16.335 0,-0.263 -0.005,-0.529 0.03,-0.789 0.065,-0.482 0.313,-0.813 0.837,-0.831 0.702,-0.023 1.404,-0.037 2.106,-0.037 8.607,-0.003 17.214,-0.005 25.821,0 2.535,0.002 2.401,0.035 2.401,-2.484 -0.001,-24.767 -0.009,-49.534 0.008,-74.3 0.003,-4.228 -0.6,-3.726 3.806,-3.743 6.235,-0.023 12.471,-0.006 18.706,-0.005 0.615,0 1.231,-0.016 1.844,0.01 1.204,0.053 1.406,0.237 1.447,1.356 0.029,0.79 0.01,1.581 0.01,2.371 0.001,24.504 -0.005,49.007 0.007,73.51 10e-4,3.685 -0.447,3.27 3.164,3.278 8.343,0.017 16.686,0.006 25.03,0.004 0.702,0 1.405,-0.007 2.106,-0.035 0.499,-0.019 0.811,-0.288 0.835,-0.803 0.03,-0.613 0.039,-1.228 0.039,-1.842 0.001,-31.617 0.002,-63.234 0,-94.851 0,-2.91 0.203,-2.694 -2.705,-2.694 C 73.365,-52.901 24.973,-52.9 -23.419,-52.9" /></g><g
                 id="g38"
                 transform="translate(467.4535,443.5386)"><path
                   id="path36"
                   style="fill:#02a2e1;fill-opacity:1;fill-rule:nonzero;stroke:none"
                   d="m 0,0 h -0.007 c 0,2.282 0.015,4.565 -0.008,6.847 -0.008,0.86 -0.258,1.081 -1.122,0.995 C -4.365,7.523 -7.594,7.2 -10.817,6.83 -13.17,6.561 -15.509,6.193 -17.806,5.591 c -1.535,-0.402 -3.026,-0.906 -4.38,-1.75 -2.644,-1.647 -4.189,-3.94 -4.156,-7.147 0.007,-0.701 0.027,-1.403 0.027,-2.105 -10e-4,-2.518 1.203,-4.336 3.278,-5.645 1.045,-0.66 2.161,-1.134 3.379,-1.413 2.164,-0.495 4.358,-0.535 6.547,-0.438 4.526,0.2 8.513,1.895 12.12,4.576 0.692,0.515 1.014,1.14 1.001,2.011 C -0.021,-4.214 0,-2.107 0,0 m 24.07,0.612 c 0,-8.254 0,-16.508 0,-24.762 0,-0.526 0.011,-1.054 -0.004,-1.58 -0.045,-1.676 -0.107,-1.764 -1.816,-1.767 -6.849,-0.013 -13.699,-0.014 -20.548,0.001 -1.679,0.003 -1.718,0.066 -1.752,1.829 -0.03,1.58 -0.013,3.161 -0.055,4.74 -0.017,0.619 -0.58,0.856 -1.114,0.476 -1.072,-0.764 -2.129,-1.55 -3.18,-2.343 -5.499,-4.152 -11.705,-6.256 -18.576,-6.508 -3.255,-0.119 -6.511,-0.21 -9.687,0.622 -8.578,2.246 -14.805,7.221 -17.394,15.91 -1.78,5.975 -1.463,11.998 1.089,17.761 2.04,4.609 5.638,7.774 10.008,10.096 4.618,2.454 9.601,3.831 14.731,4.685 6.67,1.109 13.392,1.766 20.14,2.17 0.7,0.042 1.401,0.098 2.099,0.167 2.237,0.222 2.249,0.304 1.845,2.633 -0.546,3.14 -2.386,5.201 -5.206,6.477 -1.852,0.837 -3.829,1.288 -5.821,1.602 -6.855,1.081 -13.645,0.86 -20.308,-1.235 -3.013,-0.947 -6.008,-1.951 -9.01,-2.932 -0.416,-0.137 -0.816,-0.334 -1.24,-0.434 -2.299,-0.546 -2.768,-0.174 -2.773,2.233 -0.01,4.829 -0.013,9.659 0.005,14.488 0.005,1.424 0.028,1.49 1.385,1.77 3.35,0.69 6.7,1.396 10.074,1.947 6.854,1.119 13.76,1.736 20.708,1.538 5.615,-0.16 11.215,-0.577 16.7,-1.928 2.735,-0.674 5.378,-1.588 7.896,-2.867 5.947,-3.019 9.526,-7.853 11.04,-14.291 0.607,-2.581 0.756,-5.207 0.76,-7.843 C 24.077,15.715 24.07,8.164 24.07,0.612" /></g><g
                 id="g42"
                 transform="translate(364.8265,463.4755)"><path
                   id="path40"
                   style="fill:#02a2e1;fill-opacity:1;fill-rule:nonzero;stroke:none"
                   d="m 0,0 c 4.29,0 8.581,-0.001 12.871,0.001 0.613,0.001 1.227,-0.007 1.837,0.034 0.641,0.044 0.932,0.39 0.862,1.049 -0.221,2.088 -0.51,4.153 -1.234,6.154 -1.356,3.747 -3.946,6.192 -7.731,7.229 -4.232,1.159 -8.5,1.065 -12.662,-0.418 -3.049,-1.086 -5.6,-2.868 -7.231,-5.765 -1.267,-2.249 -1.963,-4.668 -2.085,-7.245 -0.03,-0.634 0.282,-0.962 0.927,-1.006 0.523,-0.036 1.05,-0.031 1.575,-0.032 C -8.581,-0.001 -4.29,0 0,0 m -15.346,-14.504 c 0.2,-4.227 1.528,-7.919 4.345,-11.04 2.299,-2.546 5.167,-4.193 8.415,-5.183 5.367,-1.636 10.87,-1.987 16.415,-1.378 7.379,0.81 14.075,3.567 20.307,7.516 0.75,0.475 1.454,0.925 2.4,0.937 1.529,0.018 1.79,-0.171 1.793,-1.786 0.012,-5.356 -0.036,-10.713 0.034,-16.068 0.017,-1.3 -0.513,-1.858 -1.646,-2.282 -8.186,-3.059 -16.553,-5.17 -25.349,-5.457 -5.366,-0.175 -10.706,-0.11 -16.023,0.622 -6.573,0.906 -12.872,2.673 -18.614,6.132 -8.525,5.136 -13.733,12.613 -15.735,22.33 -1.585,7.692 -1.471,15.386 0.624,22.946 3.444,12.429 11.494,20.641 23.591,24.934 4.583,1.626 9.352,2.345 14.192,2.59 5.726,0.29 11.407,-0.055 16.979,-1.495 3.764,-0.972 7.315,-2.449 10.516,-4.701 5.223,-3.674 8.587,-8.689 10.636,-14.663 1.467,-4.276 2.046,-8.705 2.177,-13.194 0.089,-3.071 0.031,-6.146 0.004,-9.219 -0.01,-1.027 -0.239,-1.222 -1.246,-1.263 -0.701,-0.028 -1.404,-0.01 -2.107,-0.01 -16.244,0 -32.488,0.002 -48.732,-0.006 -0.946,0 -1.916,0.136 -2.976,-0.262" /></g><g
                 id="g46"
                 transform="translate(588.969,453.6432)"><path
                   id="path44"
                   style="fill:#02a2e1;fill-opacity:1;fill-rule:nonzero;stroke:none"
                   d="m 0,0 v -33.974 c 0,-0.527 0.007,-1.054 -0.002,-1.58 -0.034,-2.009 -0.044,-2.044 -2.072,-2.048 -6.76,-0.013 -13.519,-0.005 -20.279,-0.004 -0.351,0 -0.702,0.004 -1.052,0.027 -0.637,0.042 -0.923,0.426 -0.928,1.032 -0.013,1.492 0.014,2.985 -0.03,4.476 -0.02,0.675 0.345,1.628 -0.243,1.965 -0.8,0.458 -1.364,-0.51 -1.97,-0.93 -2.527,-1.747 -5.086,-3.437 -7.78,-4.924 -3.587,-1.98 -7.405,-3.082 -11.484,-3.515 -4.336,-0.461 -8.604,-0.225 -12.775,0.937 -8.576,2.387 -13.663,8.186 -15.815,16.692 -0.734,2.898 -1.129,5.852 -1.128,8.853 0.005,16.153 0.002,32.306 0.001,48.459 0,0.176 -0.002,0.352 0.002,0.527 0.042,1.724 0.043,1.76 1.791,1.764 6.936,0.015 13.871,0.007 20.806,0.003 0.349,-10e-4 0.701,-0.03 1.047,-0.073 0.403,-0.05 0.616,-0.316 0.632,-0.705 0.032,-0.789 0.05,-1.578 0.05,-2.368 0.003,-12.114 0.018,-24.229 -0.009,-36.344 -0.007,-2.815 0.23,-5.607 0.519,-8.399 0.172,-1.668 0.673,-3.253 1.386,-4.777 1.075,-2.299 2.858,-3.737 5.269,-4.411 3.011,-0.843 6.088,-0.873 9.138,-0.383 3.317,0.532 6.408,1.777 9.348,3.413 0.863,0.481 1.328,1.069 1.236,2.085 -0.056,0.61 -0.009,1.228 -0.009,1.843 0,15.714 -0.003,31.428 0.003,47.142 10e-4,3.22 -0.308,2.978 2.969,2.981 6.145,0.005 12.29,0.003 18.435,-0.001 0.702,0 1.404,-0.013 2.105,-0.049 0.513,-0.027 0.778,-0.351 0.797,-0.845 0.031,-0.789 0.04,-1.579 0.04,-2.368 C 0.001,23 0,11.5 0,0" /></g><g
                 id="g50"
                 transform="translate(38.4133,351.5645)"><path
                   id="path168"
                   style="fill:#ffffff;fill-opacity:1;fill-rule:nonzero;stroke:none"
                   d="M 0,0 C 1.716,0.007 2.839,-0.074 3.932,-0.489 4.689,-0.777 5.348,-1.177 5.916,-1.737 7.282,-3.084 7.384,-4.44 6.189,-5.935 4.643,-7.871 2.568,-8.973 0.187,-9.453 c -2.058,-0.416 -4.14,-0.737 -6.226,-0.981 -1.767,-0.205 -3.481,0.215 -5.138,0.831 -0.756,0.281 -1.358,0.786 -1.887,1.389 -0.625,0.714 -0.682,1.172 -0.07,1.832 0.654,0.706 1.318,1.427 2.081,2.003 2.696,2.035 5.746,3.355 9.011,4.161 C -1.202,-0.01 -0.305,-0.03 0,0" /></g><g
                 id="g174"
                 transform="translate(407.6251,362.2044)"><path
                   id="path172"
                   style="fill:#ffffff;fill-opacity:1;fill-rule:nonzero;stroke:none"
                   d="M 0,0 C 1.355,0.017 2.648,-0.197 3.853,-0.778 6.711,-2.154 7.12,-4.754 4.801,-6.887 3.354,-8.218 1.643,-9.108 -0.292,-9.473 c -2.062,-0.389 -4.135,-0.756 -6.219,-0.996 -1.855,-0.214 -3.655,0.211 -5.379,0.908 -0.825,0.333 -1.534,0.84 -2.067,1.57 -0.285,0.39 -0.397,0.8 -0.051,1.188 0.524,0.588 1.044,1.19 1.636,1.704 C -8.82,-2.009 -4.684,-0.324 0,0" /></g><g
                 id="g178"
                 transform="translate(179.3071,463.4692)"><path
                   id="path176"
                   style="fill:#02a2e1;fill-opacity:1;fill-rule:nonzero;stroke:none"
                   d="m 0,0 c -4.292,0 -8.585,-0.001 -12.877,0.001 -0.525,0 -1.052,-0.004 -1.575,0.031 -0.636,0.044 -0.953,0.38 -0.923,1.012 0.12,2.58 0.823,4.996 2.083,7.25 1.576,2.821 4.046,4.593 6.985,5.686 4.229,1.573 8.59,1.678 12.917,0.501 3.689,-1.004 6.252,-3.375 7.644,-6.991 0.83,-2.154 1.144,-4.395 1.328,-6.667 C 15.613,0.444 15.335,0.131 14.973,0.082 14.369,0.002 13.752,0.004 13.14,0.003 8.76,-0.003 4.38,0 0,0" />
				   </g></g></g></g></g></g></g></svg>