<svg xmlns="http://www.w3.org/2000/svg" xmlns:xlink="http://www.w3.org/1999/xlink" version="1.1" viewBox="0 0 150.471 36.934"  xml:space="preserve">
<style>.style0{fill:	#fff;}</style>
<path d="m45.275 22.934h6.413c0.186 0 0.372 0.0042 0.55774-4e-3 0.25506-0.01138 0.32517-0.07435 0.32438-0.34131-0.0019-0.97552-0.0085-1.951-0.02434-2.9266-0.01508-0.91149-0.17886-1.8026-0.44106-2.672-0.50297-1.6685-1.3835-3.0848-2.8138-4.1251-0.87683-0.63765-1.8539-1.0552-2.8977-1.3208-1.5909-0.40455-3.2118-0.49318-4.8408-0.37148-1.2293 0.09155-2.4418 0.30004-3.6026 0.74295-3.3697 1.2859-5.4425 3.6883-6.1931 7.2168-0.33708 1.5835-0.35666 3.1824-0.11351 4.78 0.27887 1.833 0.97896 3.4832 2.2445 4.8601 1.1081 1.2057 2.4741 2.0235 4.0116 2.5606 1.6367 0.57177 3.33 0.80354 5.0575 0.87313 2.9149 0.11747 5.7423-0.28549 8.4735-1.3235 0.19526-0.0741 0.38762-0.1561 0.58129-0.23468 0.11774-0.0479 0.18706-0.13547 0.19526-0.26168 0.0087-0.1389 0.01111-0.2786 0.01111-0.41777 7.94e-4 -1.3012 5.29e-4 -2.6024 2.64e-4 -3.9037 0-0.11589-0.0021-0.23204-0.0058-0.34819-5e-3 -0.16404-0.08731-0.25241-0.25453-0.26538-0.30983-0.02461-0.57335 0.04313-0.84931 0.22146-1.62 1.0459-3.3756 1.7621-5.3009 1.9854-1.5129 0.17542-3.0165 0.08758-4.4794-0.37571-0.80883-0.25638-1.5306-0.66886-2.1159-1.2962-0.70802-0.75882-1.0803-1.6674-1.1859-2.6905-0.03096-0.29977 0.02355-0.34899 0.34766-0.35957 0.18574-0.0061 0.37174-0.0024 0.55748-0.0024h6.3434m-17.041-12.797h-7.93e-4c0-0.95276-0.0037-1.9055 0.0029-2.8583 0.0016-0.2114-0.07302-0.3511-0.26379-0.44185-1.3655-0.64876-2.7522-1.2427-4.2381-1.5616-2.0762-0.44529-4.169-0.63897-6.295-0.46011-1.2811 0.10768-2.5305 0.34475-3.7441 0.75671-2.7675 0.93901-4.9461 2.621-6.4244 5.1655-1.1179 1.9238-1.6952 4.0148-1.8516 6.2214-0.10186 1.438-0.08308 2.8763 0.11271 4.3109 0.22199 1.6264 0.67575 3.1784 1.434 4.6336 0.65008 1.2472 1.4936 2.3466 2.563 3.2721 1.8677 1.6163 4.0661 2.4842 6.4746 2.8609 1.401 0.21934 2.8096 0.2802 4.2328 0.19394 1.1197-0.068 2.213-0.23204 3.2999-0.48895 1.5229-0.35983 2.9541-0.96255 4.3725-1.6057 0.25347-0.11483 0.34925-0.28046 0.32597-0.54187-0.0064-0.06906-7.94e-4 -0.13917-7.94e-4 -0.20902 0-1.6965 2.64e-4 -3.3928-2.65e-4 -5.0893-2.64e-4 -0.13944-0.0011-0.27914-0.01111-0.41778-0.01005-0.13573-0.0971-0.19341-0.22754-0.21114-0.34449-0.0471-0.62177 0.05662-0.88874 0.28945-0.8599 0.74956-1.7833 1.4145-2.7858 1.964-1.9897 1.0906-4.0857 1.4743-6.3188 0.95038-1.6727-0.39264-3.0419-1.2457-4.0211-2.6749-0.55616-0.81148-0.94959-1.7005-1.1875-2.6575-0.19712-0.79296-0.29236-1.5981-0.31168-2.4127-0.03281-1.3756 0.0299-2.7413 0.45217-4.0661 0.44609-1.3999 1.1404-2.6458 2.3088-3.5748 1.8523-1.4724 3.9711-1.833 6.2447-1.4012 1.293 0.24553 2.4561 0.8337 3.56 1.5399 0.70617 0.45164 1.3766 0.95303 2.0132 1.4949 0.27622 0.23522 0.5625 0.29475 0.89747 0.26723 0.15981-0.01323 0.26326-0.07885 0.26882-0.2503 5e-3 -0.16245 0.0071-0.32517 0.0071-0.48789 7.94e-4 -0.83661 2.65e-4 -1.6732 2.65e-4 -2.5098m-27.287 26.792c-1.0732 0-0.94165 0.12779-0.94192-0.90858-0.0027-11.712-0.0019-23.423-0.0016-35.135 0-0.20902-0.0011-0.41831 0.0061-0.62706 0.0056-0.16828 0.10821-0.24765 0.26935-0.25188 0.186-5e-3 0.37174-0.0048 0.55774-0.0048 25.514-2.64e-4 51.029-2.64e-4 76.543 5.29e-4 0.9054 0 0.82418-0.08969 0.8255 0.81783 0.0021 1.2316 0.0013 2.463-2.65e-4 3.6946-2.64e-4 0.18547-0.0063 0.37121-0.01984 0.55589-0.0074 0.1053-0.08149 0.16536-0.18468 0.16933-0.23204 0.0087-0.46434 0.01349-0.69639 0.01349-7.1803 5.29e-4 -14.361 5.29e-4 -21.541 0.0011-0.23204 0-0.46435 0.0048-0.69638 0.01455-0.10319 0.0045-0.16669 0.06932-0.17992 0.17383-0.0087 0.06879-0.01614 0.13864-0.01614 0.20796-0.0011 1.4407-0.0011 2.8813-7.94e-4 4.322 0 0.06959-0.0013 0.13996 0.0079 0.20876 0.0172 0.12753 0.08282 0.21511 0.22146 0.21987 0.18574 0.0061 0.37148 0.0098 0.55722 0.0098 2.2773 7.94e-4 4.5545 0.0013 6.8318 0 0.67072-5.29e-4 0.63526-0.0093 0.63526 0.65722-2.65e-4 6.5529-0.0024 13.106 0.0021 19.659 7.94e-4 1.1187-0.15875 0.98584 1.007 0.99034 1.6497 6e-3 3.2996 0.0021 4.9493 0.0011 0.16272 0 0.3257 4e-3 0.4879-3e-3 0.31856-0.014 0.372-0.0627 0.38285-0.35878 0.0077-0.20902 0.0026-0.4183 0.0026-0.62733 2.64e-4 -6.4833-0.0013-12.966 0.0019-19.45 2.64e-4 -0.97499-0.11827-0.86519 0.83714-0.8673 2.2074-0.0045 4.4148-0.0016 6.6225-0.0011 0.18574 0 0.37174 0.0019 0.55721 0.0093 0.13203 5e-3 0.21458 0.0762 0.22093 0.21246 0.0079 0.16219 0.01032 0.32491 0.01032 0.48736 2.64e-4 8.3653 5.29e-4 16.731 0 25.096 0 0.76993 0.05371 0.71278-0.7157 0.71278-12.803 5.29e-4 -25.607 2.64e-4 -38.411 2.64e-4" class="style0"/>
<path d="m118.31 24.444h-2e-3c0-0.60378 4e-3 -1.2078-2e-3 -1.8116-2e-3 -0.22754-0.0683-0.28602-0.29686-0.26326-0.85408 0.0844-1.7084 0.16986-2.5612 0.26776-0.62257 0.07117-1.2414 0.16854-1.8492 0.32782-0.40614 0.10636-0.80063 0.23971-1.1589 0.46302-0.69956 0.43577-1.1083 1.0425-1.0996 1.891 2e-3 0.18547 7e-3 0.37121 7e-3 0.55695-2.7e-4 0.66622 0.31829 1.1472 0.8673 1.4936 0.27649 0.17462 0.57176 0.30004 0.89403 0.37386 0.57256 0.13097 1.153 0.14155 1.7322 0.11589 1.1975-0.05292 2.2524-0.50138 3.2068-1.2107 0.1831-0.13626 0.26829-0.30162 0.26485-0.53208-8e-3 -0.55721-3e-3 -1.1147-3e-3 -1.6722m6.3685-0.16192v6.5516c0 0.13917 3e-3 0.27887-1e-3 0.41804-0.0119 0.44344-0.0283 0.46672-0.48048 0.46752-1.8121 3e-3 -3.6245 4e-3 -5.4367-2.64e-4 -0.44424-7.94e-4 -0.45456-0.01749-0.46355-0.48392-8e-3 -0.41804-3e-3 -0.83635-0.0145-1.2541-5e-3 -0.16378-0.15346-0.22648-0.29475-0.12594-0.28363 0.20214-0.5633 0.41011-0.84138 0.61992-1.4549 1.0986-3.0969 1.6552-4.9149 1.7219-0.86121 0.0315-1.7227 0.0556-2.563-0.16457-2.2696-0.59425-3.9172-1.9106-4.6022-4.2095-0.47096-1.5809-0.38708-3.1745 0.28813-4.6993 0.53975-1.2195 1.4917-2.0569 2.648-2.6712 1.2218-0.64929 2.5403-1.0136 3.8976-1.2396 1.7648-0.29342 3.5433-0.46725 5.3287-0.57414 0.18521-0.01111 0.37068-0.02593 0.55536-0.04418 0.59187-0.05874 0.59505-0.08043 0.48816-0.69665-0.14447-0.83079-0.6313-1.3761-1.3774-1.7137-0.49001-0.22146-1.0131-0.34078-1.5401-0.42386-1.8137-0.28601-3.6102-0.22754-5.3732 0.32676-0.79719 0.25056-1.5896 0.5162-2.3839 0.77576-0.11006 0.03625-0.2159 0.08837-0.32808 0.11483-0.60828 0.14446-0.73237 0.04604-0.73369-0.59081-3e-3 -1.2777-3e-3 -2.5556 1e-3 -3.8333 1e-3 -0.37677 7e-3 -0.39423 0.36645-0.46831 0.88635-0.18256 1.7727-0.36936 2.6654-0.51514 1.8135-0.29607 3.6407-0.45932 5.479-0.40693 1.4856 0.04233 2.9673 0.15266 4.4186 0.51012 0.72363 0.17833 1.4229 0.42016 2.0892 0.75856 1.5735 0.79878 2.5204 2.0778 2.921 3.7812 0.1606 0.68289 0.20002 1.3777 0.20108 2.0751 3e-3 1.9981 1e-3 3.996 1e-3 5.9941" class="style0"/>
<path d="m91.161 19.169c1.1351 0 2.2704 2.65e-4 3.4055-2.64e-4 0.16219-2.64e-4 0.32465 0.0019 0.48604-9e-3 0.1696-0.01164 0.24659-0.10319 0.22807-0.27755-0.05847-0.55245-0.13494-1.0988-0.3265-1.6282-0.35878-0.99139-1.044-1.6383-2.0455-1.9127-1.1197-0.30665-2.249-0.28178-3.3502 0.1106-0.80672 0.28734-1.4817 0.75882-1.9132 1.5253-0.33523 0.59505-0.51938 1.2351-0.55166 1.9169-0.0079 0.16775 0.07461 0.25453 0.24527 0.26617 0.13838 0.0095 0.27782 0.0082 0.41672 0.0085 1.1351 5.29e-4 2.2704 2.64e-4 3.4055 2.64e-4m-4.0603 3.8375c0.05292 1.1184 0.40428 2.0952 1.1496 2.921 0.60828 0.67363 1.3671 1.1094 2.2265 1.3713 1.42 0.43286 2.876 0.52573 4.3431 0.3646 1.9524-0.21431 3.724-0.94377 5.3729-1.9886 0.19844-0.12568 0.38471-0.24474 0.635-0.24792 0.40455-0.0048 0.47361 0.04524 0.4744 0.47255 3e-3 1.4171-0.01 2.8345 9e-3 4.2513 5e-3 0.34395-0.13573 0.49159-0.43551 0.60378-2.1659 0.80936-4.3796 1.3679-6.7069 1.4438-1.4198 0.0463-2.8326 0.0291-4.2394-0.16457-1.7391-0.23972-3.4057-0.70724-4.925-1.6224-2.2556-1.3589-3.6335-3.3372-4.1632-5.9081-0.41937-2.0352-0.3892-4.0709 0.1651-6.0711 0.91122-3.2885 3.0411-5.4613 6.2418-6.5971 1.2126-0.43021 2.4744-0.62045 3.755-0.68527 1.515-0.07673 3.0181 0.01455 4.4924 0.39555 0.9959 0.25718 1.9354 0.64796 2.7824 1.2438 1.3819 0.97208 2.272 2.299 2.8141 3.8796 0.38814 1.1314 0.54134 2.3032 0.576 3.4909 0.0235 0.81254 8e-3 1.6261 1e-3 2.4392-3e-3 0.27173-0.0632 0.32332-0.32967 0.33417-0.18547 0.0074-0.37147 0.0026-0.55747 0.0026-4.2979 0-8.5958-5.29e-4 -12.894 0.0016-0.2503 0-0.50694-0.03598-0.7874 0.06932" class="style0"/>
<path d="m150.47 21.77v8.989c0 0.13943 2e-3 0.27887-5.3e-4 0.41804-9e-3 0.53155-0.0116 0.54081-0.54822 0.54187-1.7886 3e-3 -3.5769 0.0011-5.3655 0.0011-0.0929 0-0.18573-0.0011-0.27834-7e-3 -0.16854-0.01109-0.24421-0.11272-0.24553-0.27305-3e-3 -0.39476 4e-3 -0.78978-8e-3 -1.1843-5e-3 -0.17859 0.0913-0.43074-0.0643-0.51991-0.21167-0.12118-0.36089 0.13494-0.52123 0.24606-0.66859 0.46222-1.3457 0.90937-2.0585 1.3028-0.94906 0.52387-1.9592 0.81544-3.0385 0.93001-1.1472 0.12197-2.2765 0.0595-3.38-0.24792-2.269-0.63156-3.615-2.1659-4.1844-4.4164-0.19421-0.76676-0.29872-1.5483-0.29845-2.3424 1e-3 -4.2738 5.3e-4 -8.5476 2.6e-4 -12.821 0-0.04657-5.3e-4 -0.09313 5.3e-4 -0.13944 0.0111-0.45614 0.0114-0.46567 0.47387-0.46672 1.8352-4e-3 3.67-0.0019 5.5049-7.94e-4 0.0923 2.64e-4 0.18547 0.0079 0.27702 0.01931 0.10663 0.01323 0.16298 0.08361 0.16722 0.18653 8e-3 0.20876 0.0132 0.41751 0.0132 0.62653 7.9e-4 3.2052 5e-3 6.4106-2e-3 9.616-2e-3 0.7448 0.0609 1.4835 0.13732 2.2222 0.0455 0.44132 0.17807 0.86069 0.36672 1.2639 0.28442 0.60828 0.75617 0.98874 1.3941 1.1671 0.79667 0.22304 1.6108 0.23098 2.4178 0.10134 0.87762-0.14076 1.6954-0.47016 2.4733-0.90302 0.22834-0.12726 0.35137-0.28284 0.32703-0.55166-0.0148-0.1614-2e-3 -0.32491-2e-3 -0.48763 0-4.1577-7.9e-4 -8.3153 7.9e-4 -12.473 2.6e-4 -0.85196-0.0815-0.78793 0.78556-0.78872 1.6258-0.0013 3.2517-7.94e-4 4.8776 2.64e-4 0.18574 0 0.37148 0.0034 0.55695 0.01297 0.13574 0.0071 0.20586 0.09287 0.21087 0.22357 8e-3 0.20876 0.0106 0.41778 0.0106 0.62653 8e-4 3.043 5.3e-4 6.0857 5.3e-4 9.1284" class="style0"/>
<path d="m42.076 19.171c-1.1356 0-2.2714 2.65e-4 -3.407-2.64e-4 -0.13891 0-0.27834 0.0011-0.41672-0.0082-0.16828-0.01164-0.25215-0.10054-0.24421-0.26776 0.03175-0.68262 0.21775-1.3219 0.55113-1.9182 0.41698-0.74639 1.0705-1.2152 1.8481-1.5044 1.1189-0.41619 2.2728-0.44397 3.4176-0.13256 0.97605 0.26564 1.6542 0.89297 2.0225 1.8497 0.2196 0.56991 0.30268 1.1628 0.35137 1.764 0.0082 0.10028-0.06535 0.18309-0.16113 0.19606-0.15981 0.02117-0.32306 0.02064-0.48498 0.0209-1.1589 0.0016-2.3178 7.94e-4 -3.4766 7.94e-4" class="style0"/>
</svg>

