<?xml version="1.0" encoding="utf-8"?>
<!-- Generator: Adobe Illustrator 16.0.0, SVG Export Plug-In . SVG Version: 6.00 Build 0)  -->
<!DOCTYPE svg PUBLIC "-//W3C//DTD SVG 1.1//EN" "http://www.w3.org/Graphics/SVG/1.1/DTD/svg11.dtd">
<svg version="1.1" id="Layer_1" xmlns="http://www.w3.org/2000/svg" xmlns:xlink="http://www.w3.org/1999/xlink" x="0px" y="0px"
	 width="500px" height="500px" viewBox="0 0 500 500" enable-background="new 0 0 500 500" xml:space="preserve">
<g>
	<path fill="#0078d7" d="M280.564,25.573c0.129,0.017,0.26,0.032,0.391,0.05c0.48,0.064,0.969,0.101,1.469,0.088
		c-0.121,0.016-0.254,0.039-0.379,0.057c39.742,5.598,78.486,21.774,111.764,48.984c82.773,67.683,105.359,182.073,60.891,274.432
		c-1.01,3.855,0.484,8.082,4.002,10.369c3.553,2.318,8.074,1.949,11.193-0.596c49.27-99.988,25.158-224.57-64.744-298.081
		c-36.973-30.232-80.201-47.827-124.424-53.343c-4.361,0.854-7.824,4.761-7.697,9.295C273.152,21.24,276.379,24.831,280.564,25.573z
		"/>
	<path fill="#0078d7" d="M423.631,396.555c1.912-5.01,7.521-7.518,12.527-5.607c5.01,1.914,7.518,7.52,5.607,12.529
		c-1.914,5.01-7.523,7.52-12.529,5.605C424.229,407.172,421.719,401.562,423.631,396.555z"/>
	<path fill="#0078d7" d="M232.875,10.636c1.908-5.009,7.519-7.521,12.525-5.609c5.01,1.913,7.519,7.521,5.605,12.529
		c-1.91,5.01-7.519,7.52-12.527,5.606C233.47,21.251,230.962,15.644,232.875,10.636z"/>
	<path fill="#0078d7" d="M41.282,359.553c3.589-2.334,5.075-6.686,3.943-10.6C8.389,271.936,16.602,177.162,74.123,106.814
		c34.953-42.745,82.364-69.429,132.763-79.131c4.035-2.062,6.036-6.825,4.5-11.223c-1.342-3.843-4.973-6.226-8.833-6.167
		C148.528,20.908,97.744,49.616,60.25,95.47c-62.639,76.604-71.089,180.057-30.063,263.559
		C33.301,361.504,37.765,361.848,41.282,359.553z"/>
	<path fill="#0078d7" d="M401.543,431.711c-2.852-3.33-7.51-4.172-11.277-2.354c-80.633,63.303-196.873,65.605-280.433,0.059
		c-3.789-1.895-8.511-1.066-11.392,2.295c-2.616,3.053-2.936,7.289-1.136,10.631c90.709,72.273,217.82,69.75,305.337,0.064
		C404.482,439.055,404.176,434.783,401.543,431.711z"/>
	<circle fill="#0078d7" cx="67.286" cy="400.016" r="9.705"/>
	<path fill="#0078d7" d="M344.619,168.217c-20.189,0-36.617-16.427-36.617-36.615c0-20.192,16.428-36.619,36.617-36.619
		s36.615,16.427,36.615,36.619C381.234,151.791,364.809,168.217,344.619,168.217z M344.619,102.451
		c-16.072,0-29.148,13.077-29.148,29.151c0,16.071,13.076,29.148,29.148,29.148s29.148-13.077,29.148-29.148
		C373.768,115.528,360.691,102.451,344.619,102.451z"/>
	<path fill="#0078d7" d="M154.601,168.217c-20.189,0-36.614-16.427-36.614-36.615c0-20.192,16.425-36.619,36.614-36.619
		c20.192,0,36.618,16.427,36.618,36.619C191.219,151.791,174.793,168.217,154.601,168.217z M154.601,102.451
		c-16.072,0-29.146,13.077-29.146,29.151c0,16.071,13.074,29.148,29.146,29.148c16.073,0,29.151-13.077,29.151-29.148
		C183.752,115.528,170.674,102.451,154.601,102.451z"/>
	<g>
		<path fill="#0078d7" d="M318.965,192.338c-0.227-15.269-10.191-24.751-26.004-24.751l-26.742,0.003
			c-1.777,0.787-3.023,2.562-3.023,4.629c0,2.42,1.695,4.436,3.963,4.942l25.803-0.001c10.754,0,16.283,5.152,16.432,15.318
			c0.393,26.501,0.4,54.58,0.025,83.46c-0.148,11.402-2.395,14.584-18.975,16.932c-2.363,0.334-4.115,2.355-4.115,4.738V408.57
			c-15.457,0-30.914-0.006-46.371-0.012l-37.826-0.008V298.055c0-2.236-1.549-4.176-3.731-4.668
			c-15.785-3.559-16.723-4.801-16.729-22.156l-0.008-22.381c-0.01-17.579-0.019-35.157,0.023-52.736
			c0.037-14.348,4.698-18.952,19.211-18.952l22.36,0.004c2.225-0.536,3.884-2.527,3.884-4.915c0-2.09-1.266-3.881-3.069-4.658
			l-23.198-0.004c-19.839,0-28.709,8.79-28.759,28.502c-0.042,17.589-0.034,35.177-0.023,52.766l0.007,22.377
			c0.006,20.246,3.563,26.197,20.462,30.59v108.689c-0.039,0.244-0.06,0.498-0.06,0.754v2.068c0,2.643,2.143,4.787,4.785,4.787
			l42.668,0.012c17.053,0.002,34.106,0.01,51.159,0.01c2.643,0,4.785-2.143,4.785-4.785V301.691
			c15.137-2.723,22.863-8.146,23.092-25.629C319.365,247.095,319.357,218.927,318.965,192.338z"/>
	</g>
	<path fill="#0078d7" d="M240.427,173.866c-0.935-2.816,0.59-5.856,3.405-6.792c2.818-0.937,5.854,0.588,6.794,3.404
		c0.934,2.817-0.589,5.858-3.407,6.79C244.408,178.205,241.365,176.684,240.427,173.866z"/>
	<path fill="#0078d7" d="M388.922,190.346c1.867,0.036,5.758,0.112,5.809,8.888l0.08,11.855c0.084,12.2,0.168,24.6,0.146,37.046
		c0.844,1.637,2.529,2.769,4.496,2.769c1.945,0,3.617-1.108,4.467-2.716c0.02-12.491-0.064-24.926-0.15-37.159l-0.078-11.849
		c-0.094-15.806-10.24-17.709-14.684-17.793h-46.537c-2.475,0-4.48,2.005-4.48,4.48c0,2.475,2.006,4.48,4.48,4.48L388.922,190.346z"
		/>
	<g>
		<path fill="#0078d7" d="M399.059,276.328c-1.969,0-3.658,1.156-4.461,2.818c-0.072,3.33-0.129,6.664-0.232,9.98
			c-0.08,2.562-4.619,7.904-7.359,8.662c-10.443,2.889-12.561,8.758-12.527,16.686c0.078,15.807,0.037,24.938,0,33.768
			c-0.047,10.934-0.088,20.379,0.105,40.004c0.039,4.006-0.643,5.52-1.219,6.084c-0.561,0.545-2.016,1.162-5.906,1.033
			l-22.135-0.094c-0.006,0-0.014,0-0.02,0c-2.465,0-4.469,1.992-4.48,4.461c-0.01,2.473,1.986,4.488,4.463,4.498l21.998,0.094
			c0.424,0.014,0.867,0.023,1.328,0.023c3.463,0,7.873-0.543,11.008-3.602c3.553-3.467,3.963-8.547,3.924-12.586
			c-0.193-19.562-0.152-28.977-0.105-39.879c0.037-8.848,0.076-18,0-33.846c-0.021-5.15,0.525-6.506,5.955-8.008
			c6.566-1.816,13.727-10.566,13.928-17.02c0.105-3.387,0.162-6.789,0.236-10.186C402.77,277.518,401.057,276.328,399.059,276.328z"
			/>
	</g>
	<path fill="#0078d7" d="M397.646,258.635c2.816-0.934,5.857,0.59,6.793,3.406s-0.588,5.855-3.406,6.793
		c-2.816,0.934-5.857-0.59-6.789-3.406C393.307,262.613,394.832,259.574,397.646,258.635z"/>
	<path fill="#0078d7" d="M115.782,314.43c-0.003,0.561-0.004,1.094-0.007,1.641c0.869,1.543,2.505,2.598,4.401,2.598
		c2.016,0,3.742-1.188,4.561-2.891c0.001-0.436,0.004-0.859,0.006-1.305c0.035-7.926-2.083-13.795-12.526-16.684
		c-2.74-0.758-7.281-6.102-7.359-8.662c-0.81-25.939-0.624-52.392-0.445-77.973l0.08-11.923c0.05-8.772,3.939-8.849,5.724-8.883
		h46.535c2.476,0,4.48-2.006,4.48-4.48c0-2.476-2.005-4.48-4.48-4.48l-46.621,0.001c-4.359,0.083-14.509,1.986-14.598,17.79
		l-0.08,11.913c-0.18,25.665-0.366,52.204,0.447,78.315c0.201,6.453,7.36,15.203,13.928,17.02
		C115.258,307.928,115.805,309.283,115.782,314.43z"/>
	<g>
		<path fill="#0078d7" d="M160.358,395.27c-0.005,0-0.011,0-0.015,0l-28.716,0.098c-3.766,0.133-5.211-0.492-5.77-1.037
			c-0.577-0.564-1.259-2.078-1.219-6.084c0.19-19.633,0.15-29.08,0.104-40.016c-0.002-0.564-0.005-1.131-0.008-1.699
			c-0.866-1.453-2.438-2.439-4.254-2.439c-2.204,0-4.05,1.443-4.702,3.428c0.002,0.25,0.002,0.502,0.003,0.75
			c0.047,10.902,0.088,20.318-0.104,39.889c-0.039,4.039,0.37,9.119,3.923,12.586c3.141,3.064,7.56,3.604,10.929,3.604
			c0.441,0,0.866-0.01,1.268-0.023l28.575-0.096c2.475-0.008,4.475-2.02,4.466-4.494C164.83,397.266,162.826,395.27,160.358,395.27z
			"/>
	</g>
	<path fill="#0078d7" d="M118.371,326.4c2.817-0.938,5.858,0.588,6.793,3.404c0.936,2.816-0.589,5.855-3.405,6.793
		c-2.816,0.934-5.858-0.59-6.789-3.406C114.031,330.379,115.554,327.336,118.371,326.4z"/>
	<path fill="#0078d7" d="M321.131,401.598c-0.936-2.816,0.588-5.857,3.404-6.791c2.814-0.936,5.855,0.586,6.793,3.404
		c0.934,2.816-0.592,5.857-3.406,6.789C325.109,405.938,322.066,404.414,321.131,401.598z"/>
	<path fill="#0078d7" d="M171.971,401.598c-0.934-2.816,0.589-5.857,3.407-6.791c2.814-0.936,5.854,0.586,6.792,3.404
		c0.935,2.816-0.591,5.857-3.406,6.789C175.952,405.938,172.908,404.414,171.971,401.598z"/>
	<path fill="#0078d7" d="M245.678,155.456c-20.192,0-36.62-16.426-36.62-36.616c0-20.191,16.428-36.617,36.62-36.617
		c20.189,0,36.615,16.426,36.615,36.617C282.293,139.03,265.867,155.456,245.678,155.456z M245.678,89.689
		c-16.075,0-29.153,13.076-29.153,29.15c0,16.073,13.078,29.149,29.153,29.149c16.072,0,29.148-13.076,29.148-29.149
		C274.826,102.765,261.75,89.689,245.678,89.689z"/>
</g>
</svg>
