<?xml version="1.0" encoding="utf-8"?>
<!-- Generator: Adobe Illustrator 16.0.0, SVG Export Plug-In . SVG Version: 6.00 Build 0)  -->
<!DOCTYPE svg PUBLIC "-//W3C//DTD SVG 1.1//EN" "http://www.w3.org/Graphics/SVG/1.1/DTD/svg11.dtd">
<svg version="1.1" id="Layer_1" xmlns="http://www.w3.org/2000/svg" xmlns:xlink="http://www.w3.org/1999/xlink" x="0px" y="0px"
	 width="500px" height="500px" viewBox="0 0 500 500" enable-background="new 0 0 500 500" xml:space="preserve">
<g>
	<path fill="#fca300" d="M367.111,55.368c47.701,28.702,81.054,72.279,97.736,121.256c2.597,3.716,7.59,5.043,11.734,2.915
		c3.647-1.87,5.511-5.837,4.884-9.674c-18.108-52.445-53.969-99.072-105.116-129.849C293.924-9.579,193.73-4.836,117.696,43.776
		c-2.406,2.655-3.132,6.594-1.533,10.052c2.053,4.441,7.197,6.46,11.697,4.7C198.273,13.767,290.891,9.506,367.111,55.368z"/>
	<circle fill="#fca300" cx="127.197" cy="451.479" r="9.703"/>
	<path fill="#fca300" d="M485.309,200.019c5.222,1.201,8.479,6.412,7.276,11.633c-1.203,5.224-6.413,8.479-11.635,7.273
		c-5.224-1.201-8.481-6.411-7.275-11.633C474.877,202.07,480.087,198.814,485.309,200.019z"/>
	<path fill="#fca300" d="M86.469,72.083c5.223,1.204,8.48,6.413,7.275,11.635c-1.203,5.225-6.413,8.479-11.636,7.274
		c-5.223-1.204-8.48-6.414-7.274-11.633C76.037,74.136,81.247,70.878,86.469,72.083z"/>
	<path fill="#fca300" d="M235.56,318.912l-12.37-31.125c-0.54-1.363-1.859-2.258-3.324-2.258h-35.574
		c-3.089,0-5.604,2.512-5.604,5.605v3.16v1.531v9.477c0,1.98,1.603,3.582,3.579,3.582s3.576-1.602,3.576-3.582v-9.477v-1.531v-1.609
		h31.596l11.218,28.232v10.254c0,1.971,1.602,3.574,3.577,3.574c1.978,0,3.579-1.604,3.579-3.574v-10.938
		C235.812,319.781,235.726,319.332,235.56,318.912z"/>
	<path fill="#fca300" d="M340.99,138.758c2.082-0.689,4.325,0.437,5.015,2.517c0.69,2.077-0.432,4.321-2.514,5.013
		c-2.078,0.69-4.322-0.436-5.013-2.513C337.788,141.696,338.913,139.454,340.99,138.758z"/>
	<path fill="#fca300" d="M338.298,65.27c-11.456,0-20.777,9.318-20.777,20.775c0,2.324,0.401,4.553,1.106,6.64v108.366
		l-34.219,12.642c-0.136,0.05-0.27,0.106-0.394,0.175l-45.593,23.386c-0.647,0.329-1.177,0.849-1.521,1.488l-18.229,33.999h-44.962
		c-4.01,0-7.273,3.268-7.273,7.285v36.232h-26.532l-6.688-4.871c-0.611-0.445-1.349-0.686-2.105-0.686h-38.81
		c-4.749,0-8.61,3.867-8.61,8.623v37.988c0,1.979,1.601,3.58,3.577,3.58h59.21v4.992h-23.825c-11.656,0-21.138,9.477-21.138,21.121
		c0,11.656,9.481,21.139,21.138,21.139h113.702c11.657,0,21.135-9.48,21.135-21.131c0-11.648-9.478-21.129-21.135-21.129H211.58
		v-4.779l30.656,0.145c4.014,0,7.279-3.264,7.279-7.279v-35.09c0-0.824-0.144-1.646-0.464-2.547l-6.055-15.486l15.094-36.691
		l34.6-24.802l25.937-11.757v45.418c0.079,2.01,1.754,3.592,3.772,3.537c1.59-0.041,2.906-1.088,3.384-2.514v-51.992v-18.502
		V102.594c3.485,2.644,7.813,4.231,12.515,4.231c0.131,0,0.256-0.018,0.388-0.02c0.01,0,0.021,0.002,0.03,0.002v22.864
		c0.199,1.873,1.787,3.314,3.703,3.262c1.706-0.044,3.099-1.26,3.452-2.854v-24.702c7.723-3.035,13.21-10.546,13.21-19.332
		C359.081,74.588,349.759,65.27,338.298,65.27z M90.849,319.324c0-0.811,0.651-1.467,1.454-1.467h37.645l6.687,4.871
		c0.612,0.443,1.349,0.686,2.105,0.686h39.94c0.797,0,1.466,0.668,1.466,1.461v28.861H90.849V319.324z M236.356,373.041
		c7.711,0,13.98,6.268,13.98,13.973s-6.27,13.977-13.98,13.977H122.654c-7.711,0-13.981-6.273-13.981-13.984
		c0-7.699,6.271-13.965,13.981-13.965H236.356z M204.423,365.52h-50.786v-4.527h33.439l17.347,0.08V365.52z M242.359,353.971
		c0,0.064-0.059,0.123-0.105,0.123l-33.438-0.158c-0.263-0.062-0.532-0.102-0.813-0.102h-20.701v-28.959
		c0-4.752-3.868-8.617-8.621-8.617h-5.085v-36.232c0-0.074,0.05-0.133,0.116-0.133h53.328c0.052,0,0.105,0.045,0.155,0.182
		l15.165,38.807V353.971z M318.627,219.741l-29.213,13.242c-0.214,0.098-0.416,0.214-0.606,0.351l-35.722,25.608
		c-0.543,0.393-0.969,0.928-1.223,1.545l-12.636,30.719l-5.338-13.654c-1.044-2.877-3.797-4.811-6.851-4.811h-0.248l15.889-29.632
		l44.408-22.778l31.539-11.648V219.741z M341.75,99.211c-0.453,0.059-0.915,0.163-1.4,0.287c-0.434,0.067-0.872,0.111-1.317,0.134
		c-6.521-0.209-10.827-3.014-13.47-8.793c-0.562-1.494-0.888-3.105-0.888-4.794c0-7.512,6.112-13.621,13.623-13.621
		c7.516,0,13.628,6.109,13.628,13.621C351.926,92.365,347.595,97.677,341.75,99.211z"/>
	<path fill="#fca300" d="M415.973,325.631c-1.347-1.873-3.959-2.305-5.825-0.955l-4.622,3.32
		c-5.309-5.627-12.812-9.162-21.141-9.162c-14.754,0-26.954,11.051-28.823,25.305h-9.69V154.981
		c-0.272-1.856-1.912-3.236-3.82-3.128c-1.646,0.095-2.958,1.266-3.335,2.785v189.325l-2.975-10.137
		c-0.651-2.209-2.97-3.475-5.183-2.826c-2.213,0.652-3.478,2.971-2.829,5.182l3.912,13.307c0.519,1.777,2.153,2.998,4.004,2.998
		h3.07v27.895h-12.933v-82.779c-0.477-1.549-1.953-2.639-3.646-2.541c-1.99,0.115-3.509,1.818-3.396,3.809
		c-0.046-0.275-0.079-0.521-0.115-0.775v85.867c0,1.975,1.603,3.578,3.577,3.578h4.335v16.131c0,1.977,1.601,3.578,3.579,3.578
		h4.261c1.977,0,3.576-1.602,3.576-3.578v-16.131h4.339c1.979,0,3.577-1.604,3.577-3.578v-31.475h9.806
		c2.197,13.885,14.216,24.545,28.708,24.545c16.047,0,29.101-13.055,29.101-29.098c0-4.719-1.152-9.166-3.157-13.113l4.688-3.363
		C416.887,330.113,417.315,327.502,415.973,325.631z M384.385,325.99c5.937,0,11.318,2.377,15.272,6.219l-16.616,11.93h-20.247
		C364.599,333.844,373.581,325.99,384.385,325.99z M406.329,347.934c0,12.098-9.843,21.943-21.944,21.943
		c-10.538,0-19.358-7.471-21.462-17.391h21.462c0.873,0,1.724-0.273,2.434-0.783l17.616-12.648
		C405.644,341.771,406.329,344.771,406.329,347.934z"/>
	<path fill="#fca300" d="M321.094,282.182c2.049-0.68,4.257,0.43,4.934,2.475c0.68,2.043-0.425,4.25-2.472,4.932
		c-2.046,0.678-4.252-0.43-4.932-2.475C317.946,285.07,319.052,282.863,321.094,282.182z"/>
	<circle fill="#fca300" cx="127.197" cy="451.479" r="9.703"/>
	<path fill="#fca300" d="M484.701,240.635c-4.979,0.834-8.338,5.546-7.504,10.527c-0.039-0.143-0.089-0.301-0.131-0.449
		c-0.056,39.734-10.504,79.937-32.438,116.392c-55.116,91.6-165.068,130.332-262.827,99.561c-3.959-0.447-7.93,1.633-9.69,5.445
		c-1.782,3.848-0.769,8.268,2.194,10.99c105.994,34.428,225.815-7.271,285.678-106.76c24.354-40.477,35.604-85.24,34.994-129.323
		C493.543,242.795,489.187,239.883,484.701,240.635z"/>
	<path fill="#fca300" d="M485.309,200.019c5.222,1.201,8.479,6.412,7.276,11.633c-1.203,5.224-6.413,8.479-11.635,7.273
		c-5.224-1.201-8.481-6.411-7.275-11.633C474.877,202.07,480.087,198.814,485.309,200.019z"/>
	<path fill="#fca300" d="M55.374,132.887c2.768-4.598,5.682-9.052,8.717-13.383c1.125-3.735-0.221-7.923-3.611-10.245
		c-3.921-2.688-9.184-1.929-12.202,1.609c-2.859,4.151-5.624,8.402-8.258,12.78C-20.479,224.196-0.133,351.193,82.097,428.508
		c3.578,1.342,7.764,0.428,10.426-2.621c2.887-3.297,3.054-8.027,0.713-11.494C17.965,342.637-0.425,225.62,55.374,132.887z"/>
	<path fill="#fca300" d="M86.469,72.083c5.223,1.204,8.48,6.413,7.275,11.635c-1.203,5.225-6.413,8.479-11.636,7.274
		c-5.223-1.204-8.48-6.414-7.274-11.633C76.037,74.136,81.247,70.878,86.469,72.083z"/>
</g>
</svg>
