<?xml version="1.0" encoding="utf-8"?>
<!-- Generator: Adobe Illustrator 16.0.0, SVG Export Plug-In . SVG Version: 6.00 Build 0)  -->
<!DOCTYPE svg PUBLIC "-//W3C//DTD SVG 1.1//EN" "http://www.w3.org/Graphics/SVG/1.1/DTD/svg11.dtd">
<svg version="1.1" id="Layer_1" xmlns="http://www.w3.org/2000/svg" xmlns:xlink="http://www.w3.org/1999/xlink" x="0px" y="0px"
	 width="500px" height="500px" viewBox="0 0 500 500" enable-background="new 0 0 500 500" xml:space="preserve">
<g>
	<circle fill="#0078d7" cx="69.94" cy="358.744" r="8.453"/>
	<circle fill="#0078d7" cx="251.189" cy="250.25" r="7.676"/>
	<circle fill="#0078d7" cx="390.958" cy="88.087" r="8.453"/>
	<g>
		<path fill="#0078d7" d="M398.385,392.918c-19.731,20.34-42.904,36.102-68.864,46.852c-10.846,4.486-21.967,8.017-33.306,10.582
			c12.178-11.087,23.542-26.822,33.416-47.211c0.483-0.999,0.943-2.024,1.414-3.037l-12.065-8.842
			c-0.836,1.853-1.688,3.681-2.562,5.48c-16.184,33.432-37.13,54.066-58.418,57.985V345.176c0.036,0,0.073,0.001,0.11,0.001
			c-0.195-2.472-0.301-5.292-0.301-8.521c0-2.3,0.134-4.339,0.383-6.156c-0.064,0-0.128,0-0.192-0.001v-55.964
			c-0.999-3.561-4.509-5.908-8.262-5.345c-4.066,0.607-6.414,3.629-6.414,7.858c-0.029-0.109-0.014-0.05,0,0.004v53.446
			c-0.014,0-0.029,0-0.044,0.001v14.678c0.015-0.001,0.03-0.001,0.044-0.001V454.75c-8.138-1.456-16.229-5.346-24.145-11.629
			c-11.756-9.335-22.521-23.385-32-41.765c-5.147-9.977-9.696-20.871-13.642-32.489c-0.011-0.03-0.024-0.055-0.035-0.084
			c-3.667-9.591-7.023-23.52-9.421-34.798c-0.047,0.003-0.097,0.008-0.146,0.012c-1.314-6.115-2.476-12.364-3.491-18.723
			c-0.025-0.143-0.042-0.24-0.042-0.24h0.007c-2.932-18.426-4.604-37.802-4.939-57.693h69.728c3.038-1.024,5.228-3.889,5.228-7.271
			c0-3.546-2.404-6.522-5.67-7.407H155.44c0.159-9.595,0.65-19.066,1.437-28.383c-4.274-0.074-9.906-0.194-14.672-0.361
			c-0.794,9.521-1.281,19.122-1.442,28.744H45.089c0.528-15.113,2.71-29.945,6.425-44.303c-8.943,4.407-15.938,12.234-19.198,21.896
			c-5.455,40.153,0.183,81.487,16.863,119.064c2.165,2.048,5.419,2.734,8.334,1.486c3.406-1.458,5.22-5.08,4.526-8.576
			c-10.217-23.389-16.021-48.693-16.94-74.889h95.689c0.439,26.642,3.262,53.136,8.499,78.083c-0.013,0.001-0.027,0.002-0.039,0.005
			c0.93,4.551,2.026,9.526,3.267,14.479c0.052-0.005,0.102-0.01,0.153-0.017c5.364,21.087,12.501,40.808,21.467,58.193
			c9.3,18.036,19.787,32.128,30.941,42.288c-36.478-8.217-70.135-26.275-97.584-52.837c-6.536-6.325-12.583-13.016-18.151-20.015
			c0.017,0.058,0.036,0.117,0.051,0.173c-2.394-3.522-7.188-4.437-10.709-2.042c-2.642,1.795-3.816,4.938-3.229,7.886
			c6.57,8.582,13.832,16.802,21.835,24.547c42.786,41.409,98.077,62.014,153.301,62.014c0.012,0,0.017,0,0.027,0
			c0.005,0,0.01,0,0.01,0c0.014,0,0.022-0.004,0.036-0.004c57.555-0.019,115.036-22.407,158.257-66.953
			c8.11-8.358,15.411-17.201,21.931-26.42c-7.121,2.5-14.604,4.216-22.364,4.999C405.269,385.554,401.904,389.292,398.385,392.918z"
			/>
		<path fill="#0078d7" d="M414.002,102.229c-3.163-1.654-7.158-0.932-9.515,1.932c-2.021,2.447-2.274,5.77-0.912,8.424
			c4.702,5.204,9.09,10.624,13.204,16.211c0.036,0.035,0.086,0.068,0.12,0.106c5.261,5.656,12.544,18.981,16.108,25.798
			c0.29,0.552,0.579,1.108,0.864,1.664c0.807,1.561,1.279,2.512,1.279,2.512s-0.015,0.006-0.018,0.007
			c12.801,25.808,20.056,54.225,21.099,83.779h-95.694c-0.423-25.489-3.047-50.83-7.859-74.815
			c-2.718-12.67-7.075-28.641-7.933-31.752c-4.773-15.818-10.607-30.7-17.552-44.169c-9.308-18.042-19.793-32.135-30.949-42.293
			c24.785,5.581,48.255,15.724,69.366,29.981c3.598,0.843,7.381-0.995,8.856-4.517c1.197-2.846,0.549-5.999-1.391-8.148
			c-36.963-24.714-79.679-37.047-122.359-37.047c-0.008,0-0.013,0-0.016,0c-0.008,0-0.012,0-0.012,0c-0.008,0-0.019,0-0.028,0
			c-57.563,0.015-115.034,22.403-158.258,66.955c-7.038,7.256-13.44,14.888-19.28,22.8c7.045-2.19,14.436-3.575,22.057-4.108
			c2.503-2.882,5.082-5.712,7.761-8.473c19.731-20.338,42.9-36.104,68.855-46.846c10.85-4.494,21.973-8.024,33.31-10.587
			c-12.172,11.085-23.537,26.822-33.408,47.214c-0.246,0.509-0.478,1.033-0.721,1.546l12.067,8.842
			c0.616-1.339,1.23-2.681,1.865-3.992c16.188-33.435,37.133-54.07,58.414-57.982v109.551c-0.014,0-0.029,0-0.044-0.001v14.681
			c0.015,0.001,0.03,0.001,0.044,0.001V226.3c0.743,3.907,4.438,6.564,8.405,5.97c3.345-0.502,5.83-3.156,6.271-6.346v-2.029
			c-0.004-0.03-0.004-0.061-0.01-0.091c0.003,0.013,0.006,0.023,0.01,0.036v-45.45h-0.003v-39.025H258V45.248
			c8.138,1.46,16.225,5.353,24.144,11.631c11.757,9.335,22.524,23.385,32.001,41.77c6.342,12.298,11.776,25.993,16.29,40.717
			l0.02-0.001c0,0,6.517,20.244,9.362,39.025c0.017,0.113,0.016,0.209,0.028,0.319c3.587,20.279,5.638,41.783,6.014,63.953h-69.974
			c-2.833,1.192-4.823,3.997-4.823,7.265c0,3.421,2.184,6.324,5.23,7.414h69.597c-0.146,8.754-0.584,17.397-1.25,25.923
			c4.828,0.113,10.887,0.299,14.653,0.556c0.684-8.778,1.125-17.62,1.271-26.479h95.674c-0.485,13.962-2.382,27.688-5.595,41.019
			c9.621-5.287,16.775-14.621,18.992-25.879c0.051-0.256,0.112-0.512,0.182-0.765c0.087-0.315,0.152-0.654,0.233-0.977
			C475.681,210.988,456.921,149.454,414.002,102.229z"/>
	</g>
	<g>
		<path fill="#0078d7" d="M492.171,272.455c-0.743-2.438-3.155-3.989-5.669-3.637c-2.527,0.339-4.436,2.459-4.508,5.006
			c-0.104,3.602-0.658,6.387-2.267,11.341c-9.026,20.104-21.687,30.297-37.629,30.297H417.06c-2.654,0.292-4.726,2.515-4.726,5.244
			c0,2.521,1.762,4.622,4.117,5.163h25.647c17.407,0,31.944-9.424,42.482-27.398c-0.713,30.656-31.625,59.343-64.299,59.343h-92.669
			c-1.38,0-2.703,0.548-3.681,1.524c-0.976,0.976-1.522,2.299-1.522,3.68l0.001,4.216l-34.646-25.386l34.638-25.399l0.001,4.218
			c0,2.874,2.33,5.203,5.203,5.203h42.977c2.312-0.573,4.031-2.646,4.031-5.133c0-2.822-2.211-5.107-4.99-5.274H332.81l-0.001-9.28
			c0-1.96-1.103-3.754-2.852-4.641c-1.749-0.885-3.848-0.714-5.428,0.446l-48.642,35.665c-1.338,0.981-2.127,2.54-2.127,4.198
			c0,1.657,0.79,3.216,2.128,4.195l48.651,35.649c0.909,0.665,1.989,1.006,3.075,1.006c0.01-0.001,0.018-0.001,0.025,0
			c2.875,0,5.204-2.33,5.204-5.203c0-0.176-0.008-0.353-0.026-0.524l-0.001-8.754h87.465c39.104,0,74.718-33.76,74.718-70.83
			C495,291.09,494.247,279.25,492.171,272.455z"/>
	</g>
	<circle fill="#0078d7" cx="393.849" cy="320.655" r="5.62"/>
	<g>
		<path fill="#0078d7" d="M225.146,150.929l-48.651-35.648c-1.782-1.303-4.142-1.496-6.107-0.499
			c-1.968,0.997-3.206,3.018-3.206,5.223l0.001,8.625H80.368C40.923,128.629,5,162.699,5,200.11c0,6.339,0.761,18.26,2.856,25.126
			c0.76,2.487,3.054,4.144,5.595,4.144c0.26,0,0.521-0.018,0.786-0.053c2.842-0.382,4.987-2.767,5.069-5.633
			c0.089-3.094,0.461-5.686,2.226-11.126c8.91-19.827,21.364-29.88,37.021-29.88h50.09c2.631-0.61,4.598-2.957,4.598-5.775
			c0-3.267-2.646-5.918-5.912-5.933H58.553c-16.928,0-31.164,8.763-41.703,25.511c2.297-29.348,32.085-56.154,63.519-56.154h92.669
			c1.553,0,3.042-0.617,4.141-1.715c1.098-1.097,1.714-2.588,1.714-4.141v-2.932l32.893,24.104l-32.888,24.113v-2.934
			c0-3.231-2.62-5.853-5.854-5.853h-17.379c-2.635,0.606-4.605,2.957-4.605,5.778c0,3.256,2.626,5.896,5.874,5.93h10.259
			l0.001,8.629c0,2.206,1.241,4.225,3.207,5.222c1.971,0.997,4.329,0.803,6.108-0.501l48.641-35.666
			c1.505-1.103,2.393-2.856,2.393-4.722S226.65,152.031,225.146,150.929z"/>
	</g>
	<circle fill="#0078d7" cx="131.737" cy="176.878" r="5.621"/>
</g>
</svg>
