<?xml version="1.0" standalone="no"?>
<!DOCTYPE svg PUBLIC "-//W3C//DTD SVG 1.1//EN" "http://www.w3.org/Graphics/SVG/1.1/DTD/svg11.dtd" >
<svg xmlns="http://www.w3.org/2000/svg">
<metadata></metadata>
<defs>
<font id="psl_kittithada_probold" horiz-adv-x="0" >
<font-face units-per-em="2048" ascent="1638" descent="-410" />
<missing-glyph horiz-adv-x="573" />
<glyph unicode=" "  horiz-adv-x="573" />
<glyph unicode="&#x09;" horiz-adv-x="573" />
<glyph unicode="&#xa0;" horiz-adv-x="573" />
<glyph unicode="!" horiz-adv-x="372" d="M92 86q0 38 28 67t66 29t66.5 -29t28.5 -67q0 -40 -28.5 -68t-66.5 -28t-66 28t-28 68zM117 815v266h141v-266l-33 -539h-78z" />
<glyph unicode="&#x22;" horiz-adv-x="589" d="M111 1081h141l-27 -471h-88zM340 1081h139l-24 -471h-93z" />
<glyph unicode="#" horiz-adv-x="784" d="M23 301v115h161l37 221h-145v115h166l49 278h108l-49 -278h170l49 278h111l-49 -278h127v-115h-148l-39 -221h142v-115h-162l-55 -301h-105l51 301h-170l-55 -301h-104l49 301h-139zM293 416h172l37 221h-172z" />
<glyph unicode="$" horiz-adv-x="784" d="M63 279l134 30q1 -93 58.5 -150t141.5 -57q85 0 139 55t54 136q0 31 -6 57t-13 44.5t-24.5 36.5t-27.5 27.5t-35 23t-35 18.5t-39 18l-72 33q-52 24 -87 45.5t-70 54t-52.5 76t-17.5 98.5q0 119 78.5 194t193.5 83v131h70v-131q81 -9 142.5 -51t94.5 -109l-104 -63 q-34 53 -76.5 75.5t-106.5 22.5q-65 0 -113 -42t-48 -110q0 -98 143 -155l76 -31q62 -25 105 -51.5t80.5 -65.5t56 -93.5t18.5 -125.5q0 -129 -75.5 -216t-192.5 -105v-142h-70v137q-124 6 -213.5 88t-106.5 214z" />
<glyph unicode="%" horiz-adv-x="964" d="M14 856q0 102 72.5 174t171.5 72q100 0 172 -72t72 -174q0 -101 -72.5 -172.5t-171.5 -71.5t-171.5 71.5t-72.5 172.5zM96 856q0 -65 48.5 -111.5t113.5 -46.5t113.5 46.5t48.5 111.5t-48.5 112.5t-113.5 47.5t-113.5 -47.5t-48.5 -112.5zM143 10l615 1094l65 -33 l-614 -1094zM463 223q0 102 72.5 174t171.5 72q100 0 171.5 -72t71.5 -174q0 -101 -72 -172t-171 -71t-171.5 71.5t-72.5 171.5zM547 223q0 -64 47.5 -110.5t112.5 -46.5q66 0 113.5 46.5t47.5 110.5q0 67 -47.5 113.5t-113.5 46.5q-65 0 -112.5 -46.5t-47.5 -113.5z" />
<glyph unicode="&#x26;" horiz-adv-x="940" d="M63 295q0 100 59 176.5t191 161.5q-123 127 -123 233q0 109 71 173.5t177 64.5q100 0 172 -61.5t72 -163.5q0 -42 -15 -79.5t-48 -73.5t-58.5 -59t-71.5 -59l220 -270l112 135l92 -78l-127 -153l189 -242h-162l-113 145q-75 -83 -147.5 -125.5t-167.5 -42.5 q-133 0 -227.5 90.5t-94.5 227.5zM186 295q0 -77 60 -137t135 -60q45 0 91 23.5t75.5 49t73.5 71.5l-230 293q-99 -66 -137 -105q-68 -68 -68 -135zM319 883q0 -69 99 -178q4 3 24 18.5t31 24.5t29.5 27t28.5 32.5t18 34.5t8 39q0 55 -33.5 85.5t-87.5 30.5q-49 0 -83 -31.5 t-34 -82.5z" />
<glyph unicode="'" horiz-adv-x="364" d="M113 1081h141l-27 -471h-88z" />
<glyph unicode="(" horiz-adv-x="421" d="M68 449q0 333 211 653h127q-86 -128 -144.5 -304.5t-58.5 -348.5t58.5 -349t144.5 -305h-127q-211 320 -211 654z" />
<glyph unicode=")" horiz-adv-x="421" d="M16 -205q86 128 144.5 305t58.5 349t-58.5 348.5t-144.5 304.5h127q211 -320 211 -653q0 -334 -211 -654h-127z" />
<glyph unicode="*" horiz-adv-x="698" d="M96 848l37 108l164 -59l-6 184h117l-7 -184l168 59l33 -108l-170 -53l111 -146l-90 -71l-99 180l-100 -183l-96 72l108 148z" />
<glyph unicode="+" horiz-adv-x="798" d="M61 317v103h287v287h103v-287h286v-103h-286v-286h-103v286h-287z" />
<glyph unicode="," horiz-adv-x="319" d="M72 72q0 33 25.5 59.5t62.5 26.5q45 0 72.5 -32.5t27.5 -74.5q0 -69 -44 -125t-107 -94l-27 33q92 52 113 133q-16 -8 -41 -8q-32 0 -57 25t-25 57z" />
<glyph unicode="-" horiz-adv-x="456" d="M72 317v103h313v-103h-313z" />
<glyph unicode="." horiz-adv-x="319" d="M76 74q0 35 24.5 59.5t59.5 24.5t59.5 -24.5t24.5 -59.5t-24.5 -59.5t-59.5 -24.5t-59.5 24.5t-24.5 59.5z" />
<glyph unicode="/" horiz-adv-x="745" d="M29 -143l587 1388l101 -39l-584 -1386z" />
<glyph unicode="0" horiz-adv-x="798" d="M33 541q0 83 12 160.5t39.5 151.5t68.5 129t104.5 88.5t141.5 33.5q79 0 142 -33.5t104 -88.5t68.5 -129t39 -151.5t11.5 -160.5t-11.5 -160.5t-39.5 -152t-68.5 -129.5t-104 -88.5t-141.5 -33.5t-141.5 33.5t-104.5 88.5t-68.5 129.5t-39.5 152t-12 160.5zM160 543 q0 -75 11.5 -147t37 -142t74.5 -113t116 -43q54 0 97 29.5t69 75t43.5 106.5t24 118.5t6.5 115.5t-6.5 115.5t-24 118.5t-43.5 107t-69 75.5t-97 29.5q-67 0 -116 -43.5t-74.5 -114t-37 -142.5t-11.5 -146z" />
<glyph unicode="1" horiz-adv-x="798" d="M147 958l72 123h258v-1081h-125v958h-205z" />
<glyph unicode="2" horiz-adv-x="798" d="M53 0l459 580q29 37 45 60.5t32.5 62t16.5 71.5q0 90 -53.5 148.5t-151.5 58.5q-78 0 -135.5 -57t-66.5 -146h-131q19 153 106.5 239.5t226.5 86.5q153 0 241.5 -90.5t88.5 -233.5q0 -123 -78 -223l-344 -434h426v-123h-682z" />
<glyph unicode="3" horiz-adv-x="798" d="M66 266h129q10 -79 67.5 -125.5t132.5 -46.5q87 0 144 61.5t57 151.5q0 100 -61 157t-162 52v113q207 3 207 172q0 81 -52 133.5t-131 52.5q-68 0 -113.5 -40t-60.5 -113h-129q22 134 101 202t206 68q128 0 216 -80t88 -211q0 -158 -134 -242q150 -84 150 -270 q0 -148 -95.5 -236t-240.5 -88q-126 0 -217.5 78.5t-101.5 210.5z" />
<glyph unicode="4" horiz-adv-x="798" d="M4 158l639 968v-854h119v-114h-119v-158h-125v158h-514zM219 272h299v457z" />
<glyph unicode="5" horiz-adv-x="798" d="M31 168l106 82q28 -69 90.5 -109.5t130.5 -40.5q105 0 179.5 77.5t74.5 184.5q0 106 -75.5 183.5t-176.5 77.5q-115 0 -194 -97h-29v555h506v-123h-381v-253q66 34 139 34q148 0 242 -111.5t94 -267.5q0 -167 -112 -275t-275 -108q-99 0 -186 50.5t-133 140.5z" />
<glyph unicode="6" horiz-adv-x="798" d="M47 322q0 75 29.5 141t83.5 145l358 496l103 -57l-287 -400q30 15 80 15q145 3 237 -93t92 -237q0 -148 -100.5 -251.5t-245.5 -103.5q-143 0 -246.5 100t-103.5 245zM172 326q0 -93 66.5 -160.5t156.5 -67.5q88 0 155.5 65t67.5 154q0 98 -68.5 166t-154.5 68 q-85 0 -154 -69t-69 -156z" />
<glyph unicode="7" horiz-adv-x="798" d="M43 31l551 930h-543v120h756l-655 -1104z" />
<glyph unicode="8" horiz-adv-x="798" d="M66 301q0 86 42.5 154.5t124.5 105.5q-141 96 -141 242q0 130 88.5 215.5t216.5 85.5q126 0 214.5 -85.5t88.5 -215.5q0 -153 -137 -242q84 -37 125 -105t41 -155q0 -146 -96 -235t-236 -89q-138 0 -234.5 89t-96.5 235zM190 301q0 -82 60.5 -142.5t146.5 -60.5 q83 0 145 60.5t62 142.5q0 86 -62.5 144.5t-144.5 58.5t-144.5 -58.5t-62.5 -144.5zM217 803q0 -73 53.5 -129t126.5 -56q72 0 127.5 56.5t55.5 128.5q0 78 -55 132t-128 54t-126.5 -54t-53.5 -132z" />
<glyph unicode="9" horiz-adv-x="798" d="M57 748q0 150 102 253t247 103q153 0 249.5 -99.5t96.5 -246.5q0 -129 -113 -285l-354 -496l-105 60l287 395q-44 -16 -105 -16q-128 0 -216.5 100t-88.5 232zM182 758q0 -94 69.5 -161t154.5 -67q98 0 159.5 67.5t61.5 160.5q0 90 -63 157.5t-154 67.5q-96 0 -162 -66 t-66 -159z" />
<glyph unicode=":" horiz-adv-x="319" d="M76 74q0 35 24.5 59.5t59.5 24.5t59.5 -24.5t24.5 -59.5t-24.5 -59.5t-59.5 -24.5t-59.5 24.5t-24.5 59.5zM76 582q0 35 24.5 59.5t59.5 24.5t59.5 -24.5t24.5 -59.5t-24.5 -59.5t-59.5 -24.5t-59.5 24.5t-24.5 59.5z" />
<glyph unicode=";" horiz-adv-x="319" d="M72 72q0 33 25.5 59.5t62.5 26.5q45 0 72.5 -32.5t27.5 -74.5q0 -69 -44 -125t-107 -94l-27 33q92 52 113 133q-16 -8 -41 -8q-32 0 -57 25t-25 57zM76 582q0 35 24.5 59.5t59.5 24.5t59.5 -24.5t24.5 -59.5t-24.5 -59.5t-59.5 -24.5t-59.5 24.5t-24.5 59.5z" />
<glyph unicode="&#x3c;" horiz-adv-x="798" d="M43 317v101l713 297v-133l-533 -215l533 -213v-134z" />
<glyph unicode="=" horiz-adv-x="798" d="M61 195v102h676v-102h-676zM61 440v103h676v-103h-676z" />
<glyph unicode="&#x3e;" horiz-adv-x="798" d="M43 20v134l537 213l-537 215v133l713 -297v-101z" />
<glyph unicode="?" horiz-adv-x="770" d="M60 868.5q17 69.5 60.5 121.5t114.5 82t154 30q145 0 232.5 -82.5t87.5 -198.5q0 -54 -25.5 -104t-61.5 -88t-72 -74.5t-61.5 -79t-25.5 -86.5v-94h-135v115q0 50 25 94.5t60.5 79.5t71.5 69.5t61 78t25 91.5q0 62 -49.5 109t-136.5 47q-98 0 -153 -62t-23 -163l-141 -33 q-25 78 -8 147.5zM295 92q0 43 28.5 72t71.5 29t72 -29t29 -72q0 -44 -29.5 -73t-71.5 -29t-71 29t-29 73z" />
<glyph unicode="@" horiz-adv-x="1126" d="M41 541q0 240 159 401.5t390 161.5q138 0 252.5 -63.5t178.5 -168t64 -223.5q0 -189 -88 -303q-51 -65 -108.5 -96.5t-112.5 -28.5q-27 0 -52 27t-26 61q-47 -45 -91.5 -66.5t-102.5 -21.5q-97 0 -168.5 77.5t-71.5 195.5q0 132 82 232.5t209 100.5q128 0 193 -98l18 86 h102l-71 -369q-18 -83 -8 -106q8 -18 28 -18q33 0 69 39t60.5 103.5t24.5 131.5q0 179 -109.5 286t-277.5 107q-179 0 -303.5 -130.5t-124.5 -317.5q0 -193 133 -321t319 -128q182 0 269 70l88 -90q-127 -95 -355 -95q-248 0 -408.5 159.5t-160.5 404.5zM375 496 q0 -66 39.5 -115t103.5 -49q47 0 83 16.5t58 45.5t34.5 63t17.5 75q10 86 -30.5 135.5t-115.5 49.5q-83 0 -136.5 -68t-53.5 -153z" />
<glyph unicode="A" horiz-adv-x="956" d="M-18 0l499 1126l494 -1126h-139l-121 270h-473l-119 -270h-141zM297 391h365l-183 440z" />
<glyph unicode="B" horiz-adv-x="743" d="M80 0v1081h147q64 0 116.5 -7t103.5 -27t86 -52t56 -86t21 -125q0 -135 -102 -204q86 -20 142.5 -100.5t56.5 -176.5q0 -78 -30.5 -138t-82.5 -95t-115 -52.5t-135 -17.5h-264zM211 121h119q248 0 248 190q0 52 -22 90t-60 58t-78 28.5t-86 8.5h-121v-375zM211 602h51 q52 0 89 7t70.5 25t50.5 55t17 93q0 54 -17.5 91t-50.5 55.5t-69.5 25.5t-85.5 7h-55v-359z" />
<glyph unicode="C" horiz-adv-x="905" d="M31 535q0 158 71 288t199.5 205.5t288.5 75.5q151 0 270 -74v-156q-124 107 -285 107q-173 0 -293 -130t-120 -312q0 -117 53.5 -217.5t148.5 -161t209 -60.5q157 0 287 113v-160q-133 -76 -282 -76q-156 0 -281.5 74t-195.5 201.5t-70 282.5z" />
<glyph unicode="D" horiz-adv-x="903" d="M80 0v1081h211q123 0 228.5 -33.5t186.5 -98.5t127 -168t46 -234q0 -135 -46 -240.5t-127 -172t-187 -100.5t-232 -34h-207zM211 123h41q104 0 190.5 22t156.5 69t109.5 130.5t39.5 196.5q0 114 -39.5 197.5t-110 130t-156 68t-190.5 21.5h-41v-835z" />
<glyph unicode="E" horiz-adv-x="704" d="M88 0v1081h565v-123h-432v-303h414v-123h-414v-409h432v-123h-565z" />
<glyph unicode="F" horiz-adv-x="638" d="M88 0v1081h508v-123h-377v-305h361v-123h-361v-530h-131z" />
<glyph unicode="G" horiz-adv-x="1064" d="M20 537q0 154 69.5 284t194.5 206.5t277 76.5q132 0 253.5 -61.5t191.5 -172.5l-107 -65q-63 82 -151.5 129t-180.5 47q-174 0 -295.5 -128t-121.5 -310q0 -113 53.5 -214.5t148.5 -165t205 -63.5q123 0 229 95t113 227h-338v123h483v-43q0 -225 -139 -375t-356 -150 q-145 0 -267.5 77.5t-192 206t-69.5 276.5z" />
<glyph unicode="H" horiz-adv-x="911" d="M80 0v1081h131v-436h487v436h131v-1081h-131v518h-487v-518h-131z" />
<glyph unicode="I" horiz-adv-x="301" d="M86 0v1081h131v-1081h-131z" />
<glyph unicode="J" horiz-adv-x="487" d="M-37 33l64 112q52 -43 112 -43q31 0 56 11.5t40 26t26 44t16 48t7.5 57t2.5 53v51.5v688h131v-688q0 -69 -6 -123.5t-24.5 -111.5t-48.5 -95t-82.5 -62t-123.5 -24q-99 0 -170 56z" />
<glyph unicode="K" horiz-adv-x="813" d="M88 0v1081h133v-479l445 479h168l-465 -487l473 -594h-166l-393 500l-62 -62v-438h-133z" />
<glyph unicode="L" horiz-adv-x="514" d="M88 0v1081h133v-962h318v-119h-451z" />
<glyph unicode="M" horiz-adv-x="1163" d="M8 0l215 1126l361 -852l358 852l213 -1126h-135l-119 719l-317 -742l-318 740l-123 -717h-135z" />
<glyph unicode="N" horiz-adv-x="1060" d="M78 0v1133l776 -848v794h131v-1124l-776 848v-803h-131z" />
<glyph unicode="O" horiz-adv-x="1124" d="M16 541q0 152 73.5 282t199 205.5t272.5 75.5q148 0 273.5 -76t198.5 -205.5t73 -281.5q0 -119 -43 -224t-116 -179.5t-173.5 -117.5t-212.5 -43t-212.5 43t-173.5 117.5t-116 179.5t-43 224zM147 541q0 -184 122 -311.5t292 -127.5q171 0 292.5 127t121.5 312 q0 183 -116 309.5t-298 126.5q-181 0 -297.5 -127t-116.5 -309z" />
<glyph unicode="P" horiz-adv-x="681" d="M88 0v1081h162q119 0 202 -20.5t131 -62t69.5 -97.5t21.5 -133q0 -160 -103.5 -237.5t-265.5 -77.5h-84v-453h-133zM221 573h51q56 0 100.5 7.5t87.5 27.5t67 61.5t24 102.5q0 48 -18 84t-44.5 55.5t-67 31t-76 15t-79.5 3.5h-45v-388z" />
<glyph unicode="Q" horiz-adv-x="1124" d="M16 541q0 152 73.5 282t199 205.5t272.5 75.5q148 0 273.5 -76t198.5 -205.5t73 -281.5q0 -113 -42.5 -216t-121.5 -182l166 -166h-162l-90 97q-142 -97 -295 -97q-112 0 -212.5 43t-173.5 117.5t-116 179.5t-43 224zM147 541q0 -184 122 -311.5t292 -127.5q100 0 205 64 l-240 242h160l168 -170q59 59 90 140.5t31 162.5q0 183 -116 309.5t-298 126.5q-181 0 -297.5 -127t-116.5 -309z" />
<glyph unicode="R" horiz-adv-x="745" d="M88 0v1081h215q106 0 187.5 -31t132.5 -102t51 -176q0 -112 -67.5 -196t-182.5 -105l330 -471h-160l-309 457h-64v-457h-133zM221 569h51q44 0 80.5 4t75 16.5t64.5 33.5t42.5 57.5t16.5 85.5t-18 85.5t-45 57t-66.5 32.5t-75.5 16t-80 4h-45v-392z" />
<glyph unicode="S" horiz-adv-x="727" d="M35 279l133 30q1 -93 59 -150t142 -57q85 0 138.5 55t53.5 136q0 31 -6 57t-13 44.5t-24.5 36.5t-27.5 27.5t-35 23t-35 18.5t-39 18l-72 33q-52 24 -87 45.5t-70 54t-52.5 76t-17.5 98.5q0 126 88 202.5t213 76.5q95 0 168.5 -43.5t110.5 -118.5l-105 -63 q-34 53 -76 75.5t-106 22.5q-65 0 -113.5 -42t-48.5 -110q0 -98 143 -155l76 -31q62 -25 105 -51.5t80.5 -65.5t56 -93.5t18.5 -125.5q0 -145 -93 -235.5t-228 -90.5q-129 0 -224 82.5t-112 219.5z" />
<glyph unicode="T" horiz-adv-x="612" d="M-12 958v123h637v-123h-254v-958h-129v958h-254z" />
<glyph unicode="U" horiz-adv-x="909" d="M72 397v684h131v-639q0 -69 13.5 -128t42 -107.5t79 -76.5t117.5 -28q69 0 119.5 28t79 76.5t42 107.5t13.5 128v639h131v-684q0 -184 -102.5 -302t-282.5 -118q-177 0 -280 118t-103 302z" />
<glyph unicode="V" horiz-adv-x="878" d="M-20 1081h143l319 -798l314 798h143l-457 -1138z" />
<glyph unicode="W" horiz-adv-x="1421" d="M-20 1081h141l297 -772l293 795l297 -795l292 772h142l-434 -1124l-297 795l-293 -795z" />
<glyph unicode="X" horiz-adv-x="784" d="M-14 0l340 567l-299 514h147l225 -395l236 395h147l-309 -516l326 -565h-146l-254 444l-268 -444h-145z" />
<glyph unicode="Y" horiz-adv-x="770" d="M-18 1081h149l256 -467l250 467h151l-337 -608v-473h-134v473z" />
<glyph unicode="Z" horiz-adv-x="745" d="M2 0l528 958h-456v123h674l-527 -958h527v-123h-746z" />
<glyph unicode="[" horiz-adv-x="458" d="M82 -229v1372h293v-119h-168v-1135h168v-118h-293z" />
<glyph unicode="\" horiz-adv-x="745" d="M33 1245h117l561 -1245h-117z" />
<glyph unicode="]" horiz-adv-x="458" d="M82 -111h170v1135h-170v119h293v-1372h-293v118z" />
<glyph unicode="^" horiz-adv-x="784" d="M35 442l278 639h156l279 -639h-130l-225 531l-229 -531h-129z" />
<glyph unicode="_" horiz-adv-x="798" d="M0 -102h799v-103h-799v103z" />
<glyph unicode="`" horiz-adv-x="479" d="M96 987l115 66l174 -238l-59 -39z" />
<glyph unicode="a" horiz-adv-x="755" d="M25 340q0 92 38 171.5t110 129t163 49.5q152 0 229 -108v90h125v-672h-125v90q-33 -56 -95 -84.5t-130 -28.5q-144 0 -229.5 106t-85.5 257zM152 336q0 -101 55.5 -172.5t150.5 -71.5q98 0 155.5 70t57.5 174q0 101 -57.5 170t-155.5 69q-93 0 -149.5 -70.5t-56.5 -168.5 z" />
<glyph unicode="b" horiz-adv-x="755" d="M66 0v1204h124v-618q86 104 232 104q136 0 222.5 -104t86.5 -246q0 -152 -84 -257.5t-229 -105.5q-68 0 -130 27t-98 82v-86h-124zM184 336q0 -100 56.5 -172t152.5 -72q98 0 155.5 70t57.5 174q0 100 -58 169.5t-155 69.5q-95 0 -152 -70.5t-57 -168.5z" />
<glyph unicode="c" horiz-adv-x="598" d="M25 330q0 160 102 260t254 100q101 0 176 -41v-149q-65 71 -172 71q-101 0 -167 -70t-66 -165q0 -103 63 -170.5t162 -67.5q104 0 180 76v-154q-85 -43 -182 -43q-152 0 -251 99.5t-99 253.5z" />
<glyph unicode="d" horiz-adv-x="755" d="M25 340q0 142 87 246t222 104q73 0 133.5 -25t97.5 -71v610h125v-1204h-125v74q-40 -46 -99 -71.5t-126 -25.5q-145 0 -230 105.5t-85 257.5zM152 336q0 -101 55.5 -172.5t150.5 -71.5q98 0 155.5 70t57.5 174q0 101 -57.5 170t-155.5 69q-93 0 -149.5 -70.5 t-56.5 -168.5z" />
<glyph unicode="e" horiz-adv-x="659" d="M25 330q0 161 83 260.5t236 99.5q149 0 226 -99t77 -257v-21h-495q3 -90 57 -155.5t139 -65.5q65 0 114.5 37t78.5 94l108 -61q-49 -89 -129 -137t-174 -48q-146 0 -233.5 100t-87.5 253zM158 412h358q-15 79 -60.5 123.5t-113.5 44.5q-69 0 -118 -45t-66 -123z" />
<glyph unicode="f" horiz-adv-x="360" d="M43 551v121h57v284q0 265 222 265q45 0 98 -17v-129q-35 25 -81 25h-7q-35 -1 -57 -16t-32.5 -42.5t-14 -55t-3.5 -68.5v-246h170v-121h-170v-551h-125v551h-57z" />
<glyph unicode="g" horiz-adv-x="753" d="M23 340q0 142 87 246t222 104q156 0 231 -104v86h125v-660q0 -91 -14.5 -159.5t-49 -124t-99 -84.5t-156.5 -29q-136 0 -223 81t-93 224h125q3 -93 56 -143q51 -47 131 -47h10q108 4 148 67.5t40 179.5v95q-92 -95 -225 -95q-145 0 -230 105.5t-85 257.5zM150 336 q0 -101 56 -173.5t150 -72.5q99 0 156 70t57 176q0 101 -57.5 170t-155.5 69q-93 0 -149.5 -70.5t-56.5 -168.5z" />
<glyph unicode="h" horiz-adv-x="710" d="M76 0v1204h125v-604q32 40 87 65t109 25q238 0 238 -291v-399h-125v385q0 97 -28.5 143.5t-116.5 46.5q-44 0 -75.5 -17t-48 -41.5t-26 -63.5t-12 -71t-2.5 -77v-305h-125z" />
<glyph unicode="i" horiz-adv-x="333" d="M80 936q0 38 25 64t61 26q37 0 61.5 -26t24.5 -64q0 -36 -25 -61t-61 -25q-35 0 -60.5 25.5t-25.5 60.5zM102 0v672h125v-672h-125z" />
<glyph unicode="j" horiz-adv-x="333" d="M80 936q0 38 25 64t61 26q37 0 61.5 -26t24.5 -64q0 -36 -25 -61t-61 -25q-35 0 -60.5 25.5t-25.5 60.5zM102 -385v1057h125v-1057h-125z" />
<glyph unicode="k" horiz-adv-x="620" d="M86 0v1204h125v-788l244 256h163l-272 -283l301 -389h-162l-227 301l-47 -49v-252h-125z" />
<glyph unicode="l" horiz-adv-x="286" d="M82 0v1204h125v-1204h-125z" />
<glyph unicode="m" horiz-adv-x="1046" d="M72 0v672h125v-72q32 45 78.5 67.5t95.5 22.5q129 0 188 -119q33 56 86 87.5t111 31.5q219 0 219 -289v-401h-125v381q0 38 -3.5 66t-15 60.5t-37.5 50t-65 17.5q-143 0 -143 -245v-330h-125v356q0 27 -1 46.5t-4 48t-11 48t-20.5 38.5t-33.5 28.5t-49 9.5 q-145 0 -145 -245v-330h-125z" />
<glyph unicode="n" horiz-adv-x="710" d="M76 0v672h125v-82q31 50 83 75t109 25q68 0 116.5 -22t75.5 -62.5t38.5 -91t11.5 -115.5v-399h-125v385q0 97 -28 143.5t-117 46.5q-45 0 -77 -17t-48.5 -41t-25.5 -63.5t-11 -70t-2 -76.5v-307h-125z" />
<glyph unicode="o" horiz-adv-x="722" d="M18 334q0 152 98 254t244 102q147 0 246 -102t99 -254t-99.5 -254.5t-245.5 -102.5t-244 102.5t-98 254.5zM143 334q0 -96 63 -165t154 -69q92 0 156 69t64 165t-64 164.5t-156 68.5q-91 0 -154 -68.5t-63 -164.5z" />
<glyph unicode="p" horiz-adv-x="755" d="M66 -385v1057h124v-94q38 57 99.5 84.5t132.5 27.5q136 0 222.5 -104t86.5 -246q0 -152 -84 -257.5t-229 -105.5q-146 0 -228 99v-461h-124zM184 336q0 -101 56.5 -173.5t152.5 -72.5q98 0 155.5 70.5t57.5 175.5q0 100 -58 169.5t-155 69.5q-95 0 -152 -70.5t-57 -168.5 z" />
<glyph unicode="q" horiz-adv-x="755" d="M25 340q0 142 86.5 246t222.5 104q71 0 132 -27.5t99 -84.5v94h125v-1057h-125v461q-82 -99 -227 -99t-229 105.5t-84 257.5zM150 336q0 -105 57 -175.5t155 -70.5q96 0 152.5 72.5t56.5 173.5q0 98 -57 168.5t-152 70.5q-97 0 -154.5 -69t-57.5 -170z" />
<glyph unicode="r" horiz-adv-x="468" d="M86 0v672h125v-90q51 108 170 108q71 0 115 -31l-60 -118q-29 26 -76 26q-55 0 -90 -38t-47 -88t-12 -111v-330h-125z" />
<glyph unicode="s" horiz-adv-x="514" d="M35 125l110 53q12 -36 45.5 -61t73.5 -25t69 26.5t29 67.5q0 19 -7.5 34.5t-27.5 30t-33 22.5t-46 23.5t-45 22.5q-33 18 -52 30.5t-43 34.5t-35.5 51t-11.5 65q0 82 57 136t142 54q61 0 109.5 -30.5t72.5 -88.5l-102 -51q-20 55 -80 55q-30 0 -52 -19t-22 -46 q0 -15 7 -28t16 -22.5t28 -20.5t31 -17t38 -17.5t38 -17.5q66 -34 104.5 -76.5t38.5 -111.5q0 -95 -64 -158.5t-159 -63.5q-173 0 -229 148z" />
<glyph unicode="t" horiz-adv-x="313" d="M20 551v121h72v297h127v-297h123v-121h-123v-551h-127v551h-72z" />
<glyph unicode="u" horiz-adv-x="690" d="M72 285v387h125v-373q0 -44 6 -77t21.5 -62.5t46.5 -45.5t77 -16q86 0 119 54.5t33 146.5v373h125v-387q0 -143 -68.5 -225.5t-208.5 -82.5q-138 0 -207 83t-69 225z" />
<glyph unicode="v" horiz-adv-x="589" d="M-31 672h144l180 -416l184 416h144l-328 -695z" />
<glyph unicode="w" horiz-adv-x="970" d="M-31 672h142l182 -424l194 461l193 -461l180 424h141l-321 -695l-195 451l-192 -451z" />
<glyph unicode="x" horiz-adv-x="655" d="M-31 0l291 365l-235 307h147l156 -221l155 221h148l-236 -307l291 -365h-149l-209 276l-209 -276h-150z" />
<glyph unicode="y" horiz-adv-x="647" d="M-29 672h146l217 -422l201 422h141l-522 -1057h-144l258 502z" />
<glyph unicode="z" horiz-adv-x="667" d="M-6 0l440 551h-371v121h613l-436 -551h419v-121h-665z" />
<glyph unicode="{" horiz-adv-x="444" d="M57 406v104q103 50 103 215v260q0 96 29.5 143.5t111.5 47.5h86v-121h-55q-13 0 -22 -5t-13.5 -11.5t-6.5 -20.5t-2.5 -23t-0.5 -28v-265q0 -162 -105 -245q105 -83 105 -246v-266q0 -18 0.5 -27t2.5 -22.5t6.5 -20t13.5 -11.5t22 -5h55v-121h-86q-82 0 -111.5 47.5 t-29.5 142.5v260q0 165 -103 218z" />
<glyph unicode="|" horiz-adv-x="532" d="M205 0v1204h121v-1204h-121z" />
<glyph unicode="}" horiz-adv-x="444" d="M57 -141h56q13 0 22 5t13.5 11.5t6.5 20t2.5 22.5t0.5 27v266q0 163 104 246q-104 83 -104 245v265q0 19 -0.5 28t-2.5 23t-6.5 20.5t-13.5 11.5t-22 5h-56v121h86q82 0 112 -48t30 -143v-260q0 -165 102 -215v-104q-102 -52 -102 -218v-260q0 -95 -30 -142.5t-112 -47.5 h-86v121z" />
<glyph unicode="~" horiz-adv-x="784" d="M33 326q38 75 94 125.5t121 50.5q74 0 172 -74q9 -7 25.5 -20.5t25.5 -20.5t21.5 -15.5t23 -12t19.5 -3.5q36 0 64.5 32t55.5 93l93 -75q-31 -76 -87 -125.5t-124 -49.5q-56 0 -160 74q-8 6 -21.5 16t-21 15.5t-18.5 13t-18.5 12t-16.5 9t-16 6.5t-13 2q-68 0 -127 -119z " />
<glyph unicode="&#xa2;" horiz-adv-x="598" d="M25 535q0 142 81.5 237.5t208.5 116.5v213h91v-207q90 -7 151 -41v-149q-56 61 -151 71v-471q86 9 151 74v-154q-69 -37 -151 -43v-1v-1v-1v-1v-1v-1v-1v-1v-1v-1v-1v-1v-1v-1v-1v-1v-1v-1v-1v-1v-1v-1v-1v-1v-1v-1v-1v-1v-1v-1v-1v-1v-1v-1v-1v-1v-1v-1v-1v-1v-1v-2v-1 v-1v-1v-1v-1v-1v-2v-1v-1v-1v-1v-2v-1v-1v-1v-2v-1v-1v-1v-2v-1v-1v-2v-1v-1v-2v-1v-1v-2v-1v-2v-1v-1v-2v-1v-2v-1v-2v-1v-1v-2v-1v-2v-1v-2v-1v-2v-1v-2v-1v-2v-2v-1v-2v-1v-2v-1v-2v-2v-1v-2v-1v-2v-2v-1v-2v-2v-1v-2v-2v-1v-2v-2v-1v-2v-2v-1v-2v-2v-2v-1v-2v-2v-2v-1 v-2v-2v-2v-1v-2v-2v-2v-2v-2v-1v-2v-2v-2v-2v-9h-91v206q-130 20 -210 116t-80 233zM152 541q0 -86 44.5 -148.5t118.5 -81.5v455q-74 -23 -118.5 -86t-44.5 -139z" />
<glyph unicode="&#xa3;" horiz-adv-x="880" d="M37 494v92h84q-68 117 -68 211q0 138 101.5 222.5t257.5 84.5q179 0 288 -98.5t109 -288.5h-125q0 136 -74.5 205t-197.5 69q-96 0 -164 -55t-68 -139q0 -72 80 -211h283v-92h-238q33 -64 33 -129q0 -61 -24 -118t-60 -95q30 10 65 10q54 0 150 -32t145 -32q94 0 174 86 l64 -110q-52 -47 -105.5 -68.5t-125.5 -21.5q-69 0 -168.5 31.5t-153.5 31.5q-77 0 -188 -63l-72 108q172 127 172 266q0 59 -41 136h-133z" />
<glyph unicode="&#xa4;" horiz-adv-x="839" d="M8 164l148 145q-62 83 -62 193q0 114 62 188l-148 150l76 71l145 -145q80 59 193 59q119 0 188 -59l150 145l71 -71l-145 -150q59 -80 59 -188q0 -113 -59 -193l145 -145l-71 -76l-150 148q-31 -25 -84 -43q-55 -19 -104 -19q-110 0 -193 62l-145 -148zM197 502 q0 -95 63 -164q65 -68 162 -68q93 0 158 68q63 63 63 164q0 94 -63 160.5t-158 66.5q-96 0 -160 -67q-65 -74 -65 -160z" />
<glyph unicode="&#xa5;" horiz-adv-x="770" d="M-18 1081h149l256 -467l250 467h151l-247 -444h229v-92h-281l-38 -72v-72h319v-92h-319v-309h-134v309h-317v92h317v72l-38 72h-279v92h227z" />
<glyph unicode="&#xa9;" horiz-adv-x="1187" d="M29 541q0 113 44.5 215.5t119.5 176.5t180 117.5t221 43.5t221 -43.5t180 -117.5t119.5 -176.5t44.5 -215.5t-44.5 -215.5t-119.5 -176.5t-180 -117.5t-221 -43.5t-221 43.5t-180 117.5t-119.5 176.5t-44.5 215.5zM121 541q0 -128 64 -235t172.5 -167.5t236.5 -60.5 t236.5 60.5t172.5 167.5t64 235t-64 235t-172.5 167.5t-236.5 60.5t-236.5 -60.5t-172.5 -167.5t-64 -235zM291 537q0 137 93 231t230 94q64 0 124 -19.5t98 -56.5v-116q-74 104 -218 104q-97 0 -166 -70.5t-69 -166.5q0 -97 68.5 -168.5t166.5 -71.5q144 0 218 104v-116 q-38 -37 -99 -56.5t-125 -19.5q-138 0 -229.5 95t-91.5 233z" />
<glyph unicode="&#xab;" horiz-adv-x="706" d="M31 457l254 344l84 -49l-219 -295l219 -295l-84 -49zM297 457l254 344l84 -49l-219 -295l219 -295l-84 -49z" />
<glyph unicode="&#xac;" horiz-adv-x="798" d="M41 297v90h709v-268h-82v178h-627z" />
<glyph unicode="&#xad;" horiz-adv-x="798" d="M61 317v103h676v-103h-676z" />
<glyph unicode="&#xae;" horiz-adv-x="1187" d="M29 541q0 113 44.5 215.5t119.5 176.5t180 117.5t221 43.5t221 -43.5t180 -117.5t119.5 -176.5t44.5 -215.5t-44.5 -215.5t-119.5 -176.5t-180 -117.5t-221 -43.5t-221 43.5t-180 117.5t-119.5 176.5t-44.5 215.5zM121 541q0 -128 64 -235t172.5 -167.5t236.5 -60.5 t236.5 60.5t172.5 167.5t64 235t-64 235t-172.5 167.5t-236.5 60.5t-236.5 -60.5t-172.5 -167.5t-64 -235zM377 225v621h266q217 0 217 -168q0 -80 -46 -120.5t-120 -45.5l162 -287h-108l-154 287h-127v-287h-90zM467 602h98h29.5h31.5t29.5 0.5t30 2.5t26 5t23.5 8.5t17 13 t12.5 18.5t3.5 24q0 28 -11 46t-33 25.5t-43.5 10t-55.5 2.5h-158v-156z" />
<glyph unicode="&#xb0;" horiz-adv-x="540" d="M66 713q0 83 58 142.5t142 59.5q86 0 145.5 -58.5t59.5 -143.5t-59.5 -144t-145.5 -59q-82 0 -141 59t-59 144zM121 713q0 -60 42.5 -104t102.5 -44q62 0 105 43q45 45 45 105t-44 102.5t-106 42.5q-63 0 -104 -41t-41 -104z" />
<glyph unicode="&#xb6;" horiz-adv-x="727" d="M0 858q0 153 94 229q91 66 248 66h389v-41h-102v-1356h-62v1356h-145v-1356h-55v805q-168 0 -263 62q-104 73 -104 235z" />
<glyph unicode="&#xb7;" horiz-adv-x="337" d="M96 449q0 31 21 51t53 20q30 0 51 -21.5t21 -49.5q0 -31 -21.5 -52.5t-50.5 -21.5q-32 0 -53 21t-21 53z" />
<glyph unicode="&#xbb;" horiz-adv-x="706" d="M74 162l219 295l-219 295l84 49l254 -344l-254 -344zM340 162l219 295l-219 295l84 49l254 -344l-254 -344z" />
<glyph unicode="&#xbc;" horiz-adv-x="1118" d="M72 989l55 92h172v-653h-96v561h-131zM143 -61l793 1224l80 -39l-793 -1224zM557 90l416 592v-510h71v-82h-71v-90h-96v90h-320zM725 172h152v217z" />
<glyph unicode="&#xbd;" horiz-adv-x="1118" d="M61 -61l793 1224l80 -39l-793 -1224zM72 989l55 92h172v-653h-96v561h-131zM618 0l289 356q56 69 56 109q0 47 -29.5 78.5t-83.5 31.5q-45 0 -77 -32t-36 -86h-102q12 101 68.5 156t146.5 55q96 0 152.5 -55.5t56.5 -143.5q0 -82 -49 -137l-197 -240h248v-92h-443z" />
<glyph unicode="&#xbe;" horiz-adv-x="1118" d="M39 590h96q9 -49 40.5 -75t74.5 -26q47 0 78.5 33.5t31.5 81.5q0 54 -35.5 84t-99.5 27v88q125 0 125 92q0 43 -28.5 70.5t-71.5 27.5q-78 0 -96 -90h-99q26 178 199 178q82 0 137 -49.5t55 -130.5q0 -92 -71 -141q82 -54 82 -160q0 -92 -60.5 -146.5t-152.5 -54.5 q-81 0 -139.5 51t-65.5 140zM184 -61l793 1224l80 -39l-793 -1224zM557 90l416 592v-510h71v-82h-71v-90h-96v90h-320zM725 172h152v217z" />
<glyph unicode="&#xd7;" horiz-adv-x="798" d="M111 152l217 217l-217 217l71 71l217 -217l217 217l72 -71l-217 -217l217 -217l-72 -72l-217 217l-217 -217z" />
<glyph unicode="&#xf7;" horiz-adv-x="798" d="M61 317v103h676v-103h-676zM313 109q0 35 25.5 60.5t60.5 25.5t60.5 -25.5t25.5 -60.5t-25.5 -60.5t-60.5 -25.5t-60.5 25.5t-25.5 60.5zM313 629q0 35 25.5 60.5t60.5 25.5t60.5 -25.5t25.5 -60.5t-25.5 -60.5t-60.5 -25.5t-60.5 25.5t-25.5 60.5z" />
<glyph unicode="&#xe00;" horiz-adv-x="204" />
<glyph unicode="&#xe01;" horiz-adv-x="819" d="M61 0v655q124 179 349 179q95 0 173 -31t126.5 -95t48.5 -151v-557h-123v541q0 86 -64 132t-161 46q-147 0 -226 -94v-625h-123z" />
<glyph unicode="&#xe02;" horiz-adv-x="757" d="M41 324q0 96 52.5 178t127.5 129l-102 137l100 63l158 -200q-110 -81 -161.5 -151.5t-51.5 -155.5q0 -97 60 -161.5t157 -64.5q84 0 138 51t54 127v543h123v-543q0 -126 -88.5 -208t-226.5 -82q-146 0 -243 96t-97 242z" />
<glyph unicode="&#xe03;" horiz-adv-x="757" d="M14 745l72 84q60 -24 104 -73l68 63h104v-248q-198 -93 -198 -254q0 -96 60.5 -157.5t156.5 -61.5q84 0 138 51t54 127v543h123v-543q0 -126 -88.5 -208t-226.5 -82q-147 0 -243.5 93t-96.5 238q0 177 199 299v52l-62 -54q-8 9 -22 24t-56.5 50t-85.5 57z" />
<glyph unicode="&#xe04;" horiz-adv-x="819" d="M61 0v553q0 121 104 201t245 80t244.5 -80t103.5 -201v-553h-123v553q0 75 -66.5 120.5t-158.5 45.5t-159 -45.5t-67 -120.5v-80h258v-115h-258v-358h-123z" />
<glyph unicode="&#xe05;" horiz-adv-x="860" d="M61 0v567q0 110 73.5 188.5t197.5 78.5l98 -95l98 95q124 0 197.5 -78.5t73.5 -188.5v-567h-123v567q0 52 -28 96t-73 56l-145 -144l-145 144q-45 -12 -73 -56t-28 -96v-94h279v-115h-279v-358h-123z" />
<glyph unicode="&#xe06;" horiz-adv-x="829" d="M-25 748l80 81q55 -25 90 -69l76 59h103v-188q0 -30 -20 -55.5t-44.5 -41.5t-44.5 -41.5t-20 -54.5v-157q0 -75 76.5 -129t168.5 -54q88 0 146.5 45t58.5 119v557h123v-557q0 -123 -94 -199.5t-234 -76.5q-64 0 -129.5 20.5t-115.5 56.5v-63h-123v463q0 31 20 57 t44.5 41.5t44.5 37t20 44.5v25l-70 -54q-7 9 -19 23t-52.5 50t-84.5 61z" />
<glyph unicode="&#xe07;" horiz-adv-x="774" d="M0 662l121 36l168 -589q150 -3 241 79.5t91 229.5q0 152 -96.5 233t-288.5 66v112q253 20 380 -90.5t127 -320.5q0 -217 -148.5 -329.5t-406.5 -86.5z" />
<glyph unicode="&#xe08;" horiz-adv-x="802" d="M-20 670q88 86 180 125t209 39q184 0 293.5 -113.5t109.5 -294.5q0 -96 -36 -178.5t-101.5 -141t-163.5 -89t-215 -23.5l-98 409h-90v115h188l98 -412q131 9 213 99.5t82 220.5q0 127 -79 210t-205 83q-84 0 -151.5 -30.5t-133.5 -94.5z" />
<glyph unicode="&#xe09;" horiz-adv-x="808" d="M10 352v115h185v-201q0 -75 54 -120.5t134 -45.5q88 0 165 54t77 129v262q0 77 -68 125.5t-158 48.5q-82 0 -153 -38t-94 -110h-123q28 122 134.5 191t235.5 69q144 0 246.5 -80t102.5 -206v-545h-123v82q-94 -94 -248 -94q-135 0 -220 76.5t-85 201.5v86h-62z" />
<glyph unicode="&#xe0a;" horiz-adv-x="755" d="M61 35v784h123v-700q78 -23 150 -21q123 3 195.5 65t72.5 161q0 107 -80.5 177.5t-234.5 96.5l270 231l100 -55l-149 -135q217 -95 217 -315q0 -147 -103 -240t-290 -96q-68 -1 -136 11t-102 24z" />
<glyph unicode="&#xe0b;" horiz-adv-x="786" d="M-23 748l78 81q64 -38 90 -69l76 59h103v-176q0 -28 -17 -53.5t-37.5 -41t-37.5 -38.5t-17 -47v-344q78 -23 150 -21q125 3 196.5 63.5t71.5 162.5q0 222 -305 276l260 229l100 -55l-149 -135q217 -95 217 -315q0 -147 -103.5 -240t-290.5 -96q-68 -1 -135.5 11 t-100.5 24l-34 12v440q0 30 17 55t37.5 40t37.5 36.5t17 44.5v21l-70 -54q-5 8 -16 20.5t-51 47t-87 62.5z" />
<glyph unicode="&#xe0c;" horiz-adv-x="1351" d="M61 0v655q124 179 349 179q95 0 173 -31t126.5 -95t48.5 -151v-274q0 -76 69.5 -129.5t155.5 -53.5q84 0 134 45t50 121v553h123v-553q0 -126 -82.5 -203t-214.5 -77q-62 0 -126.5 27t-108.5 69v-82h-123v539q0 87 -63.5 133.5t-161.5 46.5q-148 0 -226 -96v-510h123 v-113h-246z" />
<glyph unicode="&#xe0d;" horiz-adv-x="1351" d="M61 0v655q124 179 349 179q95 0 173 -31t126.5 -95t48.5 -151v-76q0 -147 196 -147q92 0 152.5 48.5t60.5 125.5v311h123v-506q0 -159 -92 -243t-250 -84q-195 0 -317 108l82 90q41 -40 101 -64t124 -24q106 0 167.5 53.5t61.5 151.5q-26 -29 -90.5 -53.5t-134.5 -24.5 q-135 0 -221 62t-86 186v68q0 87 -63.5 133.5t-161.5 46.5q-148 0 -226 -96v-510h123v-113h-246z" />
<glyph unicode="&#xe0e;" horiz-adv-x="839" d="M0 0v117h82v536q124 181 348 181q147 0 247.5 -74.5t100.5 -208.5v-879h-123l-174 129l-174 -129h-307v117h281l202 141l172 -120v725q0 88 -63.5 135t-161.5 47q-147 0 -225 -96v-621h-205z" />
<glyph unicode="&#xe0f;" horiz-adv-x="839" d="M0 0v115h82v540q124 179 348 179q147 0 247.5 -74t100.5 -205v-883h-123l-106 101l-115 -111l-112 113l-111 -103h-211v115h174l150 131l110 -115l113 115l108 -98v719q0 87 -63.5 133.5t-161.5 46.5q-147 0 -225 -96v-623h-205z" />
<glyph unicode="&#xe10;" horiz-adv-x="792" d="M-31 662q88 86 180 124.5t209 38.5q105 0 183 -37l92 103l102 -68l-92 -102q119 -113 119 -303q0 -95 -36 -177t-101.5 -141t-163.5 -89t-215 -23l-101 420h-88v104h189l98 -412q131 9 213 99t82 219q0 128 -79 210.5t-206 82.5q-84 0 -151 -30t-133 -95zM0 -213h170 l145 125l111 -109l113 109l102 -90v100l-31 41h154v-291h-123l-100 99l-115 -109l-113 111l-108 -101h-205v115z" />
<glyph unicode="&#xe11;" horiz-adv-x="839" d="M-14 748l80 81q54 -31 90 -67l75 57h103v-180q0 -23 -13.5 -42.5t-32 -35t-37.5 -31t-32.5 -36.5t-13.5 -45v-187l313 563q123 0 191.5 -64.5t68.5 -168.5v-592h-123v594q0 40 -20.5 74t-50.5 43l-391 -711h-111v467q0 34 20 61.5t44.5 42.5t44.5 36t20 44v21l-70 -49 q-59 68 -155 125z" />
<glyph unicode="&#xe12;" horiz-adv-x="1396" d="M31 395q1 165 95.5 292.5t219.5 146.5l105 -101l94 92q119 0 188.5 -76t69.5 -190v-276q0 -76 69.5 -129.5t155.5 -53.5q84 0 134 45t50 121v553h123v-553q0 -126 -82.5 -203t-214.5 -77q-62 0 -126.5 27t-108.5 69v-82h-123v559q0 53 -24.5 97t-63.5 57l-139 -138 l-146 134q-55 -32 -102.5 -118t-50.5 -196q-3 -123 45 -207t147 -84q73 0 121 62l90 -74q-31 -48 -85.5 -75t-123.5 -27q-153 0 -236 109.5t-81 295.5z" />
<glyph unicode="&#xe13;" horiz-adv-x="1351" d="M61 0v655q124 179 349 179q95 0 173 -31t126.5 -95t48.5 -151v-291q0 -76 50 -121t134 -45q86 0 155.5 53.5t69.5 129.5v536h123v-819h-123v82q-44 -42 -108.5 -69t-126.5 -27q-132 0 -214.5 77t-82.5 203v273q0 87 -63.5 133.5t-161.5 46.5q-148 0 -226 -96v-510h123 v-113h-246z" />
<glyph unicode="&#xe14;" horiz-adv-x="823" d="M31 389q2 181 118 313t287 132q231 0 326 -177v-657h-123v618q-62 101 -193 101q-128 0 -208.5 -100t-83.5 -230q-2 -75 17.5 -138.5t64.5 -105t110 -41.5q68 0 117 58l86 -76q-38 -45 -83.5 -70.5t-119.5 -25.5q-154 0 -235.5 108.5t-79.5 290.5z" />
<glyph unicode="&#xe15;" horiz-adv-x="864" d="M31 395q1 165 95.5 292.5t219.5 146.5l105 -101l94 92q119 0 188.5 -76t69.5 -190v-559h-123v559q0 53 -24.5 97t-63.5 57l-139 -138l-146 134q-55 -32 -102.5 -118t-50.5 -196q-3 -123 45 -207t147 -84q73 0 121 62l90 -74q-31 -48 -85.5 -75t-123.5 -27 q-153 0 -236 109.5t-81 295.5z" />
<glyph unicode="&#xe16;" horiz-adv-x="819" d="M61 0v655q124 179 349 179q95 0 173 -31t126.5 -95t48.5 -151v-557h-123v541q0 86 -64 132t-161 46q-147 0 -226 -94v-510h123v-115h-246z" />
<glyph unicode="&#xe17;" horiz-adv-x="819" d="M61 0v819h123v-84q110 99 254 99q139 0 229.5 -77.5t90.5 -207.5v-549h-123v535q0 84 -55.5 134t-145.5 50q-91 0 -170.5 -53.5t-79.5 -128.5v-537h-123z" />
<glyph unicode="&#xe18;" horiz-adv-x="753" d="M37 621q0 90 101 150t227 60t226.5 -64t127.5 -173h-133q-25 57 -91 90t-139 33q-70 0 -130 -27t-60 -63q0 -17 18 -30.5t50.5 -22.5t65 -15t73.5 -13q13 -2 20 -3q332 -51 332 -285q0 -126 -110 -197t-271 -71q-68 0 -141.5 11t-112.5 23l-39 11v364l123 39v-315 q83 -23 166 -23q104 0 182 39.5t78 118.5q0 52 -36 90t-84 55.5t-109 26.5q-159 28 -213 48q-120 46 -121 143z" />
<glyph unicode="&#xe19;" horiz-adv-x="819" d="M61 270v549h123v-534q0 -84 55.5 -134.5t145.5 -50.5q91 0 170.5 54t79.5 129v536h123v-819h-123v84q-109 -98 -254 -98q-141 0 -230.5 77t-89.5 207z" />
<glyph unicode="&#xe1a;" horiz-adv-x="819" d="M61 266v553h123v-553q0 -75 67 -120.5t159 -45.5t158.5 45.5t66.5 120.5v553h123v-553q0 -121 -103 -200.5t-245 -79.5t-245.5 79.5t-103.5 200.5z" />
<glyph unicode="&#xe1b;" horiz-adv-x="819" d="M61 266v553h123v-553q0 -75 67 -120.5t159 -45.5t158.5 45.5t66.5 120.5v819h123v-819q0 -121 -103 -200.5t-245 -79.5t-245.5 79.5t-103.5 200.5z" />
<glyph unicode="&#xe1c;" horiz-adv-x="1058" d="M0 819h270v-114h-114l123 -459l196 573h109l196 -573l154 573h125l-219 -819h-99l-213 618l-213 -618h-96z" />
<glyph unicode="&#xe1d;" horiz-adv-x="1058" d="M0 819h270v-114h-114l123 -459l196 573h109l196 -573l226 839h124l-290 -1085h-99l-213 618l-213 -618h-96z" />
<glyph unicode="&#xe1e;" horiz-adv-x="1058" d="M0 819h125l154 -573l196 573h109l196 -573l154 573h125l-219 -819h-99l-213 618l-213 -618h-96z" />
<glyph unicode="&#xe1f;" horiz-adv-x="1058" d="M0 819h125l154 -573l196 573h109l196 -573l226 839h124l-290 -1085h-99l-213 618l-213 -618h-96z" />
<glyph unicode="&#xe20;" horiz-adv-x="839" d="M0 0v115h82v540q124 179 348 179q95 0 173 -31t126.5 -95t48.5 -151v-557h-123v541q0 86 -64 132t-161 46q-146 0 -225 -94v-625h-205z" />
<glyph unicode="&#xe21;" horiz-adv-x="819" d="M61 0v819h123v-536q0 -75 79.5 -129t170.5 -54q90 0 145.5 50.5t55.5 134.5v534h123v-549q0 -130 -89.5 -207t-230.5 -77q-145 0 -254 98v-84h-123z" />
<glyph unicode="&#xe22;" horiz-adv-x="817" d="M31 264q0 71 44.5 128.5t100.5 82.5q-52 16 -89.5 59.5t-37.5 96.5q0 85 75 141.5t185 56.5q69 0 133 -22v-113q-100 21 -131 21q-57 0 -96 -22t-39 -62q0 -32 26 -53t60 -29t74 -8h106v-115h-88q-74 0 -135 -45t-61 -115q0 -75 69.5 -119.5t184.5 -44.5t221 68v649h123 v-696q-4 -5 -12.5 -14.5t-39.5 -32.5t-67 -41t-97 -32.5t-128 -14.5q-182 0 -281.5 78t-99.5 198z" />
<glyph unicode="&#xe23;" horiz-adv-x="772" d="M31 289h123q0 -97 67.5 -144t165.5 -47q90 0 157.5 41.5t67.5 110.5q0 34 -19 58t-54 37.5t-70 20.5t-82 11q-57 6 -99.5 12.5t-90.5 21.5t-78 35.5t-50 54.5t-20 79q0 104 98.5 176.5t229.5 72.5q137 0 234.5 -62.5t115.5 -172.5h-129q-21 59 -79.5 90t-141.5 31 q-78 0 -139.5 -37t-61.5 -84q0 -27 20 -46.5t57.5 -30.5t73.5 -16t85 -9q64 -4 117.5 -17t102 -38.5t76 -70.5t27.5 -106q0 -128 -102.5 -202t-249.5 -74q-94 0 -172 32t-129 103t-51 170z" />
<glyph unicode="&#xe24;" horiz-adv-x="819" d="M61 0v655q124 179 349 179q95 0 173 -31t126.5 -95t48.5 -151v-864h-123v848q0 86 -64 132t-161 46q-147 0 -226 -94v-510h123v-115h-246z" />
<glyph unicode="&#xe25;" horiz-adv-x="837" d="M31 258q0 128 97 212.5t255 84.5q84 0 156 -26.5t114 -65.5v147q-19 44 -80 76.5t-131 32.5q-83 0 -147.5 -33t-95.5 -92h-131q39 115 137.5 177.5t234.5 62.5q129 0 220 -60t116 -141v-633h-123v309q-30 57 -104 95t-160 38q-103 0 -169 -51.5t-66 -132.5 q0 -71 46.5 -112.5t112.5 -41.5q74 0 133 37l72 -88q-76 -63 -205 -63q-123 0 -202.5 72.5t-79.5 195.5z" />
<glyph unicode="&#xe26;" horiz-adv-x="839" d="M0 0v115h82v540q124 179 348 179q95 0 173 -31t126.5 -95t48.5 -151v-864h-123v848q0 86 -64 132t-161 46q-146 0 -225 -94v-625h-205z" />
<glyph unicode="&#xe27;" horiz-adv-x="776" d="M31 254h125q30 -74 89.5 -114t131.5 -40q80 0 137.5 46t83 114.5t25.5 149.5t-25.5 149.5t-83 114t-137.5 45.5q-70 0 -130 -40.5t-87 -113.5h-129q36 125 132 197t214 72q116 0 201 -59.5t126 -154t41 -210.5t-41 -210.5t-126 -154t-201 -59.5q-118 0 -214 71.5 t-132 196.5z" />
<glyph unicode="&#xe28;" horiz-adv-x="819" d="M61 0v549q0 79 49.5 143.5t129 98.5t170.5 34q82 0 147 -26l80 92l98 -68l-71 -82q94 -81 94 -192v-549h-123v549q0 74 -66.5 119t-158.5 45t-159 -45t-67 -119v-80h258v-115h-258v-354h-123z" />
<glyph unicode="&#xe29;" horiz-adv-x="829" d="M61 266v553h123v-553q0 -75 67 -120.5t159 -45.5t158.5 45.5t66.5 120.5v109h-238v155l62 -41h176v330h123v-330h82v-114h-82v-109q0 -121 -103.5 -200.5t-244.5 -79.5t-245 79.5t-104 200.5z" />
<glyph unicode="&#xe2a;" horiz-adv-x="837" d="M31 258q0 128 97 212.5t255 84.5q84 0 156 -26.5t114 -65.5v147q-19 44 -80 76.5t-131 32.5q-83 0 -147.5 -33t-95.5 -92h-131q39 115 137.5 177.5t234.5 62.5q86 0 158 -29l78 86l100 -68l-74 -82q56 -50 74 -108v-633h-123v309q-30 57 -104 95t-160 38 q-103 0 -169 -51.5t-66 -132.5q0 -71 46.5 -112.5t112.5 -41.5q74 0 133 37l72 -88q-76 -63 -205 -63q-123 0 -202.5 72.5t-79.5 195.5z" />
<glyph unicode="&#xe2b;" horiz-adv-x="829" d="M61 0v819h123v-272l420 282l139 -36l-186 -129q100 -19 160.5 -82t60.5 -152v-430h-123v410q0 77 -64 127.5t-153 50.5l-254 -176v-412h-123z" />
<glyph unicode="&#xe2c;" horiz-adv-x="1058" d="M0 819h125l154 -573l196 573h109l196 -573l82 305q19 71 -9 116.5t-99 45.5h-70v106h113q71 0 108.5 18.5t50.5 67.5l33 119h125l-45 -168q-23 -90 -123 -123q33 -25 47 -67t2 -84l-155 -582h-99l-213 618l-213 -618h-96z" />
<glyph unicode="&#xe2d;" horiz-adv-x="892" d="M31 410q0 57 8 96h321v-115h-206q6 -127 86.5 -209t205.5 -82q129 0 211 87.5t82 222.5q0 134 -80.5 221.5t-212.5 87.5q-172 0 -258 -156h-133q55 133 155 202t236 69q186 0 301 -119t115 -305t-115 -305t-301 -119t-300.5 119t-114.5 305z" />
<glyph unicode="&#xe2e;" horiz-adv-x="892" d="M31 410q0 57 8 96h321v-115h-206q6 -127 86.5 -209t205.5 -82q129 0 211 87.5t82 222.5q0 134 -80.5 221.5t-212.5 87.5q-172 0 -258 -156h-133q55 133 155 202t236 69q102 0 185 -39l84 96l94 -64l-82 -94q135 -119 135 -323q0 -186 -115 -305t-301 -119t-300.5 119 t-114.5 305z" />
<glyph unicode="&#xe2f;" horiz-adv-x="792" d="M20 676q0 78 74 143h160q-36 -16 -68 -58t-32 -79q0 -45 39 -71.5t102 -26.5q122 0 197 42.5t106 88.5v104h123v-819h-123v569q-132 -94 -299 -94q-138 0 -208.5 57t-70.5 144z" />
<glyph unicode="&#xe30;" horiz-adv-x="307" d="M31 102v136h123v-58h133v-78h-256zM31 582v135h123v-58h133v-77h-256z" />
<glyph unicode="&#xe31;" d="M-358 922v184h122v-82h431v-102h-553z" />
<glyph unicode="&#xe32;" horiz-adv-x="579" d="M10 662v129q77 43 193 43q155 0 235 -83.5t80 -211.5v-539h-123v506q0 96 -51 154.5t-147 58.5q-100 0 -187 -57z" />
<glyph unicode="&#xe33;" horiz-adv-x="579" d="M-240 1028q0 44 34 75.5t83 31.5t83 -31.5t34 -75.5t-34 -75t-83 -31t-83 31t-34 75zM-170 1028q0 -17 14 -30t33 -13t33 13t14 30t-14 30t-33 13t-33 -13t-14 -30zM10 662v129q77 43 193 43q155 0 235 -83.5t80 -211.5v-539h-123v506q0 96 -51 154.5t-147 58.5 q-100 0 -187 -57z" />
<glyph unicode="&#xe34;" d="M-696 922v102h635v-102h-635z" />
<glyph unicode="&#xe35;" d="M-696 922v102h512v102h123v-204h-635z" />
<glyph unicode="&#xe36;" d="M-696 922v102h456v4q0 44 34 75.5t83 31.5t83 -31.5t34 -75.5t-34 -75t-83 -31h-573zM-170 1028q0 -17 14 -30t33 -13t33 13t14 30t-14 30t-33 13t-33 -13t-14 -30z" />
<glyph unicode="&#xe37;" d="M-696 922v102h348v102h102v-102h62v102h123v-204h-635z" />
<glyph unicode="&#xe38;" d="M-266 -82h205v-246h-123v144h-82v102z" />
<glyph unicode="&#xe39;" d="M-471 -82h184v-143q22 -13 47 -13q56 0 56 39v117h123v-123q0 -56 -53 -89.5t-126 -33.5q-108 0 -170 68v82h-61v96z" />
<glyph unicode="&#xe3a;" d="M-205 -164q0 34 24 58t58 24t58 -24t24 -58t-24 -58t-58 -24t-58 24t-24 58z" />
<glyph unicode="&#xe3f;" horiz-adv-x="743" d="M80 0v1081h147q49 0 74 -2v154h70v-164q239 -48 239 -285q0 -135 -102 -204q86 -20 142.5 -100.5t56.5 -176.5q0 -75 -27.5 -133t-75.5 -93.5t-106.5 -54.5t-126.5 -22v-160h-70v160h-221zM211 121h119q248 0 248 190q0 52 -22 90t-60 58t-78 28.5t-86 8.5h-121v-375z M211 602h51q52 0 89 7t70.5 25t50.5 55t17 93q0 54 -17.5 91t-50.5 55.5t-69.5 25.5t-85.5 7h-55v-359z" />
<glyph unicode="&#xe40;" horiz-adv-x="286" d="M82 0v819h123v-819h-123z" />
<glyph unicode="&#xe41;" horiz-adv-x="512" d="M82 0v819h123v-819h-123zM307 0v819h123v-819h-123z" />
<glyph unicode="&#xe42;" horiz-adv-x="307" d="M-45 1137q0 63 49 98t125 35h283v-117h-291q-37 0 -37 -18q0 -13 14.5 -26t35 -27.5t41.5 -33t35.5 -52.5t14.5 -78v-918h-123v903q0 33 -15 60.5t-36.5 46t-43.5 36t-37 41t-15 50.5z" />
<glyph unicode="&#xe43;" horiz-adv-x="307" d="M-121 1061q0 97 67 158t163 61q95 0 158 -52.5t63 -125.5q0 -28 -11 -50.5t-26 -38t-30.5 -31t-26.5 -38t-11 -49.5v-895h-123v915q0 38 16.5 66t36 41t36 32.5t16.5 43.5q0 31 -27.5 51t-70.5 20q-47 0 -77 -27.5t-30 -80.5h-123z" />
<glyph unicode="&#xe44;" horiz-adv-x="307" d="M-127 1184l78 86l119 -105l118 95l146 -166q-46 -37 -77.5 -99t-31.5 -133v-862h-123v842q0 130 103 229l-35 37l-102 -86z" />
<glyph unicode="&#xe45;" horiz-adv-x="579" d="M10 662v129q77 43 193 43q155 0 235 -83.5t80 -211.5v-846h-123v813q0 96 -51 154.5t-147 58.5q-100 0 -187 -57z" />
<glyph unicode="&#xe46;" horiz-adv-x="817" d="M31 434v144q0 116 71.5 183.5t194.5 67.5l96 -81l96 81q123 0 195 -67.5t72 -183.5v-885h-123v885q0 112 -96 139l-142 -121l-145 121q-96 -27 -96 -139v-27h168v-117h-291z" />
<glyph unicode="&#xe47;" d="M-678 922v79q0 87 60 138t172 51h383v-82h-377q-54 0 -84.5 -23t-30.5 -55v-6h88l111 57l108 -57h119v-102h-125l-102 59l-103 -59h-219z" />
<glyph unicode="&#xe48;" d="M-184 1188v184h123v-184h-123z" />
<glyph unicode="&#xe49;" d="M-311 1305v77h80q47 0 70.5 -20.5t23.5 -54.5v-23h246v-96h-363v76q0 41 -41 41h-16z" />
<glyph unicode="&#xe4a;" d="M-328 1188v94q0 54 34 83.5t87 29.5h39l72 -56l69 56h35q53 0 85 -25.5t32 -77.5v-16h117v-88h-222v100q0 31 -22 31l-94 -72l-97 72q-14 0 -22 -9t-8 -24v-18h59v-80h-164z" />
<glyph unicode="&#xe4b;" d="M-270 1264v86h92v75h110v-75h93v-86h-93v-76h-110v76h-92z" />
<glyph unicode="&#xe4c;" d="M-256 1106v35q0 57 36.5 84.5t96.5 27.5h100v-77h-55q-61 0 -61 -50v-20h-117z" />
<glyph unicode="&#xe4d;" d="M-240 1028q0 44 34 75.5t83 31.5t83 -31.5t34 -75.5t-34 -75t-83 -31t-83 31t-34 75zM-170 1028q0 -17 14 -30t33 -13t33 13t14 30t-14 30t-33 13t-33 -13t-14 -30z" />
<glyph unicode="&#xe4e;" d="M-547 1044q0 53 46.5 94t121.5 56q-39 24 -39 80q0 90 117.5 142t294.5 34v-107q-66 12 -131.5 9.5t-113.5 -24.5t-48 -56q0 -49 94 -41v-96q-73 7 -149 -16t-76 -64q0 -34 52 -36t112 30l49 -84q-76 -42 -154 -43.5t-127 32.5t-49 90z" />
<glyph unicode="&#xe4f;" horiz-adv-x="962" d="M61 410q0 173 123.5 296t296.5 123t296.5 -123t123.5 -296t-123.5 -296.5t-296.5 -123.5t-296.5 123.5t-123.5 296.5zM123 410q0 -148 105 -253.5t253 -105.5t253.5 105.5t105.5 253.5t-105.5 253t-253.5 105t-253 -105t-105 -253zM225 410q0 106 75 181t181 75t181 -75 t75 -181t-75 -181t-181 -75t-181 75t-75 181z" />
<glyph unicode="&#xe50;" horiz-adv-x="761" d="M31 307q0 132 102.5 226t247.5 94t247.5 -94t102.5 -226t-102.5 -225.5t-247.5 -93.5t-247.5 93.5t-102.5 225.5zM147 307q0 -88 67.5 -149.5t164.5 -61.5t164 61.5t67 149.5t-67 149.5t-164 61.5t-164.5 -61.5t-67.5 -149.5z" />
<glyph unicode="&#xe51;" horiz-adv-x="811" d="M31 328q0 131 110 215t256 84q163 0 273 -86.5t110 -229.5q0 -78 -38.5 -148t-101 -120t-139.5 -83t-157 -44l-59 104q155 16 263.5 96.5t108.5 194.5q0 93 -75 150t-183 57q-100 0 -172.5 -53.5t-72.5 -136.5q0 -47 29 -88t77 -54q-29 41 -29 90q0 62 48.5 106t115.5 44 t115.5 -44t48.5 -106q0 -86 -76.5 -145t-187.5 -59q-117 0 -190.5 73.5t-73.5 182.5zM332 276q0 -23 18 -39t45 -16q28 0 46 16t18 39t-18.5 39.5t-45.5 16.5t-45 -16t-18 -40z" />
<glyph unicode="&#xe52;" horiz-adv-x="1148" d="M-164 803l96 74q81 -74 145.5 -168.5t96.5 -190.5q59 -169 84 -405h707v319q0 41 -28.5 65.5t-66.5 24.5q-62 0 -100 -55v-291h-123v295q-45 51 -112 51q-50 0 -85 -26t-40 -64q2 0 9 1t15 1q61 0 104.5 -39.5t43.5 -95.5q0 -55 -44 -94t-104 -39q-61 0 -104 38.5 t-43 94.5v117q0 94 73.5 156.5t174.5 62.5q100 0 174 -60q70 60 161 60q89 0 153 -53.5t64 -139.5v-442h-942q-13 157 -32 266t-56 215q-61 178 -221 322zM379 299q0 -22 15.5 -36.5t39.5 -14.5q23 0 39 14.5t16 36.5q0 21 -16 36t-39 15q-24 0 -39.5 -15t-15.5 -36z" />
<glyph unicode="&#xe53;" horiz-adv-x="964" d="M61 137v281q0 91 79 154t179 63q111 0 185 -60q78 60 172 60q89 0 158 -53.5t69 -137.5v-444h-123v434q0 42 -31 65t-73 23q-72 0 -111 -53v-469h-123v473q-43 49 -123 49q-50 0 -92.5 -30t-42.5 -74v-137q18 6 41 6q67 0 115.5 -44t48.5 -106q0 -61 -48 -104t-116 -43 t-116 43t-48 104zM162 137q0 -23 18 -39t45 -16q28 0 46 16t18 39t-18.5 39.5t-45.5 16.5t-45 -16t-18 -40z" />
<glyph unicode="&#xe54;" horiz-adv-x="872" d="M31 289q-3 139 104.5 232t257.5 93h283q28 0 46.5 20t26 59t9.5 71t2 80h123q2 -92 -16.5 -166.5t-67.5 -125t-123 -50.5h-283q-100 0 -171 -59.5t-68 -153.5q3 -91 68.5 -142t154.5 -51q31 0 125 17q-72 65 -72 143q0 67 49 112.5t117 45.5t116 -44.5t48 -107.5 q0 -79 -74 -127q19 0 31 -2q109 -18 168 -70l-74 -88q-81 48 -172 48q-35 0 -116.5 -17.5t-153.5 -17.5q-139 0 -237 78t-101 223zM532 262q0 -23 18 -39t46 -16q27 0 45 16t18 39t-18 39t-45 16q-28 0 -46 -16t-18 -39z" />
<glyph unicode="&#xe55;" horiz-adv-x="872" d="M31 289q-3 114 70.5 198t187.5 113q-23 37 -23 72q0 64 51 108.5t121 44.5q71 0 121.5 -43.5t50.5 -109.5q0 -34 -16 -58h82q19 0 33.5 9t23.5 28.5t14.5 37.5t8 50.5t3 50.5l1.5 54h123q1 -67 -10 -125.5t-34 -108.5t-65 -79t-98 -29h-283q-100 0 -171 -59.5t-68 -153.5 q3 -91 68.5 -142t154.5 -51q31 0 125 17q-72 65 -72 143q0 67 49 112.5t117 45.5t116 -44.5t48 -107.5q0 -79 -74 -127q19 0 31 -2q109 -18 168 -70l-74 -88q-81 48 -172 48q-35 0 -116.5 -17.5t-153.5 -17.5q-139 0 -237 78t-101 223zM377 672q0 -25 17.5 -41.5t43.5 -16.5 t44 16.5t18 41.5q0 22 -18 39.5t-44 17.5t-43.5 -17.5t-17.5 -39.5zM532 262q0 -23 18 -39t46 -16q27 0 45 16t18 39t-18 39t-45 16q-28 0 -46 -16t-18 -39z" />
<glyph unicode="&#xe56;" horiz-adv-x="819" d="M-111 774l93 70q152 -118 200 -271q106 62 238 62q156 0 262 -90.5t106 -229.5q0 -143 -111 -236t-274 -93q-150 0 -247 76t-97 176q0 65 48.5 108t117.5 43q68 0 116 -44t48 -105q0 -81 -76 -127q41 -15 90 -15q109 0 186 60.5t77 156.5q0 89 -72.5 147t-173.5 58 q-133 0 -242 -98l-98 24q-20 104 -64 178.5t-127 149.5zM162 240q0 -24 18 -41t45 -17t45.5 17t18.5 41q0 26 -18 41.5t-46 15.5t-45.5 -15.5t-17.5 -41.5z" />
<glyph unicode="&#xe57;" horiz-adv-x="1198" d="M61 139v277q0 92 79 155.5t179 63.5q111 0 185 -60q78 60 172 60q90 0 158.5 -54t68.5 -139v-336q38 0 74.5 25.5t36.5 71.5v413q0 129 127 228l98 -70q-44 -26 -73 -71t-29 -95v-399q0 -104 -97 -164t-260 -53v440q0 42 -31.5 66t-72.5 24q-71 0 -111 -55v-467h-123v471 q-45 51 -123 51q-50 0 -92.5 -30.5t-42.5 -75.5v-131q24 4 41 4q67 0 115.5 -44t48.5 -106q0 -63 -48 -106t-116 -43t-116 43t-48 106zM162 139q0 -23 18 -39t45 -16q28 0 46 16t18 39t-18.5 39.5t-45.5 16.5t-45 -16t-18 -40z" />
<glyph unicode="&#xe58;" horiz-adv-x="899" d="M31 291q0 153 124.5 244.5t305.5 91.5q127 0 225 -23q58 98 72 240l119 -19q-25 -202 -140 -350q-124 43 -256 43q-144 0 -235.5 -66t-91.5 -161q0 -62 39 -112t81 -64l138 129l188 -152l53 31q-42 14 -68 45.5t-26 71.5q0 57 44 98t106 41q61 0 105 -43t44 -100 q0 -129 -276 -256l-168 131l-127 -131q-106 27 -181 108.5t-75 202.5zM653 240q0 -22 16 -36t40 -14q23 0 39 14t16 36q0 23 -16 38t-39 15q-24 0 -40 -15t-16 -38z" />
<glyph unicode="&#xe59;" horiz-adv-x="962" d="M31 317q0 138 99 230t241 92q134 0 235 -88q26 40 67.5 64t92.5 24q45 0 94 -27q30 99 14 232h125q13 -116 -19.5 -225t-88.5 -166l-64 18q-3 27 -22 40t-39 13q-28 0 -47.5 -22.5t-22.5 -50.5q112 -173 144 -445l-123 -16q-10 83 -24.5 151t-41.5 142t-63 124.5 t-92 83.5t-125 33q-92 0 -154.5 -60t-62.5 -149q0 -64 28 -117t66 -77q-10 23 -10 49q0 63 47.5 107.5t115.5 44.5t116 -44.5t48 -107.5q0 -80 -67.5 -131t-155.5 -51q-100 0 -172.5 47.5t-105.5 120.5t-33 161zM340 170q0 -24 17.5 -40.5t43.5 -16.5t44 17t18 40 q0 25 -18 41t-44 16t-43.5 -16t-17.5 -41z" />
<glyph unicode="&#xe5a;" horiz-adv-x="1007" d="M20 676q0 73 74 143h160q-35 -12 -67.5 -56t-32.5 -81q0 -50 43 -74t98 -24q93 0 174 31.5t129 99.5v104h123v-170q71 38 102 86v84h123v-819h-123v590q-76 -49 -102 -58v-532h-123v569q-133 -94 -299 -94q-52 0 -98.5 10t-88.5 32t-67 63t-25 96z" />
<glyph unicode="&#xe5b;" horiz-adv-x="1499" d="M61 416q0 46 9.5 94.5t30 95.5t49.5 84t72.5 59.5t94.5 22.5q99 0 159.5 -79t60.5 -181q0 -47 -13 -90.5t-46.5 -77t-82.5 -33.5q-55 0 -89 42.5t-34 97.5q0 68 42 107.5t108 27.5q-8 39 -36.5 66.5t-66.5 27.5q-43 0 -75.5 -28.5t-48.5 -73.5t-23.5 -88t-7.5 -82 q0 -48 10 -92t31 -83.5t59 -63.5t88 -24q51 0 94 26t71.5 65t50 91.5t33 99t17.5 93.5q10 86 58 86q68 0 104 -176q3 11 5 41.5t5 53.5t14 42t30 19q56 0 102 -129q0 75 24 88q7 4 15 4q52 0 96 -109q0 1 2 9.5t2.5 11t3 11t4 12l4.5 10.5t6 10l7 7t9 5.5t11 1.5 q26 0 72 -69q13 38 41 38q18 0 46 -1.5t78 -6t83 -16t33 -29.5q0 -13 -21 -23t-55 -15t-64 -7.5t-59.5 -4t-30.5 -1.5q-17 -55 -47 -55q-11 0 -21.5 13.5t-21.5 34.5t-16 27q-3 -20 -8.5 -40.5t-20 -40t-33.5 -19.5q-5 0 -10 2.5t-10.5 7t-10 10t-9.5 13.5t-8.5 14t-8 14.5 t-7 13.5t-6 13t-4.5 10q-19 -120 -67 -120q-16 0 -29.5 24.5t-26.5 66.5t-14 44q-1 -3 -4.5 -18t-5.5 -22t-6 -23t-8 -24.5t-10 -21.5t-12 -20.5t-14 -15.5t-17.5 -11.5t-20.5 -3.5q-23 0 -37 29t-23.5 77t-13.5 58q-13 -54 -33 -103.5t-51 -97.5t-69 -83t-89.5 -56 t-109.5 -21q-57 0 -104 21t-79 56t-54 81t-32 96.5t-10 102.5zM344 453q0 -27 14 -45.5t35 -18.5t35 18.5t14 45.5t-14 45t-35 18t-35 -18t-14 -45z" />
<glyph unicode="&#x2000;" horiz-adv-x="799" />
<glyph unicode="&#x2001;" horiz-adv-x="1599" />
<glyph unicode="&#x2002;" horiz-adv-x="799" />
<glyph unicode="&#x2003;" horiz-adv-x="1599" />
<glyph unicode="&#x2004;" horiz-adv-x="533" />
<glyph unicode="&#x2005;" horiz-adv-x="399" />
<glyph unicode="&#x2006;" horiz-adv-x="266" />
<glyph unicode="&#x2007;" horiz-adv-x="266" />
<glyph unicode="&#x2008;" horiz-adv-x="199" />
<glyph unicode="&#x2009;" horiz-adv-x="319" />
<glyph unicode="&#x200a;" horiz-adv-x="88" />
<glyph unicode="&#x200c;" />
<glyph unicode="&#x200d;" />
<glyph unicode="&#x2010;" horiz-adv-x="456" d="M72 317v103h313v-103h-313z" />
<glyph unicode="&#x2011;" horiz-adv-x="456" d="M72 317v103h313v-103h-313z" />
<glyph unicode="&#x2012;" horiz-adv-x="456" d="M72 317v103h313v-103h-313z" />
<glyph unicode="&#x2013;" horiz-adv-x="798" d="M61 317v103h676v-103h-676z" />
<glyph unicode="&#x2014;" horiz-adv-x="1597" d="M61 317v103h1475v-103h-1475z" />
<glyph unicode="&#x2018;" horiz-adv-x="372" d="M82 842q0 76 49 138t119 103l29 -36q-102 -58 -123 -146q16 8 45 8q35 0 62.5 -27.5t27.5 -62.5q0 -37 -28.5 -65.5t-69.5 -28.5q-50 0 -80.5 35.5t-30.5 81.5z" />
<glyph unicode="&#x2019;" horiz-adv-x="372" d="M82 989q0 37 28.5 65.5t69.5 28.5q50 0 80.5 -35t30.5 -81q0 -76 -49 -138.5t-119 -103.5l-29 37q102 58 123 145q-16 -8 -45 -8q-35 0 -62.5 27.5t-27.5 62.5z" />
<glyph unicode="&#x201c;" horiz-adv-x="663" d="M82 842q0 76 49 138t119 103l29 -36q-102 -58 -123 -146q16 8 45 8q35 0 62.5 -27.5t27.5 -62.5q0 -37 -28.5 -65.5t-69.5 -28.5q-50 0 -80.5 35.5t-30.5 81.5zM373 842q0 76 49 138t119 103l28 -36q-102 -58 -123 -146q16 8 46 8q35 0 62.5 -27.5t27.5 -62.5 q0 -37 -29 -65.5t-70 -28.5q-50 0 -80 35.5t-30 81.5z" />
<glyph unicode="&#x201d;" horiz-adv-x="663" d="M82 989q0 37 28.5 65.5t69.5 28.5q50 0 80.5 -35t30.5 -81q0 -76 -49 -138.5t-119 -103.5l-29 37q102 58 123 145q-16 -8 -45 -8q-35 0 -62.5 27.5t-27.5 62.5zM373 989q0 37 28.5 65.5t69.5 28.5q50 0 80.5 -35t30.5 -81q0 -76 -49 -138.5t-119 -103.5l-29 37 q102 58 123 145q-16 -8 -45 -8q-35 0 -62.5 27.5t-27.5 62.5z" />
<glyph unicode="&#x2022;" horiz-adv-x="737" d="M61 410q0 127 90 217t218 90q127 0 217 -89.5t90 -217.5t-90 -218t-217 -90t-217.5 90t-90.5 218z" />
<glyph unicode="&#x2026;" horiz-adv-x="1118" d="M102 74q0 35 24.5 59.5t59.5 24.5t59.5 -24.5t24.5 -59.5t-24.5 -59.5t-59.5 -24.5t-59.5 24.5t-24.5 59.5zM475 74q0 35 24.5 59.5t59.5 24.5t59.5 -24.5t24.5 -59.5t-24.5 -59.5t-59.5 -24.5t-59.5 24.5t-24.5 59.5zM848 74q0 35 24.5 59.5t59.5 24.5t59.5 -24.5 t24.5 -59.5t-24.5 -59.5t-59.5 -24.5t-59.5 24.5t-24.5 59.5z" />
<glyph unicode="&#x202f;" horiz-adv-x="319" />
<glyph unicode="&#x205f;" horiz-adv-x="399" />
<glyph unicode="&#x2122;" horiz-adv-x="1341" d="M49 989v92h492v-92h-197v-512h-96v512h-199zM639 477v604h147l168 -440l168 440h150v-604h-96v500l-195 -500h-59l-187 490v-490h-96z" />
<glyph unicode="&#x25fc;" horiz-adv-x="675" d="M0 0v676h676v-676h-676z" />
<glyph unicode="&#xf700;" horiz-adv-x="792" d="M-31 662q88 86 180 124.5t209 38.5q105 0 183 -37l92 103l102 -68l-92 -102q119 -113 119 -303q0 -95 -36 -177t-101.5 -141t-163.5 -89t-215 -23l-101 420h-88v104h189l98 -412q131 9 213 99t82 219q0 128 -79 210.5t-206 82.5q-84 0 -151 -30t-133 -95z" />
<glyph unicode="&#xf701;" d="M-860 922v102h594v-102h-594z" />
<glyph unicode="&#xf702;" d="M-860 922v102h471v102h123v-204h-594z" />
<glyph unicode="&#xf703;" d="M-860 922v102h416v4q0 45 33.5 76t82.5 31t83 -31.5t34 -75.5t-34 -75t-83 -31h-532zM-375 1028q0 -17 14 -30t33 -13t33 13t14 30t-14 30t-33 13t-33 -13t-14 -30z" />
<glyph unicode="&#xf704;" d="M-860 922v102h307v102h102v-102h62v102h123v-204h-594z" />
<glyph unicode="&#xf705;" d="M-410 922v225h123v-225h-123z" />
<glyph unicode="&#xf706;" d="M-449 1044v82h84q51 0 76 -21t25 -56v-25h299v-102h-422v79q0 43 -43 43h-19z" />
<glyph unicode="&#xf707;" d="M-786 922v112q0 65 40.5 100t104.5 35h47l86 -65l82 65h43q62 0 100.5 -30.5t38.5 -91.5v-23h244v-102h-369v120q0 37 -26 37l-113 -86l-117 86q-37 0 -37 -39v-22h72v-96h-196z" />
<glyph unicode="&#xf708;" d="M-571 1008v94h102v86h123v-86h102v-94h-102v-86h-123v86h-102z" />
<glyph unicode="&#xf709;" d="M-489 922v36q0 60 38.5 89.5t100.5 29.5h106v-82h-59q-64 0 -64 -51v-22h-122z" />
<glyph unicode="&#xf70a;" d="M-184 922v225h123v-225h-123z" />
<glyph unicode="&#xf70b;" d="M-395 1044v82h84q50 0 75 -21t25 -56v-25h258v-102h-381v79q0 43 -43 43h-18z" />
<glyph unicode="&#xf70c;" d="M-694 922v112q0 65 40.5 100t104.5 35h47l86 -65l82 65h43q62 0 100.5 -30.5t38.5 -91.5v-23h142v-102h-266v120q0 37 -27 37l-113 -86l-116 86q-37 0 -37 -39v-22h71v-96h-196z" />
<glyph unicode="&#xf70d;" d="M-287 1008v94h103v86h123v-86h102v-94h-102v-86h-123v86h-103z" />
<glyph unicode="&#xf70e;" d="M-266 922v36q0 60 38.5 89.5t100.5 29.5h107v-82h-60q-63 0 -63 -51v-22h-123z" />
<glyph unicode="&#xf70f;" horiz-adv-x="1351" d="M61 0v655q124 179 349 179q95 0 173 -31t126.5 -95t48.5 -151v-301q0 -74 58 -115t147 -41t146.5 41t57.5 115v563h123v-563q0 -123 -94 -196.5t-233 -73.5t-233.5 73.5t-94.5 196.5v283q0 87 -63.5 133.5t-161.5 46.5q-148 0 -226 -96v-510h123v-113h-246z" />
<glyph unicode="&#xf710;" d="M-479 922v184h123v-82h430v-102h-553z" />
<glyph unicode="&#xf711;" d="M-444 1028q0 45 33.5 76t82.5 31t83 -31.5t34 -75.5t-34 -75t-83 -31t-82.5 31t-33.5 75zM-375 1028q0 -17 14 -30t33 -13t33 13t14 30t-14 30t-33 13t-33 -13t-14 -30z" />
<glyph unicode="&#xf712;" d="M-795 922v79q0 87 60 138t172 51h383v-82h-377q-54 0 -84.5 -23t-30.5 -55v-6h88l111 57l108 -57h119v-102h-125l-102 59l-102 -59h-220z" />
<glyph unicode="&#xf713;" d="M-389 1188v184h123v-184h-123z" />
<glyph unicode="&#xf714;" d="M-446 1305v77h79q47 0 71 -20.5t24 -54.5v-23h245v-96h-362v76q0 41 -41 41h-16z" />
<glyph unicode="&#xf715;" d="M-446 1188v94q0 54 33.5 83.5t86.5 29.5h39l72 -56l70 56h34q53 0 85 -25.5t32 -77.5v-16h117v-88h-221v100q0 31 -23 31l-94 -72l-96 72q-14 0 -22.5 -9t-8.5 -24v-18h59v-80h-163z" />
<glyph unicode="&#xf716;" d="M-475 1264v86h92v75h111v-75h92v-86h-92v-76h-111v76h-92z" />
<glyph unicode="&#xf717;" d="M-440 1106v35q0 57 36.5 84.5t96.5 27.5h100v-77h-55q-62 0 -62 -50v-20h-116z" />
<glyph unicode="&#xf718;" d="M-266 -389h205v-246h-123v143h-82v103z" />
<glyph unicode="&#xf719;" d="M-471 -389h184v-143q22 -13 47 -13q56 0 56 39v117h123v-123q0 -56 -53 -89.5t-126 -33.5q-108 0 -170 68v82h-61v96z" />
<glyph unicode="&#xf71a;" d="M-225 -471q0 34 24 58t58 24t58 -24t24 -58t-24 -58t-58 -24t-58 24t-24 58z" />
<glyph unicode="&#xf71d;" />
<glyph unicode="&#xf880;" />
<glyph horiz-adv-x="573" />
<glyph horiz-adv-x="579" d="M-444 1028q0 45 33.5 76t82.5 31t83 -31.5t34 -75.5t-34 -75t-83 -31t-82.5 31t-33.5 75zM-375 1028q0 -17 14 -30t33 -13t33 13t14 30t-14 30t-33 13t-33 -13t-14 -30zM10 662v129q77 43 193 43q155 0 235 -83.5t80 -211.5v-539h-123v506q0 96 -51 154.5t-147 58.5 q-100 0 -187 -57z" />
<glyph d="M-602 1044q0 53 46.5 94t121.5 56q-39 24 -39 80q0 90 117.5 142t294.5 34v-107q-66 12 -131.5 9.5t-113.5 -24.5t-48 -56q0 -49 94 -41v-96q-73 7 -149 -16t-76 -64q0 -34 51.5 -36t111.5 30l50 -84q-76 -42 -154 -43.5t-127 32.5t-49 90z" />
<glyph d="M-307 922v225h123v-225h-123z" />
<glyph />
<glyph d="M-266 1188v184h123v-184h-123z" />
<glyph d="M-471 1188v184h123v-184h-123z" />
<glyph d="M-823 922v102h594v-102h-594z" />
<glyph d="M-823 922v102h471v102h123v-204h-594z" />
</font>
</defs>
</svg>
