<?xml version="1.0" standalone="no"?>
<!DOCTYPE svg PUBLIC "-//W3C//DTD SVG 1.1//EN" "http://www.w3.org/Graphics/SVG/1.1/DTD/svg11.dtd" >
<svg xmlns="http://www.w3.org/2000/svg">
<metadata></metadata>
<defs>
<font id="psl_kittithada_proitalic" horiz-adv-x="0" >
<font-face units-per-em="2048" ascent="1638" descent="-410" />
<missing-glyph horiz-adv-x="512" />
<glyph unicode=" "  horiz-adv-x="512" />
<glyph unicode="&#x09;" horiz-adv-x="512" />
<glyph unicode="&#xa0;" horiz-adv-x="512" />
<glyph unicode="!" horiz-adv-x="315" d="M20 55q4 29 27 48.5t51 19.5t43.5 -19.5t10.5 -48.5q-4 -28 -27 -46.5t-51 -18.5t-43.5 18.5t-10.5 46.5zM94 213l68 502l63 366h84l-63 -366l-115 -502h-37z" />
<glyph unicode="&#x22;" horiz-adv-x="370" d="M135 737l47 344h72l-78 -344h-41zM285 737l47 344h74l-76 -344h-45z" />
<glyph unicode="#" horiz-adv-x="845" d="M49 328l12 67h179l73 234h-172l13 67h180l98 305h70l-99 -305h191l96 305h66l-97 -305h154l-12 -67h-164l-76 -234h164l-12 -67h-176l-109 -328h-63l106 328h-186l-105 -328h-65l102 328h-168zM305 395h191l75 234h-190z" />
<glyph unicode="$" horiz-adv-x="837" d="M59 219l64 27q18 -88 73 -140t140 -51l86 496q-100 56 -135 86q-86 76 -66 188t101.5 185.5t195.5 85.5l27 149h63l-26 -155q64 -9 112.5 -46.5t73.5 -97.5l-59 -43q-47 107 -140 123l-75 -430q12 -7 36 -20.5t36.5 -20.5t33.5 -20.5t32 -22.5t27 -24t24 -28.5t17 -32 t12 -37.5t3.5 -42.5t-4.5 -50.5q-21 -114 -114.5 -200.5t-209.5 -108.5l-29 -162h-63l29 160q-217 12 -265 233zM293 823q-6 -36 2 -65.5t33.5 -54t46.5 -39t61 -37.5l70 399q-77 -4 -138 -64.5t-75 -138.5zM399 57q91 22 158 90.5t82 155.5q6 33 -1 62t-20 49.5t-38.5 41 t-45.5 33t-53 29.5z" />
<glyph unicode="%" horiz-adv-x="907" d="M33 -4l821 1110l43 -21l-819 -1110zM106 879q15 92 86.5 152.5t161.5 60.5q88 0 138.5 -60.5t35.5 -152.5q-17 -90 -89 -150.5t-160 -60.5q-89 0 -139.5 60.5t-33.5 150.5zM166 879q-12 -62 25.5 -107t99.5 -45t115 44.5t65 107.5q10 64 -27.5 107.5t-99.5 43.5 t-115 -43.5t-63 -107.5zM403 203q17 91 89.5 151t162.5 60q89 0 139 -60t33 -151q-15 -91 -86.5 -151t-160.5 -60t-140.5 60t-36.5 151zM463 203q-10 -64 27 -108t100 -44t116.5 44t63.5 108q12 64 -25.5 108.5t-99.5 44.5q-63 0 -116.5 -44.5t-65.5 -108.5z" />
<glyph unicode="&#x26;" horiz-adv-x="876" d="M-12 264q7 39 24.5 76t36.5 65.5t54 61t60 53t71.5 50.5t70 44.5t74.5 44.5q-30 48 -44.5 75t-25.5 72.5t-4 88.5q15 84 87.5 145.5t154.5 61.5t125.5 -59t29.5 -142q-16 -84 -75.5 -143t-169.5 -125l198 -363l154 152l35 -43l-158 -158l117 -221h-70l-96 176 q-102 -94 -199 -145t-229 -51q-114 0 -178.5 82.5t-42.5 201.5zM55 270q-15 -93 31.5 -161t134.5 -68q62 0 117.5 15t105.5 45.5t82 55.5t78 66l-201 379q-49 -25 -99.5 -57t-105.5 -75.5t-94 -96.5t-49 -103zM371 887q-4 -26 1 -54.5t12 -45.5t24.5 -51.5t23.5 -47.5 q12 8 44.5 29t46 30.5t38 30t36.5 36t24 39t16 48.5q9 56 -21.5 96.5t-85.5 40.5q-54 0 -101 -46t-58 -105z" />
<glyph unicode="'" horiz-adv-x="290" d="M170 737l47 344h74l-76 -344h-45z" />
<glyph unicode="(" horiz-adv-x="364" d="M52 268.5q2 89.5 18 180.5q19 113 57.5 220t86 190t87.5 140.5t80 102.5h51q-233 -291 -295 -653q-65 -362 64 -654h-51q-18 35 -34.5 76.5t-33 106t-24.5 133t-6 158z" />
<glyph unicode=")" horiz-adv-x="364" d="M-76 -205q232 290 297 654q63 363 -65 653h51q18 -35 34.5 -76.5t33 -105.5t25 -132.5t7 -158t-17.5 -180.5q-26 -147 -88 -288.5t-116 -221.5t-110 -144h-51z" />
<glyph unicode="*" horiz-adv-x="720" d="M184 872l35 66l187 -70l28 213h70l-43 -213l211 70l10 -66l-213 -61l98 -172l-63 -43l-84 166q0 1 -30.5 -31.5t-74 -79.5t-51.5 -55l-47 43l160 172z" />
<glyph unicode="+" horiz-adv-x="778" d="M37 328l10 61h297l53 297h62l-53 -297h296l-10 -61h-297l-51 -297h-61l51 297h-297z" />
<glyph unicode="," horiz-adv-x="303" d="M-25 -141q48 27 82.5 65.5t48.5 77.5q-19 -12 -45 -12t-41 18.5t-10 44.5q5 27 27.5 47.5t52.5 20.5q38 0 56 -27.5t10 -64.5q-8 -46 -52 -99.5t-112 -91.5z" />
<glyph unicode="-" horiz-adv-x="475" d="M63 328l11 61h299l-11 -61h-299z" />
<glyph unicode="." horiz-adv-x="303" d="M14 55q5 28 26.5 47t49.5 19t44 -19t11 -47q-4 -28 -26.5 -46.5t-50.5 -18.5t-43.5 18.5t-10.5 46.5z" />
<glyph unicode="/" horiz-adv-x="874" d="M-76 -176l987 1358l47 -25l-983 -1360z" />
<glyph unicode="0" horiz-adv-x="778" d="M29.5 334q-9.5 102 11.5 213q27 150 92.5 274.5t163 199.5t205.5 75q82 0 143 -43.5t92.5 -118.5t41 -175t-12.5 -212q-27 -152 -91 -278t-161 -204.5t-207 -78.5q-82 0 -143.5 46t-93 123t-41 179zM98 361q6 -90 29.5 -160t72.5 -112t117 -42q90 0 170 72.5t132 184.5 t75 243q18 86 12 172.5t-27 156t-70 113t-117 43.5q-89 0 -171 -74.5t-135.5 -183.5t-74.5 -227q-19 -96 -13 -186z" />
<glyph unicode="1" horiz-adv-x="778" d="M293 1018l43 63h227l-190 -1081h-66l180 1018h-194z" />
<glyph unicode="2" horiz-adv-x="778" d="M-27 0l469 442q116 111 158 162q81 98 94 178q20 110 -39 180t-163 70q-106 0 -189.5 -71.5t-103.5 -184.5h-68q28 147 136.5 233.5t234.5 86.5q134 0 210 -87.5t50 -230.5q-9 -49 -33 -96.5t-62 -93.5t-70.5 -79t-79.5 -79q-11 -11 -17 -16l-369 -353h506l-10 -61h-654z " />
<glyph unicode="3" horiz-adv-x="778" d="M51 264h66q-5 -98 43.5 -157.5t140.5 -59.5q99 0 183.5 75t103.5 177q18 102 -41 166.5t-160 64.5l10 64q94 0 171 64.5t96 160.5q16 93 -28.5 153t-141.5 60q-88 0 -151.5 -55.5t-88.5 -151.5h-66q34 128 116.5 199.5t201.5 71.5q125 0 185 -79.5t38 -199.5 q-14 -79 -65.5 -145t-133.5 -107q75 -39 107 -108.5t18 -153.5q-23 -134 -127.5 -225.5t-234.5 -91.5q-121 0 -192 77t-50 201z" />
<glyph unicode="4" horiz-adv-x="778" d="M-49 205v8l764 905h8l-150 -848h134l-11 -65h-133l-37 -205h-67l37 205h-545zM78 270h428l115 652z" />
<glyph unicode="5" horiz-adv-x="778" d="M-18 166l63 37q31 -69 93 -112.5t134 -43.5q131 0 236.5 92t130.5 230q23 127 -52 215t-200 88q-61 0 -127.5 -21t-112.5 -47l84 477h510l-10 -63h-442l-58 -322q108 37 181 37q152 0 235.5 -106t57.5 -260q-29 -164 -157.5 -272.5t-287.5 -108.5q-94 0 -168 46.5 t-110 133.5z" />
<glyph unicode="6" horiz-adv-x="778" d="M16 362q21 122 117 238l408 496l57 -29l-289 -350q79 26 135 26q144 0 227.5 -112.5t55.5 -268.5q-12 -67 -47.5 -132.5t-88.5 -120.5t-128.5 -89t-157.5 -34q-147 0 -232 108.5t-57 267.5zM88 365q-23 -131 43.5 -223.5t183.5 -92.5t217 93t123 223q23 129 -44.5 221 t-184.5 92t-216 -92t-122 -221z" />
<glyph unicode="7" horiz-adv-x="778" d="M-78 12l848 1004h-616l12 65h739l-921 -1093z" />
<glyph unicode="8" horiz-adv-x="778" d="M49 283q35 188 223 280q-65 42 -91.5 107t-12.5 139q22 123 117.5 205t214.5 82q121 0 189 -82.5t46 -204.5q-14 -73 -64.5 -138.5t-127.5 -107.5q158 -94 123 -280q-21 -127 -127.5 -212t-233.5 -85q-125 0 -201 85t-55 212zM117 289q-19 -99 40.5 -170.5t157.5 -71.5 q97 0 182.5 71.5t104.5 170.5q17 99 -44 169t-159 70t-181.5 -70t-100.5 -169zM233 811q-17 -90 36 -153.5t143 -63.5t165.5 63.5t92.5 153.5q15 90 -39 155.5t-142 65.5t-164.5 -65.5t-91.5 -155.5z" />
<glyph unicode="9" horiz-adv-x="778" d="M82 719q18 104 82.5 191.5t155 136.5t184.5 49q149 0 231 -110t53 -273q-18 -114 -114 -232l-404 -493l-57 30l305 367q-56 -43 -156 -43q-141 0 -224.5 111.5t-55.5 265.5zM154 719q-23 -129 44.5 -221t184.5 -92q115 0 214 92t122 221t-43 220t-182 91q-117 0 -217 -91 t-123 -220z" />
<glyph unicode=":" horiz-adv-x="303" d="M14 55q5 28 26.5 47t49.5 19t44 -19t11 -47q-4 -28 -26.5 -46.5t-50.5 -18.5t-43.5 18.5t-10.5 46.5zM111 602q5 28 26 47t49 19t44 -19t12 -47t-27 -46.5t-51 -18.5t-43 18.5t-10 46.5z" />
<glyph unicode=";" horiz-adv-x="303" d="M-25 -141q48 27 82.5 65.5t48.5 77.5q-19 -12 -45 -12t-41 18.5t-10 44.5q5 27 27.5 47.5t52.5 20.5q38 0 56 -27.5t10 -64.5q-8 -46 -52 -99.5t-112 -91.5zM111 602q5 28 26 47t49 19t44 -19t12 -47t-27 -46.5t-51 -18.5t-43 18.5t-10 46.5z" />
<glyph unicode="&#x3c;" horiz-adv-x="761" d="M37 326l14 75l692 318l-12 -64l-622 -290l518 -310l-13 -61z" />
<glyph unicode="=" horiz-adv-x="778" d="M20 236l13 61h655l-12 -61h-656zM53 420l10 61h656l-10 -61h-656z" />
<glyph unicode="&#x3e;" horiz-adv-x="761" d="M-23 -6l13 61l626 310l-522 290l12 64l582 -318l-14 -75z" />
<glyph unicode="?" horiz-adv-x="700" d="M106 760q-13 134 94 238t257 104q131 0 195.5 -77.5t45.5 -190.5q-10 -58 -44.5 -110t-77.5 -90.5t-85.5 -75.5t-76 -81.5t-41.5 -91.5l-27 -152h-65l26 156q10 52 43.5 99.5t76.5 85.5t85.5 76.5t76 86t42.5 99.5q13 80 -35 141t-152 61q-116 0 -195.5 -77.5 t-70.5 -182.5zM217 57q4 28 27 47t51 19t43 -19t10 -47q-4 -29 -27 -48t-51 -19t-43 19t-10 48z" />
<glyph unicode="@" horiz-adv-x="1130" d="M63 545q26 150 121.5 277t232 200.5t279.5 73.5q209 0 329.5 -132t84.5 -331q-14 -84 -58 -162t-101.5 -133t-123 -88t-122.5 -33q-38 0 -66 18.5t-31 51.5q-100 -70 -198 -70q-90 0 -131 59t-23 152q13 74 52 151.5t94 143t129.5 107.5t150.5 42q103 0 156 -94l32 66h64 l-229 -465q-11 -21 -15.5 -32t-8.5 -27t0 -24t17 -14t37 -6q57 0 127 57.5t123.5 142t67.5 161.5q15 87 -9 163t-75.5 127t-124.5 80t-154 29q-130 0 -253.5 -69.5t-208 -185t-107.5 -246.5q-37 -210 76 -351t321 -141q121 0 235 51.5t191 145.5l82 2q-90 -121 -225 -188.5 t-293 -67.5q-241 0 -365.5 152.5t-79.5 406.5zM319 436q-13 -67 19 -114t104 -46q65 1 133.5 54.5t98.5 115.5l104 211q21 44 -13 99t-106 55q-71 0 -147.5 -64t-128 -150.5t-64.5 -160.5z" />
<glyph unicode="A" horiz-adv-x="876" d="M-84 0l639 1116l240 -1116h-68l-78 356h-461l-202 -356h-70zM223 420h412l-111 534z" />
<glyph unicode="B" horiz-adv-x="788" d="M23 0l190 1081h248q143 0 202 -78q42 -55 42 -137q0 -33 -7 -71q-12 -72 -49 -125t-108 -95q95 -27 139 -101q32 -53 32 -121q0 -26 -5 -54q-24 -127 -125 -213t-263 -86h-296zM98 61h215q144 0 225.5 68t100.5 170q6 25 6 49q0 20 -4 38q-9 42 -35.5 73t-89.5 49 t-160 18h-176zM193 590h174q108 0 178.5 57.5t87.5 157.5q5 26 5 49q0 64 -36 106q-50 58 -176 58h-158z" />
<glyph unicode="C" horiz-adv-x="1009" d="M53 539q30 165 127.5 293.5t233.5 196t286 67.5q108 0 196.5 -43t127.5 -99l-16 -94q-40 78 -131 125t-191 47q-202 0 -364.5 -140.5t-200.5 -359.5q-9 -51 -9 -98q0 -58 14 -109q24 -94 81 -153.5t136 -92t169 -32.5q100 0 199.5 44.5t185.5 125.5l-16 -94 q-169 -137 -377 -137q-111 0 -203 37t-155.5 105.5t-89.5 174.5q-14 57 -13 121q0 55 10 115z" />
<glyph unicode="D" horiz-adv-x="888" d="M23 0l190 1081h199q95 0 172 -21.5t128.5 -59t88.5 -88.5t52.5 -111.5t19.5 -126.5q1 -14 1 -29q0 -53 -12 -106q-19 -106 -69.5 -202t-128 -172t-188 -120.5t-238.5 -44.5h-215zM98 61h142q213 0 366 136.5t189 341.5q11 60 11 113q0 144 -80 238q-108 128 -331 128 h-127z" />
<glyph unicode="E" horiz-adv-x="688" d="M23 0l190 1081h502l-10 -63h-437l-69 -395h417l-12 -64h-418l-88 -498h437l-11 -61h-501z" />
<glyph unicode="F" horiz-adv-x="602" d="M23 0l190 1081h426l-10 -63h-361l-69 -395h348l-12 -64h-349l-98 -559h-65z" />
<glyph unicode="G" horiz-adv-x="1130" d="M53 537q43 245 223.5 402t417.5 157q160 0 265.5 -67t154.5 -185l-65 -41q-45 112 -140 170.5t-225 58.5q-205 0 -364.5 -140t-196.5 -351q-8 -45 -8 -89q0 -81 29 -156q43 -114 141 -181.5t225 -67.5q184 0 330 116t178 294h-434l12 63h502q-12 -122 -67.5 -224.5 t-138.5 -169t-185.5 -103.5t-210.5 -37q-143 0 -254.5 75t-163.5 202q-34 84 -34 178q0 47 9 96z" />
<glyph unicode="H" horiz-adv-x="958" d="M23 0l190 1081h66l-82 -463h618l82 463h66l-191 -1081h-65l98 553h-619l-98 -553h-65z" />
<glyph unicode="I" horiz-adv-x="276" d="M23 0l190 1081h66l-191 -1081h-65z" />
<glyph unicode="J" horiz-adv-x="286" d="M-281 -111l62 41q12 -42 42 -67t71 -25q36 0 63 16t42 45.5t23.5 56.5t14.5 64l186 1061h68l-187 -1061q-10 -56 -24.5 -96t-40 -75.5t-66 -53.5t-96.5 -18q-58 0 -98.5 29.5t-59.5 82.5z" />
<glyph unicode="K" horiz-adv-x="774" d="M23 0l190 1081h66l-84 -473l583 473h88l-598 -485l443 -596h-90l-404 553l-37 -31l-92 -522h-65z" />
<glyph unicode="L" horiz-adv-x="442" d="M23 0l190 1081h66l-181 -1020h273l-11 -61h-337z" />
<glyph unicode="M" horiz-adv-x="1230" d="M-78 0l422 1116l213 -985l561 985l27 -1116h-66l-16 903l-533 -938l-204 938l-340 -903h-64z" />
<glyph unicode="N" horiz-adv-x="1155" d="M23 0l192 1096l713 -957l166 942h65l-196 -1116l-711 963l-164 -928h-65z" />
<glyph unicode="O" horiz-adv-x="1171" d="M55 541q26 149 122 277t234.5 203t284.5 75q145 0 258 -75t165 -203q35 -85 34 -180q0 -47 -8 -97q-27 -150 -124 -278t-235.5 -202.5t-283.5 -74.5q-109 0 -202.5 44t-153.5 118.5t-86 177.5q-14 58 -14 118q0 48 9 97zM123 541q-8 -45 -8 -89q1 -82 29 -156 q44 -114 142 -181.5t226 -67.5t250 67.5t207 181.5t108 245q7 43 7 85q0 84 -30 159q-44 113 -142 180t-226 67q-196 0 -362.5 -145.5t-200.5 -345.5z" />
<glyph unicode="P" horiz-adv-x="659" d="M23 0l190 1081h229q150 0 210 -78q43 -55 43 -136q0 -34 -7 -72q-23 -131 -117 -206t-229 -75h-164l-90 -514h-65zM190 578h158q117 0 188 60t89 161q5 28 5 53q0 63 -32 106q-46 60 -162 60h-168z" />
<glyph unicode="Q" horiz-adv-x="1171" d="M55 541q26 151 120.5 278.5t233 202t289.5 74.5q144 0 256.5 -74t164.5 -201q35 -85 35 -179q0 -47 -9 -97q-37 -207 -221 -391l108 -154h-92l-70 115q-187 -129 -368 -129q-147 0 -259.5 73.5t-163.5 201.5q-33 84 -33 178q0 49 9 102zM123 541q-8 -47 -8 -91 q0 -82 29 -156q44 -114 143 -180.5t229 -66.5q148 0 313 119l-213 276h93l176 -237q159 159 190 327q8 47 8 92q0 83 -27 156q-42 115 -139.5 183.5t-228.5 68.5t-254 -67t-206 -180t-105 -244z" />
<glyph unicode="R" horiz-adv-x="684" d="M23 0l190 1081h166q72 0 125 -13t95 -44q41 -30 57 -88q8 -29 9 -65q0 -35 -8 -76q-13 -75 -48 -131.5t-84 -88t-103 -46.5t-113 -15l254 -514h-78l-249 514h-58l-90 -514h-65zM188 571h125q34 0 70.5 8.5t81.5 30t80 70t47 117.5q5 27 5 51q-1 28 -7 51q-12 43 -34 65.5 t-61 35t-69.5 15.5t-71.5 3h-86z" />
<glyph unicode="S" horiz-adv-x="741" d="M10 217l64 29q48 -199 231 -199q102 0 185 75t102 183q3 15 3 29q0 87 -99 149l-246 148q-79 49 -79 142q0 23 5 48q20 120 109.5 197.5t206.5 77.5q79 0 143 -40.5t90 -111.5l-57 -39q-56 127 -191 127q-85 0 -152.5 -61t-82.5 -148q-3 -14 -3 -28q0 -84 101 -142 l201 -116q81 -47 106 -103q16 -37 17 -84q0 -24 -5 -51q-25 -133 -131.5 -223t-236.5 -90q-118 0 -189 60.5t-92 170.5z" />
<glyph unicode="T" horiz-adv-x="610" d="M98 1018l11 63h610l-10 -63h-273l-180 -1018h-66l181 1018h-273z" />
<glyph unicode="U" horiz-adv-x="901" d="M76 360l127 721h65l-123 -702q-9 -51 -9 -95q0 -92 41 -150q61 -86 200 -86.5t230 85.5t120 246l123 702h65l-127 -721q-29 -169 -136.5 -271.5t-284.5 -102.5q-175 0 -247 102q-52 73 -52 181q0 43 8 91z" />
<glyph unicode="V" horiz-adv-x="753" d="M104 1081h68l152 -923l475 923h67l-579 -1116z" />
<glyph unicode="W" horiz-adv-x="1423" d="M106 1081h66l131 -925l531 979l178 -979l454 925h66l-551 -1116l-178 1002l-541 -1002z" />
<glyph unicode="X" horiz-adv-x="671" d="M-78 0l389 551l-186 530h72l165 -463l324 463h74l-373 -530l197 -551h-72l-174 492l-342 -492h-74z" />
<glyph unicode="Y" horiz-adv-x="759" d="M102 1081h74l215 -551l408 551h73l-458 -620l-82 -461h-70l82 461z" />
<glyph unicode="Z" horiz-adv-x="774" d="M-74 0l819 1018h-579l10 63h696l-819 -1020h625l-10 -61h-742z" />
<glyph unicode="[" horiz-adv-x="401" d="M-41 -229l242 1372h235l-12 -72h-168l-217 -1229h168l-12 -71h-236z" />
<glyph unicode="\" horiz-adv-x="874" d="M164 1157l53 25l539 -1153l-54 -29z" />
<glyph unicode="]" horiz-adv-x="401" d="M-41 -229l12 71h170l217 1229h-170l13 72h235l-241 -1372h-236z" />
<glyph unicode="^" horiz-adv-x="843" d="M61 432l435 649h71l205 -649h-63l-191 584l-391 -584h-66z" />
<glyph unicode="_" horiz-adv-x="716" d="M-102 -158l10 56h700l-10 -56h-700z" />
<glyph unicode="`" horiz-adv-x="417" d="M190 995l91 29l102 -211l-55 -25z" />
<glyph unicode="a" horiz-adv-x="761" d="M14 336q25 147 129 243.5t248 96.5q157 0 225 -137l23 123h61l-116 -662h-62l21 121q-59 -69 -130 -102t-141 -33q-145 0 -215 100q-51 72 -51 170q0 38 8 80zM78 336q-6 -33 -6 -63q0 -80 40 -142q56 -86 169 -86q118 0 201 86t104 211q6 32 6 61q0 77 -42 135 q-58 78 -173 78q-107 0 -193.5 -84.5t-105.5 -195.5z" />
<glyph unicode="b" horiz-adv-x="761" d="M16 0l201 1141h62l-105 -594q121 129 275 129q141 0 211 -96q51 -71 52 -169q0 -36 -7 -75q-27 -150 -131.5 -250t-247.5 -100q-72 0 -132 34t-94 103l-22 -123h-62zM135 334q-7 -36 -7 -69q0 -77 39 -137q55 -84 171 -85q113 0 197.5 87t105.5 206q5 28 5 54 q0 78 -42 142q-56 84 -164 84q-120 0 -202 -79.5t-103 -202.5z" />
<glyph unicode="c" horiz-adv-x="647" d="M12 332q25 145 137.5 244.5t253.5 99.5q129 0 211 -82l-14 -84q-85 106 -209 106q-112 0 -203 -84t-112 -200q-5 -29 -6 -57q0 -80 46 -144q62 -86 173 -86q136 0 260 121l-14 -86q-125 -94 -254 -94q-143 0 -219 100q-57 75 -57 175q0 34 7 71z" />
<glyph unicode="d" horiz-adv-x="761" d="M12 336q25 147 129 243.5t248 96.5q154 0 227 -135l105 600h61l-200 -1141h-62l21 121q-59 -68 -130 -101.5t-141 -33.5q-145 0 -215 100q-51 72 -51 170q0 38 8 80zM76 336q-6 -33 -6 -63q0 -80 40 -143q56 -87 169 -87q118 0 201 87t104 212q6 32 6 61q0 77 -42 135 q-58 78 -173 78q-107 0 -193.5 -84.5t-105.5 -195.5z" />
<glyph unicode="e" horiz-adv-x="692" d="M12 332q25 143 130 243.5t243 100.5q141 0 209 -99q50 -73 49 -175q0 -36 -6 -76h-563q-6 -35 -6 -67q0 -82 43 -137q60 -77 172 -77q147 0 252 150l47 -31q-125 -178 -318 -178q-92 0 -156 48t-88 126q-14 46 -15 98q0 36 7 74zM84 385h496q0 101 -55 166t-148 65 q-96 0 -180.5 -67t-112.5 -164z" />
<glyph unicode="f" horiz-adv-x="317" d="M16 0l107 602h-72l10 60h72l43 245q6 36 12.5 62.5t22.5 63t37.5 60.5t58 41t82.5 17q33 0 70 -16l-10 -58q-40 15 -66 15q-39 0 -67 -17.5t-43.5 -51.5t-22.5 -60t-14 -68l-41 -233h163l-10 -60h-164l-106 -602h-62z" />
<glyph unicode="g" horiz-adv-x="772" d="M-63 -92h63q-1 -15 -1 -29q0 -85 51 -137q60 -61 159 -61q43 0 82 10.5t77.5 35.5t69.5 62.5t55 95t37 129.5l19 97q-56 -62 -129 -93.5t-148 -31.5q-136 0 -205 102q-51 75 -51 171q0 35 7 73q25 144 132.5 244t245.5 100q75 0 133.5 -34t90.5 -91l20 111h64l-117 -658 q-15 -84 -45 -151t-68 -109t-85 -70t-92.5 -39.5t-94.5 -11.5q-130 0 -207 75q-65 65 -65 172q0 19 2 38zM86 336q-6 -33 -6 -63q0 -80 40 -142q55 -86 167 -86q119 0 202.5 86t104.5 211q6 32 6 61q0 78 -43 135q-59 80 -174 80q-106 0 -192 -85t-105 -197z" />
<glyph unicode="h" horiz-adv-x="665" d="M16 0l201 1141h62l-103 -578q85 113 217 113q117 0 151 -70q20 -40 20 -102q0 -46 -11 -105l-70 -399h-61l70 399q11 69 11 114q1 46 -29 74q-30 29 -97 29q-188 0 -242 -288l-57 -328h-62z" />
<glyph unicode="i" horiz-adv-x="309" d="M41 0l117 662h61l-117 -662h-61zM166 862q5 25 25 42.5t45 17.5q23 0 37 -18q11 -14 11 -31q0 -5 -1 -11q-4 -25 -24.5 -42t-43.5 -17q-25 0 -39 17q-11 13 -11 31q0 5 1 11z" />
<glyph unicode="j" horiz-adv-x="309" d="M-27 -387l185 1049h61l-184 -1049h-62zM166 862q5 25 25 42.5t45 17.5q23 0 37 -18q11 -13 11 -31q0 -5 -1 -11q-4 -25 -24.5 -42t-43.5 -17q-25 0 -39 17q-11 13 -11 31q0 5 1 11z" />
<glyph unicode="k" horiz-adv-x="577" d="M16 0l201 1141h62l-134 -754l314 275h82l-318 -281l291 -381h-82l-258 340l-43 -41l-53 -299h-62z" />
<glyph unicode="l" horiz-adv-x="260" d="M16 0l201 1141h62l-201 -1141h-62z" />
<glyph unicode="m" horiz-adv-x="991" d="M16 0l117 662h62l-15 -80q79 94 182 94q58 0 100.5 -32t55.5 -87q39 55 94 87t111 32q114 0 150 -64q22 -39 22 -99q0 -37 -8 -81l-76 -432h-63l73 424q9 59 9 98q0 41 -26 67q-27 27 -85 27q-48 0 -85.5 -20t-61 -55t-38 -73.5t-22.5 -84.5l-68 -383h-61l72 408 q9 47 9 81q0 31 -8 61q-8 32 -35.5 49t-72.5 17q-161 0 -207 -251l-63 -365h-62z" />
<glyph unicode="n" horiz-adv-x="665" d="M16 0l117 662h62l-19 -101q98 115 217 115q107 0 147 -62q25 -39 26 -104q0 -38 -9 -86l-74 -424h-61l72 403q10 53 10 87q0 32 -9 62q-9 32 -38.5 49t-79.5 17q-58 0 -102 -25.5t-71 -71t-42.5 -91t-26.5 -102.5l-57 -328h-62z" />
<glyph unicode="o" horiz-adv-x="761" d="M12 332q25 143 144.5 244.5t261.5 101.5q144 0 228 -102q65 -79 64 -181q0 -30 -5 -63q-26 -143 -146 -244.5t-262 -101.5q-143 0 -227 102q-64 78 -64 179q0 31 6 65zM70 332q-5 -29 -5 -55q0 -83 52 -147q69 -84 188 -85q118 0 217 84t121 203q4 27 4 51q1 85 -53 151 q-70 84 -188 84q-119 0 -217.5 -84t-118.5 -202z" />
<glyph unicode="p" horiz-adv-x="761" d="M-51 -387l184 1049h62l-21 -119q114 133 272 133q144 0 214 -100q50 -73 50 -170q0 -38 -8 -80q-27 -149 -128.5 -244.5t-245.5 -95.5q-162 0 -230 131l-88 -504h-61zM131 317q-6 -32 -6 -61q0 -78 43 -134q57 -77 172 -77q109 0 193.5 82.5t105.5 196.5q6 33 6 64 q0 79 -39 142q-55 88 -168 88q-119 0 -201.5 -87.5t-105.5 -213.5z" />
<glyph unicode="q" horiz-adv-x="761" d="M10 324q27 150 132 251t249 101q71 0 130.5 -31.5t94.5 -97.5l21 115h61l-184 -1049h-61l88 498q-111 -125 -273 -125q-144 0 -214 96q-51 69 -51 165q0 36 7 77zM72 317q-6 -32 -6 -60q0 -79 43 -135q58 -77 174 -77q107 0 192.5 82.5t106.5 196.5q6 33 6 63 q0 80 -40 143q-56 88 -169 88q-118 0 -201 -87.5t-106 -213.5z" />
<glyph unicode="r" horiz-adv-x="370" d="M16 0l117 662h62l-17 -95q57 109 162 109q30 0 68 -12l-43 -58q-27 10 -46 10q-38 0 -68 -20t-46.5 -41.5t-32 -67.5t-19.5 -65.5t-13 -68.5l-3 -15l-59 -338h-62z" />
<glyph unicode="s" horiz-adv-x="503" d="M-20 160l61 22q20 -139 137 -139q59 0 110 45.5t62 106.5q6 36 -6.5 62.5t-37.5 42.5t-56 29.5t-62 27.5t-55.5 32t-36.5 48q-7 19 -7 42q0 14 3 29q12 73 71.5 120.5t131.5 47.5q49 0 89.5 -27.5t55.5 -75.5l-57 -30q-24 73 -100 73q-41 0 -80.5 -30t-46.5 -72 q-5 -32 8 -55t38 -37t56 -26t62 -27t54.5 -35t34.5 -56q6 -21 6 -46q0 -18 -3 -39q-17 -91 -87 -149t-157 -58q-79 0 -130.5 46.5t-57.5 127.5z" />
<glyph unicode="t" horiz-adv-x="274" d="M23 0l106 602h-74l11 60h73l41 237h64l-41 -237h114l-10 -60h-114l-107 -602h-63z" />
<glyph unicode="u" horiz-adv-x="638" d="M47 225l78 437h61l-67 -388q-10 -61 -10 -112t34 -84t103 -33q44 0 78 13t54.5 32.5t36.5 52t24 61t16 70.5l67 388h64l-78 -437q-18 -107 -87 -173t-185 -66t-162 66q-33 47 -32 115q0 27 5 58z" />
<glyph unicode="v" horiz-adv-x="585" d="M33 662h65l138 -549l321 549h66l-416 -697z" />
<glyph unicode="w" horiz-adv-x="950" d="M33 664h63l111 -537l309 571l109 -571l299 537h63l-391 -699l-109 572l-309 -572z" />
<glyph unicode="x" horiz-adv-x="600" d="M-82 0l322 352l-183 310h72l160 -267l248 267h77l-290 -310l196 -352h-76l-174 305l-280 -305h-72z" />
<glyph unicode="y" horiz-adv-x="622" d="M-12 -387l217 373l-189 676h66l170 -601l350 601h64l-615 -1049h-63z" />
<glyph unicode="z" horiz-adv-x="651" d="M-86 0l633 602h-451l10 60h580l-629 -603h521l-11 -59h-653z" />
<glyph unicode="{" horiz-adv-x="401" d="M45 428l10 61q60 41 90.5 76t38.5 90l45 252q23 126 73.5 179t168.5 57l-10 -66q-30 -1 -52 -5t-45.5 -15.5t-38 -35t-20.5 -58.5l-47 -269q-19 -101 -51.5 -149t-95.5 -86v-2q23 -19 36.5 -37t24.5 -47.5t9.5 -66.5t-9.5 -93l-45 -264q-12 -68 20 -91.5t95 -23.5 l-13 -63q-117 6 -149 57t-10 176l45 252q10 56 -8 94.5t-62 77.5z" />
<glyph unicode="|" horiz-adv-x="428" d="M180 0v1141h68v-1141h-68z" />
<glyph unicode="}" horiz-adv-x="401" d="M-74 -229l13 63q63 0 103 23.5t52 91.5l45 264q19 102 53.5 154.5t94.5 89.5v2q-19 16 -31 29t-23 32.5t-14.5 42.5t-2.5 56t9 75l47 269q11 67 -20 89.5t-94 24.5l10 66q118 -4 150.5 -56.5t9.5 -179.5l-45 -252q-8 -56 9 -91.5t62 -74.5l-10 -61q-58 -39 -89.5 -77.5 t-41.5 -94.5l-45 -252q-22 -126 -72 -176.5t-170 -56.5z" />
<glyph unicode="~" horiz-adv-x="843" d="M41 303q111 146 229 146q42 0 85 -17t72.5 -37.5t64.5 -37.5t63 -17q77 0 156 117l59 -35q-102 -156 -229 -156q-45 0 -144 55.5t-141 55.5q-43 0 -76 -25.5t-82 -81.5z" />
<glyph unicode="&#xa2;" horiz-adv-x="647" d="M49 547q23 134 124 231.5t230 110.5l41 233h56l-41 -231q115 -6 194 -82l-16 -84q-78 100 -188 106l-103 -571q128 10 242 121l-17 -86q-113 -85 -235 -94l-43 -242h-55l43 244q-125 13 -190 110.5t-42 233.5zM113 547q-19 -104 32 -187t148 -98l98 567 q-101 -15 -180 -96t-98 -186z" />
<glyph unicode="&#xa3;" horiz-adv-x="837" d="M-8 61q84 56 142 132.5t71 152.5q9 60 -21 162h-125l9 55h94q-27 80 -35 126.5t0 115.5q23 130 130 210.5t249 80.5q163 0 249 -89.5t58 -252.5h-63q24 134 -47.5 208t-206.5 74q-109 0 -197 -65t-106 -166q-6 -19 -3.5 -49t4 -47.5t10.5 -47t15.5 -48t18.5 -50.5h274 l-8 -55h-250q29 -88 16 -156q-12 -70 -52 -139t-101 -121q51 19 125 19q54 0 143.5 -33t138.5 -33q90 0 183 78l20 -55q-95 -82 -207 -82q-69 0 -162 33.5t-147 33.5q-86 0 -188 -55z" />
<glyph unicode="&#xa4;" horiz-adv-x="839" d="M8 164l148 145q-62 83 -62 193q0 114 62 188l-148 150l76 71l145 -145q80 59 193 59q119 0 188 -59l150 145l71 -71l-145 -150q59 -80 59 -188q0 -113 -59 -193l145 -145l-71 -76l-150 148q-31 -25 -84 -43q-55 -19 -104 -19q-110 0 -193 62l-145 -148zM197 502 q0 -95 63 -164q65 -68 162 -68q93 0 158 68q63 63 63 164q0 94 -63 160.5t-158 66.5q-96 0 -160 -67q-65 -74 -65 -160z" />
<glyph unicode="&#xa5;" horiz-adv-x="759" d="M-23 338l11 55h344l12 68l-31 76h-301l11 55h270l-191 489h74l215 -551l408 551h73l-362 -489h272l-10 -55h-303l-55 -76l-13 -68h347l-11 -55h-346l-59 -338h-70l60 338h-345z" />
<glyph unicode="&#xa9;" horiz-adv-x="1146" d="M33 543q26 150 123 277.5t238 201.5t292 74q150 0 264.5 -74t166.5 -201.5t26 -277.5q-20 -113 -82 -216t-149.5 -178t-197.5 -119t-222 -44q-113 0 -208.5 44t-157 119t-87.5 178t-6 216zM102 543q-24 -134 21 -246t146 -177t235 -65q201 0 366.5 142t202.5 346 q23 132 -22 243t-145 175.5t-232 64.5q-134 0 -257.5 -64.5t-207.5 -175.5t-107 -243zM297 537q25 137 131.5 231t239.5 94q121 0 198 -80l-16 -96q-83 107 -197 107q-100 0 -182.5 -76t-101.5 -180q-18 -103 38 -180.5t154 -77.5q122 0 248 120l-16 -100q-122 -90 -242 -90 q-134 0 -206 95t-48 233z" />
<glyph unicode="&#xab;" horiz-adv-x="536" d="M39 459l246 241l34 -38l-204 -203l133 -203l-47 -39zM207 459l246 241l32 -38l-204 -203l133 -203l-45 -39z" />
<glyph unicode="&#xac;" horiz-adv-x="778" d="M51 297v90h676v-268h-82v178h-594z" />
<glyph unicode="&#xad;" horiz-adv-x="778" d="M37 328l10 61h655l-10 -61h-655z" />
<glyph unicode="&#xae;" horiz-adv-x="1146" d="M33 543q26 150 123 277.5t238 201.5t292 74q150 0 264.5 -74t166.5 -201.5t26 -277.5q-20 -113 -82 -216t-149.5 -178t-197.5 -119t-222 -44q-113 0 -208.5 44t-157 119t-87.5 178t-6 216zM102 543q-24 -134 21 -246t146 -177t235 -65q201 0 366.5 142t202.5 346 q23 132 -22 243t-145 175.5t-232 64.5q-134 0 -257.5 -64.5t-207.5 -175.5t-107 -243zM332 227l106 607h264q116 0 158 -41t29 -121q-27 -162 -219 -166l135 -279h-88l-125 279h-141l-50 -279h-69zM463 575h119q6 0 33.5 -0.5t38 0t36 2t37.5 5.5t31.5 11t29.5 17.5 t19.5 26.5t13.5 37q5 28 -6 47t-35 27.5t-49 12t-57 3.5h-178z" />
<glyph unicode="&#xb0;" horiz-adv-x="540" d="M66 713q0 83 58 142.5t142 59.5q86 0 145.5 -58.5t59.5 -143.5t-59.5 -144t-145.5 -59q-82 0 -141 59t-59 144zM121 713q0 -60 42.5 -104t102.5 -44q62 0 105 43q45 45 45 105t-44 102.5t-106 42.5q-63 0 -104 -41t-41 -104z" />
<glyph unicode="&#xb6;" horiz-adv-x="727" d="M0 858q0 153 94 229q91 66 248 66h389v-41h-102v-1356h-62v1356h-145v-1356h-55v805q-168 0 -263 62q-104 73 -104 235z" />
<glyph unicode="&#xb7;" horiz-adv-x="337" d="M96 449q0 31 21 51t53 20q30 0 51 -21.5t21 -49.5q0 -31 -21.5 -52.5t-50.5 -21.5q-32 0 -53 21t-21 53z" />
<glyph unicode="&#xbb;" horiz-adv-x="536" d="M51 256l203 203l-131 203l45 38l158 -241l-242 -242zM217 256l205 203l-133 203l45 38l158 -241l-242 -242z" />
<glyph unicode="&#xbc;" horiz-adv-x="1126" d="M6 -45l1047 1161l43 -24l-1047 -1162zM178 1026l43 55h152l-115 -653h-59l104 598h-125zM508 119l4 20l463 537h22l-88 -498h80l-10 -59h-80l-20 -119h-62l21 119h-330zM616 178h232l59 338z" />
<glyph unicode="&#xbd;" horiz-adv-x="1126" d="M-55 -45l1046 1161l43 -24l-1046 -1162zM178 1026l43 55h152l-115 -653h-59l104 598h-125zM530 0l301 276q2 1 17 15.5t18.5 18t18 17t19.5 19t17 18.5t17 21t13.5 20t13 21.5t8.5 20.5t6 22q10 60 -24 98.5t-91 38.5q-62 0 -109 -41t-59 -110h-61q21 98 90 153.5 t149 55.5q85 0 133 -54.5t33 -142.5q-6 -41 -36.5 -86t-53 -67.5t-71.5 -67.5l-203 -191h293l-11 -55h-428z" />
<glyph unicode="&#xbe;" horiz-adv-x="1126" d="M82 -45l1046 1161l43 -24l-1046 -1162zM84 592h59q-2 -59 25.5 -93t79.5 -34q55 0 102 40.5t58 96.5q9 56 -26 91.5t-97 35.5l10 55q59 0 103 36t53 89q9 49 -16 82t-79 33q-50 0 -85 -31.5t-48 -89.5h-59q20 85 74 131.5t131 46.5q80 0 119.5 -49t25.5 -121 q-7 -49 -43 -90.5t-86 -58.5q48 -21 70 -64.5t14 -91.5q-14 -83 -80 -139.5t-151 -56.5q-78 0 -122.5 49t-31.5 133zM528 119l4 20l463 537h23l-88 -498h80l-11 -59h-79l-21 -119h-61l20 119h-330zM637 178h231l60 338z" />
<glyph unicode="&#xd7;" horiz-adv-x="778" d="M29 104l299 254l-209 254l49 43l211 -254l297 254l37 -43l-299 -254l209 -254l-52 -43l-209 254l-299 -254z" />
<glyph unicode="&#xf7;" horiz-adv-x="778" d="M37 328l10 61h655l-10 -61h-655zM266 141q4 28 27 47t51 19t43 -19t10 -47t-26 -46.5t-49 -18.5t-44 18.5t-12 46.5zM344 575q5 28 26.5 47t49.5 19t44 -19t11 -47q-6 -28 -28 -46.5t-50 -18.5t-43.5 18.5t-9.5 46.5z" />
<glyph unicode="&#xe00;" horiz-adv-x="204" />
<glyph unicode="&#xe01;" horiz-adv-x="778" d="M-10 0l116 668q143 166 349 166q134 0 213 -70.5t57 -196.5l-100 -567h-62l96 549q19 106 -43.5 164.5t-173.5 58.5q-168 0 -276 -123l-115 -649h-61z" />
<glyph unicode="&#xe02;" horiz-adv-x="706" d="M16 322q19 104 81 186t161 156l-70 133l58 34l92 -172q-113 -79 -177.5 -158.5t-82.5 -178.5q-22 -118 33.5 -196.5t164.5 -78.5q98 0 172 63.5t91 159.5l98 549h61l-98 -549q-22 -123 -116 -203.5t-218 -80.5q-134 0 -205 95.5t-45 240.5z" />
<glyph unicode="&#xe03;" horiz-adv-x="716" d="M25 313q35 201 256 322l20 117l-102 -82q-4 8 -13 21t-40.5 44t-67.5 51l39 43q32 -16 57 -37t34 -34l9 -13l96 74h62l-39 -211q-93 -43 -162.5 -120t-87.5 -175q-20 -117 35.5 -191.5t165.5 -74.5q97 0 171 63.5t91 159.5l98 549h62l-99 -549q-22 -123 -116 -203.5 t-218 -80.5q-134 0 -205.5 91.5t-45.5 235.5z" />
<glyph unicode="&#xe04;" horiz-adv-x="778" d="M-10 0l98 563q21 118 129.5 194.5t237.5 76.5t209 -76.5t59 -194.5l-98 -563h-62l99 563q18 93 -48.5 151t-171.5 58q-104 0 -189 -57.5t-103 -151.5l-21 -117h258l-10 -61h-258l-68 -385h-61z" />
<glyph unicode="&#xe05;" horiz-adv-x="819" d="M-10 0l102 578q18 104 93.5 180t176.5 76l89 -134l137 134q100 0 149 -76t31 -180l-102 -578h-62l103 578q12 74 -18.5 132.5t-90.5 65.5l-162 -162l-104 162q-63 -7 -114.5 -65.5t-63.5 -132.5l-25 -132h279l-11 -61h-278l-68 -385h-61z" />
<glyph unicode="&#xe06;" horiz-adv-x="788" d="M0 0l88 504q6 35 31 62t52 40.5t51 35t28 46.5l12 66l-108 -74q-32 61 -95 108l43 41q21 -16 38.5 -35t24.5 -30l7 -10l102 65h62l-27 -145q-5 -27 -29 -50t-51 -36.5t-52 -39t-30 -56.5l-36 -218q-11 -62 20.5 -115t89.5 -82.5t125 -29.5q102 0 178.5 57t93.5 152 l101 563h61l-100 -563q-21 -120 -119 -195t-225 -75q-80 0 -152.5 36t-101.5 93l-21 -115h-61z" />
<glyph unicode="&#xe07;" horiz-adv-x="737" d="M59 807l66 14l51 -764q173 -9 296 85t153 270q31 176 -51.5 269.5t-272.5 76.5l12 61q221 18 316 -91t57 -316q-37 -214 -192 -324.5t-379 -85.5z" />
<glyph unicode="&#xe08;" horiz-adv-x="751" d="M35 690q159 144 368 144q170 0 251.5 -113.5t50.5 -294.5q-17 -95 -65 -178t-118 -141.5t-163 -89t-193 -23.5l-21 440h-84l13 62h133l20 -443q151 -1 269.5 106t146.5 267q26 152 -45 249t-211 97q-166 0 -309 -123z" />
<glyph unicode="&#xe09;" horiz-adv-x="757" d="M0 401l10 62h123l-37 -207q-17 -95 37 -152t152 -57q100 0 195 67t112 160l49 289q18 93 -48.5 151t-170.5 58q-90 0 -177.5 -44t-119.5 -114h-62q35 96 145.5 158t225.5 62q129 0 209 -76.5t59 -194.5l-90 -522l13 -41h-82l20 115q-51 -58 -130 -93.5t-159 -35.5 q-124 0 -192.5 75t-46.5 195l26 145h-61z" />
<glyph unicode="&#xe0a;" horiz-adv-x="714" d="M-6 29l141 790h62l-131 -743q7 -3 20.5 -8.5t59 -13.5t94.5 -7q140 3 232.5 76.5t115.5 198.5q21 122 -41.5 203t-186.5 110l240 194l37 -36l-170 -140q222 -96 182 -331q-27 -147 -138.5 -239t-283.5 -95q-64 -1 -122.5 9.5t-84.5 20.5z" />
<glyph unicode="&#xe0b;" horiz-adv-x="735" d="M14 29l84 469q5 29 20.5 52.5t34 39t37 30t33 31.5t17.5 37l12 66l-109 -74q-31 61 -94 108l43 41q21 -16 38.5 -35t24.5 -30l7 -10l102 65h62l-25 -139q-5 -26 -26 -50.5t-44.5 -42t-45.5 -45t-27 -59.5l-72 -407q7 -3 20.5 -8.5t59 -13.5t94.5 -7q140 3 232.5 76.5 t115.5 198.5q21 123 -41 203.5t-186 109.5l240 194l36 -36l-170 -140q223 -96 183 -331q-27 -147 -138.5 -239t-283.5 -95q-64 -1 -122.5 9.5t-85.5 20.5z" />
<glyph unicode="&#xe0c;" horiz-adv-x="1310" d="M-10 0l116 668q143 166 349 166q134 0 213 -70.5t57 -196.5l-51 -293q-17 -94 50.5 -160.5t164.5 -66.5t166 56.5t86 152.5l100 563h62l-101 -563q-22 -121 -111.5 -195.5t-211.5 -74.5q-77 0 -141.5 36t-92.5 93l-20 -115h-62l96 549q19 106 -43.5 164.5t-173.5 58.5 q-168 0 -276 -123l-105 -588h123l-10 -61h-184z" />
<glyph unicode="&#xe0d;" horiz-adv-x="1310" d="M-10 0l116 668q143 166 349 166q134 0 213 -70.5t57 -196.5l-27 -145q-16 -92 41.5 -140.5t157.5 -48.5t180 59.5t97 153.5l67 373h62l-101 -563q-21 -120 -124.5 -195t-233.5 -75q-87 0 -156.5 29.5t-105.5 86.5l53 43q73 -98 217 -98q104 0 188 57.5t101 151.5l4 23 q-48 -46 -119 -76.5t-139 -30.5q-131 0 -201 66t-49 184l22 127q19 106 -43.5 164.5t-173.5 58.5q-168 0 -276 -123l-105 -588h123l-10 -61h-184z" />
<glyph unicode="&#xe0e;" horiz-adv-x="788" d="M-135 -307l10 61h277l221 148l157 -142l140 789q19 106 -43.5 164.5t-173.5 58.5q-169 0 -277 -123l-115 -649h-143l10 61h82l107 607q143 166 348 166q134 0 213 -70.5t57 -196.5l-153 -874h-62l-160 143l-208 -143h-287z" />
<glyph unicode="&#xe0f;" horiz-adv-x="788" d="M-156 -307l11 61h190l160 135l90 -131l135 131l102 -118l138 778q19 106 -43.5 164.5t-173.5 58.5q-169 0 -277 -123l-115 -649h-143l10 61h82l107 607q143 166 348 166q134 0 213 -70.5t57 -196.5l-153 -874h-62l-102 123l-135 -133l-90 133l-144 -123h-205z" />
<glyph unicode="&#xe10;" horiz-adv-x="751" d="M-139 -307l10 61h170l160 135l90 -131l135 131l102 -118l23 123l-23 51h93l-43 -252h-62l-102 123l-135 -133l-91 133l-143 -123h-184zM35 690q159 144 368 144q109 0 183 -50l96 97l43 -37l-94 -94q109 -116 74 -324q-17 -95 -65 -178t-118 -141.5t-163 -89t-193 -23.5 l-21 450h-82l11 52h133l20 -443q151 -1 269.5 106t146.5 267q26 152 -45 249t-211 97q-166 0 -309 -123z" />
<glyph unicode="&#xe11;" horiz-adv-x="788" d="M0 0l88 504q6 35 31 62t52 40.5t51 35t28 46.5l12 66l-108 -74q-32 61 -95 108l43 41q21 -16 38.5 -35t24.5 -30l7 -10l102 65h62l-27 -145q-5 -27 -29 -50t-51 -36.5t-52 -39t-30 -56.5l-63 -367l485 694q97 0 142.5 -62t27.5 -161l-104 -596h-62l105 598q12 64 -16 112 t-74 48l-527 -758h-61z" />
<glyph unicode="&#xe12;" horiz-adv-x="1355" d="M29 395q19 109 76.5 208t131 160t142.5 71l92 -134l131 129q97 0 142 -74t26 -182l-51 -299q-17 -94 50.5 -160.5t164.5 -66.5t166 56.5t86 152.5l100 563h62l-101 -563q-22 -121 -111.5 -195.5t-211.5 -74.5q-77 0 -141.5 36t-92.5 93l-20 -115h-62l101 573 q14 73 -13.5 131.5t-83.5 67.5l-155 -158l-109 158q-67 -24 -150.5 -132.5t-107.5 -244.5q-14 -66 -10 -128t20.5 -110t56 -77t95.5 -29q67 0 127 64l43 -37q-34 -37 -82 -62.5t-98 -25.5q-139 0 -192.5 109.5t-20.5 295.5z" />
<glyph unicode="&#xe13;" horiz-adv-x="1310" d="M-10 0l116 668q143 166 349 166q134 0 213 -70.5t57 -196.5l-55 -311q-17 -96 32 -152.5t146 -56.5t188.5 66.5t108.5 160.5l96 545h62l-146 -819h-61l20 115q-50 -58 -125.5 -93.5t-152.5 -35.5q-122 0 -187 74.5t-43 195.5l51 293q19 106 -43.5 164.5t-173.5 58.5 q-168 0 -276 -123l-105 -588h123l-10 -61h-184z" />
<glyph unicode="&#xe14;" horiz-adv-x="782" d="M20.5 181.5q-12.5 88.5 6.5 205.5q23 118 87 220t160.5 164.5t202.5 62.5q133 0 201.5 -81.5t46.5 -203.5l-96 -549h-62l97 545q17 97 -39 162t-160 65q-90 0 -171 -55t-134 -142.5t-72 -187.5q-14 -67 -10 -128t21.5 -107.5t56.5 -73.5t96 -27q67 0 127 64l43 -37 q-34 -37 -82 -62.5t-98 -25.5q-95 0 -152 51.5t-69.5 140z" />
<glyph unicode="&#xe15;" horiz-adv-x="823" d="M29 395q30 165 136.5 294.5t213.5 144.5l92 -134l131 129q97 0 142 -74t26 -182l-100 -573h-62l101 573q14 73 -13.5 131.5t-83.5 67.5l-155 -158l-109 158q-66 -24 -149.5 -132.5t-108.5 -244.5q-15 -68 -11.5 -130.5t20.5 -110t56.5 -75.5t96.5 -28q67 0 127 64l43 -37 q-34 -37 -82 -62.5t-98 -25.5q-139 0 -193.5 109.5t-19.5 295.5z" />
<glyph unicode="&#xe16;" horiz-adv-x="778" d="M-10 0l116 668q143 166 349 166q134 0 213 -70.5t57 -196.5l-100 -567h-62l96 549q19 106 -43.5 164.5t-173.5 58.5q-168 0 -276 -123l-105 -588h123l-10 -61h-184z" />
<glyph unicode="&#xe17;" horiz-adv-x="778" d="M-10 0l145 819h62l-21 -114q48 57 134.5 93t168.5 36q126 0 196.5 -75t47.5 -200l-98 -559h-62l96 543q19 102 -35 165.5t-157 63.5t-203 -67t-117 -160l-96 -545h-61z" />
<glyph unicode="&#xe18;" horiz-adv-x="712" d="M-16 29l69 391l66 20l-64 -360q74 -33 191 -33t212 52t113 149q9 48 -6 87t-48.5 64t-73.5 40.5t-87 23.5q-141 26 -181 40q-105 37 -99 116l2 16q10 58 63 104t124.5 69t144.5 23q118 0 198.5 -54.5t89.5 -162.5h-67q-13 72 -85.5 114t-156.5 42q-82 0 -158.5 -40 t-85.5 -87q-4 -23 8.5 -41.5t33.5 -30t55.5 -21.5t62.5 -15.5t67 -11.5q5 -1 7 -1q296 -51 256 -274q-22 -126 -135.5 -193t-263.5 -67q-63 0 -126 10t-94 20z" />
<glyph unicode="&#xe19;" horiz-adv-x="778" d="M35 256l100 563h62l-101 -563q-17 -95 40 -152t159 -57q104 0 202 67t115 160l97 545h61l-145 -819h-62l21 115q-50 -57 -134.5 -93t-164.5 -36q-127 0 -199 75.5t-51 194.5z" />
<glyph unicode="&#xe1a;" horiz-adv-x="778" d="M35 256l100 563h62l-101 -563q-17 -93 49 -151t170 -58t190 58t103 151l101 563h61l-100 -563q-21 -118 -128.5 -194t-236.5 -76t-210 76t-60 194z" />
<glyph unicode="&#xe1b;" horiz-adv-x="778" d="M35 256l100 563h62l-101 -563q-17 -93 49 -151t170 -58t190 58t103 151l135 768h62l-135 -768q-21 -118 -128.5 -194t-236.5 -76t-210 76t-60 194z" />
<glyph unicode="&#xe1c;" horiz-adv-x="983" d="M63 819h201l-12 -61h-123l51 -656l346 717h56l96 -717l307 717h59l-356 -819h-53l-100 717l-351 -717h-51z" />
<glyph unicode="&#xe1d;" horiz-adv-x="983" d="M63 819h201l-12 -61h-123l51 -656l346 717h56l96 -717l395 922h60l-445 -1024h-53l-100 717l-351 -717h-51z" />
<glyph unicode="&#xe1e;" horiz-adv-x="983" d="M63 819h60l57 -717l346 717h56l96 -717l307 717h59l-356 -819h-53l-100 717l-351 -717h-51z" />
<glyph unicode="&#xe1f;" horiz-adv-x="983" d="M63 819h60l57 -717l346 717h56l96 -717l395 922h60l-445 -1024h-53l-100 717l-351 -717h-51z" />
<glyph unicode="&#xe20;" horiz-adv-x="788" d="M-82 0l10 61h82l107 607q143 166 348 166q134 0 213 -70.5t57 -196.5l-100 -567h-62l97 549q19 106 -43.5 164.5t-173.5 58.5q-169 0 -277 -123l-115 -649h-143z" />
<glyph unicode="&#xe21;" horiz-adv-x="778" d="M-10 0l145 819h62l-97 -545q-17 -93 57.5 -160t178.5 -67q102 0 178.5 57t93.5 152l101 563h61l-100 -563q-21 -120 -119 -195t-225 -75q-80 0 -152.5 36t-101.5 93l-21 -115h-61z" />
<glyph unicode="&#xe22;" horiz-adv-x="776" d="M4 254q16 87 84.5 151t134.5 82q-65 5 -104 48.5t-27 111.5q13 78 88.5 130t171.5 52q64 0 101 -14l-11 -61q-42 14 -98 14q-70 0 -123.5 -32.5t-62.5 -88.5q-11 -61 41.5 -94t126.5 -33h75l-12 -61h-57q-54 0 -109.5 -24.5t-98.5 -72t-54 -106.5q-17 -93 50.5 -150 t196.5 -57q73 0 140 23t98 46l31 23l121 678h61l-125 -706q-5 -5 -14 -13.5t-40.5 -30t-67.5 -38t-94 -30t-120 -13.5q-166 0 -245 74.5t-58 191.5z" />
<glyph unicode="&#xe23;" horiz-adv-x="724" d="M4 250h62q-18 -97 49 -151t174 -54q105 0 192 54t105 151q7 43 -8 74.5t-50.5 51t-72 31t-88.5 21.5q-149 28 -202 54q-94 45 -79 132q17 95 114.5 155t215.5 60q77 0 139.5 -23t103 -72.5t41.5 -119.5h-65q-10 75 -75.5 114.5t-153.5 39.5q-85 0 -163.5 -40.5 t-88.5 -104.5q-4 -21 1.5 -37.5t23.5 -29.5t32 -21.5t48 -17t49 -12t56 -11.5q17 -3 25 -5q49 -10 86.5 -20.5t75 -30t60 -43.5t33.5 -61.5t3 -83.5q-22 -124 -128.5 -195t-239.5 -71t-215 71t-60 195z" />
<glyph unicode="&#xe24;" horiz-adv-x="778" d="M-10 0l116 668q143 166 349 166q134 0 213 -70.5t57 -196.5l-154 -874h-61l149 856q19 106 -43.5 164.5t-173.5 58.5q-168 0 -276 -123l-105 -588h123l-10 -61h-184z" />
<glyph unicode="&#xe25;" horiz-adv-x="796" d="M2 242q23 129 130.5 222t262.5 93q171 0 264 -119l21 125q18 92 -51.5 150.5t-173.5 58.5q-85 0 -165.5 -44.5t-117.5 -113.5h-66q42 96 148 158t219 62q129 0 209 -76.5t59 -194.5l-98 -563h-61l59 332q-23 71 -92 117.5t-164 46.5q-127 0 -214.5 -73.5t-107.5 -180.5 q-14 -76 23 -133.5t107 -57.5q63 0 110 29l29 -49q-67 -41 -150 -41q-98 0 -148 75t-32 177z" />
<glyph unicode="&#xe26;" horiz-adv-x="788" d="M-82 0l10 61h82l107 607q143 166 348 166q134 0 213 -70.5t57 -196.5l-153 -874h-62l150 856q19 106 -43.5 164.5t-173.5 58.5q-169 0 -277 -123l-115 -649h-143z" />
<glyph unicode="&#xe27;" horiz-adv-x="720" d="M-8 213h63q15 -75 74 -120.5t139 -45.5q88 0 161.5 53t117.5 134t61 176q15 69 6.5 134t-32 116t-72 81.5t-115.5 30.5q-78 0 -153.5 -46t-114.5 -120h-66q44 100 143.5 164t203.5 64q107 0 174.5 -60t88 -154.5t-0.5 -209.5q-20 -115 -74 -209.5t-142.5 -154.5 t-195.5 -60q-104 0 -180.5 63.5t-85.5 163.5z" />
<glyph unicode="&#xe28;" horiz-adv-x="778" d="M-10 0l98 563q21 118 129.5 194.5t237.5 76.5q84 0 149 -35l84 82l43 -37l-78 -76q93 -80 70 -205l-98 -563h-62l99 563q18 93 -48.5 151t-171.5 58q-104 0 -189 -57.5t-103 -151.5l-21 -117h258l-10 -61h-258l-68 -385h-61z" />
<glyph unicode="&#xe29;" horiz-adv-x="788" d="M35 256l100 563h62l-101 -563q-17 -93 49 -151t170 -58t190 58t103 151l27 147h-238l17 93l45 -31h186l64 354h61l-63 -354h81l-10 -62h-82l-26 -147q-21 -118 -128.5 -194t-236.5 -76t-210 76t-60 194z" />
<glyph unicode="&#xe2a;" horiz-adv-x="796" d="M2 242q23 129 130.5 222t262.5 93q171 0 264 -119l21 125q18 92 -51.5 150.5t-173.5 58.5q-85 0 -165.5 -44.5t-117.5 -113.5h-66q42 96 148 158t219 62q84 0 152 -35l82 82l43 -37l-78 -76q92 -79 69 -205l-98 -563h-61l59 332q-23 71 -92 117.5t-164 46.5 q-127 0 -214.5 -73.5t-107.5 -180.5q-14 -76 23 -133.5t107 -57.5q63 0 110 29l29 -49q-67 -41 -150 -41q-98 0 -148 75t-32 177z" />
<glyph unicode="&#xe2b;" horiz-adv-x="788" d="M-10 0l145 819h62l-56 -309l564 309l40 -33l-239 -135q111 -12 170 -77t41 -168l-72 -406h-61l71 403q11 64 -22 113t-93 70.5t-130 11.5l-281 -158l-78 -440h-61z" />
<glyph unicode="&#xe2c;" horiz-adv-x="983" d="M63 819h60l57 -717l346 717h56l96 -717l215 502q31 82 2 123t-98 41h-72l10 51h82q91 0 140.5 23t76.5 82l45 100h62l-54 -115q-28 -62 -66.5 -88.5t-98.5 -40.5q40 -30 47 -70t-19 -102l-262 -608h-53l-100 717l-351 -717h-51z" />
<glyph unicode="&#xe2d;" horiz-adv-x="851" d="M31 410q3 18 10 42t8 29h262l-10 -61h-207q0 -6 -2 -10q-28 -157 45 -260t215 -103t250.5 102.5t136.5 260.5t-43 260t-217 102q-101 0 -186.5 -53t-140.5 -146h-66q61 120 168.5 190.5t237.5 70.5q172 0 257 -119t52 -305t-160 -305t-299 -119t-258 119t-53 305z" />
<glyph unicode="&#xe2e;" horiz-adv-x="851" d="M31 410q2 11 9 37t9 34h262l-10 -61h-207q0 -6 -2 -10q-28 -157 45 -260t215 -103t250.5 102.5t136.5 260.5t-43 260t-217 102q-101 0 -186.5 -53t-140.5 -146h-66q61 120 168.5 190.5t237.5 70.5q93 0 163 -39l86 86l39 -33l-80 -82q68 -55 95 -147.5t6 -208.5 q-33 -186 -160 -305t-299 -119t-258 119t-53 305z" />
<glyph unicode="&#xe2f;" horiz-adv-x="770" d="M74 651q13 77 86.5 127.5t169.5 50.5q63 0 100 -14l-10 -61q-48 16 -98 16q-70 0 -123.5 -31.5t-63.5 -87.5q-10 -58 43 -93.5t135 -35.5q74 0 140.5 18.5t111 48t70 52t41.5 43.5l24 135h62l-146 -819h-61l104 598q-15 -15 -38.5 -32t-68 -42t-111 -41t-140.5 -16 q-120 0 -180.5 53t-46.5 131z" />
<glyph unicode="&#xe30;" horiz-adv-x="235" d="M-23 102l21 115h61l-10 -55h133l-10 -60h-195zM66 602l20 115h61l-10 -55h133l-10 -60h-194z" />
<glyph unicode="&#xe31;" d="M-258 922l22 122h62l-10 -61h471l-13 -61h-532z" />
<glyph unicode="&#xe32;" horiz-adv-x="538" d="M68 727l10 64q90 43 170 43q140 0 197.5 -81t35.5 -206l-96 -547h-61l92 528q21 115 -24.5 181.5t-155.5 66.5q-47 0 -96 -16.5t-72 -32.5z" />
<glyph unicode="&#xe33;" horiz-adv-x="538" d="M-94 1008q6 35 36.5 61.5t65.5 26.5t57.5 -26.5t16.5 -61.5t-37.5 -60.5t-67.5 -25.5q-35 0 -56 25.5t-15 60.5zM-51 1008q-3 -17 7.5 -30t27.5 -13t32.5 13t18.5 30t-8.5 30t-28.5 13t-31.5 -13t-17.5 -30zM68 727l10 64q90 43 170 43q140 0 197.5 -81t35.5 -206 l-96 -547h-61l92 528q21 115 -24.5 181.5t-155.5 66.5q-47 0 -96 -16.5t-72 -32.5z" />
<glyph unicode="&#xe34;" d="M-586 922l13 61h593l-12 -61h-594z" />
<glyph unicode="&#xe35;" d="M-586 922l13 61h532l16 102h62l-29 -163h-594z" />
<glyph unicode="&#xe36;" d="M-586 922l13 61h479q-3 13 0 25q6 35 36.5 61.5t65.5 26.5t57.5 -26.5t16.5 -61.5t-37.5 -60.5t-67.5 -25.5h-563zM-51 1008q-3 -17 7.5 -30t27.5 -13t32.5 13t18.5 30t-8.5 30t-28.5 13t-31.5 -13t-17.5 -30z" />
<glyph unicode="&#xe37;" d="M-586 922l13 61h409l17 102h61l-16 -102h61l16 102h62l-29 -163h-594z" />
<glyph unicode="&#xe38;" d="M-322 -143l11 61h143l-39 -225h-61l28 164h-82z" />
<glyph unicode="&#xe39;" d="M-526 -143l10 61h123l-27 -145q20 -33 78 -33q32 0 60 20.5t34 51.5l19 106h61l-18 -108q-10 -54 -60.5 -88.5t-109.5 -34.5q-40 0 -75 17t-52 48l18 105h-61z" />
<glyph unicode="&#xe3a;" d="M-264 -137q5 23 23.5 39t41.5 16t36 -16t9 -39q-3 -23 -22.5 -39.5t-42.5 -16.5t-35.5 16t-9.5 40z" />
<glyph unicode="&#xe3f;" horiz-adv-x="788" d="M23 0l190 1081h221l29 164h63l-28 -166q123 -10 173 -86t27 -198q-12 -72 -49 -125t-108 -95q95 -28 139 -101.5t27 -174.5q-24 -127 -125 -213t-263 -86h-12l-31 -174h-63l31 174h-221zM98 61h156l82 465h-156zM193 590h155l76 428h-156zM317 61q141 1 222 69t100 169 q5 35 5 67t-14.5 60t-41 49t-74.5 34t-115 17zM412 592q89 12 147.5 68t73.5 145q14 85 -21 140.5t-127 68.5z" />
<glyph unicode="&#xe40;" horiz-adv-x="245" d="M10 0l146 819h61l-145 -819h-62z" />
<glyph unicode="&#xe41;" horiz-adv-x="430" d="M10 0l146 819h61l-145 -819h-62zM195 0l145 819h61l-145 -819h-61z" />
<glyph unicode="&#xe42;" horiz-adv-x="266" d="M31 0l166 946q5 28 -2 50.5t-21.5 36t-32 27.5l-32.5 26t-23 31.5t-4 43.5q9 51 57.5 80t110.5 29h252l-10 -62h-265q-32 0 -56 -12.5t-28 -34.5q-3 -19 10 -34.5t33.5 -28.5t40 -30t29.5 -49t2 -75l-166 -944h-61z" />
<glyph unicode="&#xe43;" horiz-adv-x="266" d="M4 1112q12 69 78 118.5t149 49.5q82 0 128.5 -45.5t35.5 -110.5q-7 -36 -28 -63t-43 -41t-43 -40.5t-27 -61.5l-162 -918h-61l164 928q7 39 28.5 68t43.5 43t41.5 35t23.5 46q9 45 -22 75t-89 30t-102.5 -33.5t-52.5 -79.5h-62z" />
<glyph unicode="&#xe44;" horiz-adv-x="266" d="M10 1231l45 43l119 -111l131 94l82 -124q-46 -34 -82.5 -82.5t-44.5 -102.5l-168 -948h-61l164 934q11 62 47.5 111t74.5 75l-38 58l-117 -88z" />
<glyph unicode="&#xe45;" horiz-adv-x="538" d="M68 727l10 64q90 43 170 43q140 0 197.5 -81t35.5 -206l-149 -854h-62l146 835q21 115 -24.5 181.5t-155.5 66.5q-47 0 -96 -16.5t-72 -32.5z" />
<glyph unicode="&#xe46;" horiz-adv-x="776" d="M43 475l20 119q19 107 92 171t173 64l90 -112l127 112q100 0 150.5 -64t31.5 -171l-158 -901h-61l158 901q13 76 -16.5 123.5t-88.5 58.5l-158 -141l-108 141q-63 -11 -110 -59t-60 -123l-10 -57h168l-11 -62h-229z" />
<glyph unicode="&#xe47;" d="M-543 922l11 57q13 70 69 113t150 43h362l-10 -56h-369q-56 0 -94 -24t-45 -68l-2 -8h88l125 68l94 -68h119l-10 -57h-127l-86 65l-113 -65h-162z" />
<glyph unicode="&#xe48;" d="M-12 1147l24 143h62l-25 -143h-61z" />
<glyph unicode="&#xe49;" d="M-158 1225l11 57h34q39 0 58.5 -15.5t13.5 -45.5l-2 -17h246l-10 -57h-306l7 37q3 21 -3 31t-28 10h-21z" />
<glyph unicode="&#xe4a;" d="M-188 1147l12 67q9 51 49.5 81t95.5 30h8l60 -63l82 63h6q57 0 88.5 -30t22.5 -81l-3 -10h132l-11 -57h-188l10 57q5 30 -9 47t-46 17h-6l-90 -70l-66 70h-4q-32 0 -51.5 -17t-24.5 -47l-2 -2h78l-8 -55h-135z" />
<glyph unicode="&#xe4b;" d="M-74 1212l11 50h71l10 65h62l-10 -65h71l-10 -50h-72l-10 -65h-61l10 65h-72z" />
<glyph unicode="&#xe4c;" d="M-98 1065l6 35q7 47 39 69.5t73 22.5h89l-11 -53h-59q-33 0 -50.5 -10t-21.5 -35l-4 -29h-61z" />
<glyph unicode="&#xe4d;" d="M-94 1008q6 35 36.5 61.5t65.5 26.5t57.5 -26.5t16.5 -61.5t-37.5 -60.5t-67.5 -25.5q-35 0 -56 25.5t-15 60.5zM-51 1008q-3 -17 7.5 -30t27.5 -13t32.5 13t18.5 30t-8.5 30t-28.5 13t-31.5 -13t-17.5 -30z" />
<glyph unicode="&#xe4e;" d="M-381 1016q11 62 78.5 103.5t132.5 41.5q-24 12 -34 37.5t-5 54.5q9 52 55 87.5t113.5 50t118 19.5t102.5 5l-10 -55q-16 2 -47 2t-69 -5t-82.5 -16t-76.5 -34.5t-38 -55.5q-4 -20 6 -34t29 -20t36 -8.5t37 -2.5l-8 -53q-31 0 -69.5 -5t-84.5 -15.5t-79 -34t-39 -54.5 q-4 -26 15.5 -37.5t47.5 -11.5q48 0 115 29l18 -48q-96 -34 -145 -34q-48 0 -86 24.5t-31 69.5z" />
<glyph unicode="&#xe4f;" horiz-adv-x="962" d="M51 410q31 173 176 296t318 123t275 -123t71 -296t-176 -296.5t-318 -123.5t-275 123.5t-71 296.5zM113 410q-26 -148 60.5 -253.5t234.5 -105.5t271.5 105.5t149.5 253.5t-60 253t-234 105t-272 -105t-150 -253zM215 410q19 106 107 181t194 75t168 -75t43 -181 t-107 -181t-194 -75t-168 75t-43 181z" />
<glyph unicode="&#xe50;" horiz-adv-x="720" d="M12 307q25 132 135 226t242 94t209.5 -94t52.5 -226q-23 -132 -133 -225.5t-242 -93.5t-209.5 93.5t-54.5 225.5zM68 307q-19 -109 44.5 -185.5t172.5 -76.5t198.5 76.5t108.5 185.5q20 109 -43 185.5t-172 76.5t-199 -76.5t-110 -185.5z" />
<glyph unicode="&#xe51;" horiz-adv-x="770" d="M16 330q24 131 140 214t250 83q149 0 235.5 -86t60.5 -228q-14 -79 -62 -150.5t-113.5 -121.5t-139 -82.5t-143.5 -42.5l-19 55q87 9 175.5 54t156.5 122t84 166q20 113 -51.5 184.5t-192.5 71.5q-112 0 -205.5 -68t-113.5 -171q-12 -76 27 -130.5t114 -54.5q32 0 53 7 q-36 14 -53 47t-10 75q9 55 54.5 94.5t101.5 39.5q55 0 87 -39t23 -95q-15 -81 -93 -136.5t-175 -55.5q-102 0 -155.5 71.5t-35.5 176.5zM264 274q-6 -32 13 -54.5t51 -22.5t59 22.5t33 54.5q5 32 -14.5 55t-51.5 23t-59 -23t-31 -55z" />
<glyph unicode="&#xe52;" horiz-adv-x="1087" d="M-72 836l56 41q54 -62 96 -158.5t55 -196.5q24 -186 2 -461h746l67 375q10 58 -21.5 92.5t-82.5 34.5q-81 0 -144 -80l-59 -329h-61l59 331q-19 39 -54.5 58.5t-76.5 19.5q-63 0 -116.5 -41.5t-63.5 -103.5l-6 -31q40 21 75 21q55 0 87.5 -39t23.5 -95q-10 -55 -56 -93 t-102 -38t-87 38t-21 93l24 144q15 89 90 148t164 59q106 0 160 -78q78 78 176 78q76 0 122 -49.5t32 -129.5l-78 -446h-862q30 308 0 502q-28 194 -144 334zM299 274q-6 -32 12.5 -54.5t50.5 -22.5t59.5 22.5t33.5 54.5q5 32 -14.5 55t-51.5 23t-59 -23t-31 -55z" />
<glyph unicode="&#xe53;" horiz-adv-x="923" d="M10 121l53 297q14 87 95 147t170 60q116 0 170 -78q34 34 84.5 56t101.5 22q77 0 127.5 -50t36.5 -129l-78 -446h-61l77 436q10 58 -25.5 92.5t-88.5 34.5q-40 0 -82.5 -20.5t-71.5 -59.5l-86 -483h-61l86 485q-19 39 -57.5 58.5t-84.5 19.5q-63 0 -121.5 -42t-68.5 -103 l-33 -185q40 21 76 21q56 0 87 -39t21 -94q-9 -55 -54 -93t-101 -38t-88 38t-23 93zM66 121q-5 -32 14 -55t51 -23t59 23t31 55q6 32 -12.5 55t-50.5 23t-59 -23t-33 -55z" />
<glyph unicode="&#xe54;" horiz-adv-x="831" d="M10 287q21 139 136.5 233t252.5 94h283q33 0 61 24t47 64t30.5 78t19.5 80h61q-9 -56 -26.5 -106.5t-44 -97.5t-67.5 -75t-91 -28h-283q-112 0 -206 -75.5t-111 -190.5q-18 -113 46 -176.5t165 -63.5q53 0 119.5 16t91.5 15q-45 22 -73 70.5t-18 103.5q9 58 56.5 98.5 t103.5 40.5t87.5 -39t21.5 -94q-9 -52 -52 -90t-96 -41q17 -26 99 -41q80 -15 105 -32q10 -7 17 -15l-47 -49q-57 39 -157 39q-35 0 -120 -19.5t-157 -19.5q-125 0 -201 76.5t-53 220.5zM461 258q-5 -32 14 -55t51 -23t59 23t31 55q6 32 -12.5 55t-50.5 23t-59 -23t-33 -55z " />
<glyph unicode="&#xe55;" horiz-adv-x="831" d="M10 287q18 122 111 210t213 111q-26 33 -17 84q9 58 57.5 97.5t106.5 39.5t93 -39t26 -98q-8 -38 -39 -78h121q33 0 61 24t47 64t30.5 78t19.5 80h61q-9 -56 -26.5 -106.5t-44 -97.5t-67.5 -75t-91 -28h-283q-112 0 -206 -75.5t-111 -190.5q-18 -113 46 -176.5t165 -63.5 q53 0 119.5 16t91.5 15q-45 22 -73 70.5t-18 103.5q9 58 56.5 98.5t103.5 40.5t87.5 -39t21.5 -94q-9 -52 -52 -90t-96 -41q17 -26 99 -41q80 -15 105 -32q10 -7 17 -15l-47 -49q-57 39 -157 39q-35 0 -120 -19.5t-157 -19.5q-125 0 -201 76.5t-53 220.5zM377 692 q-6 -34 13.5 -58t53.5 -24t62.5 24t34.5 58q5 34 -15 58t-53 24q-34 0 -63 -24.5t-33 -57.5zM461 258q-5 -32 14 -55t51 -23t59 23t31 55q6 32 -12.5 55t-50.5 23t-59 -23t-33 -55z" />
<glyph unicode="&#xe56;" horiz-adv-x="778" d="M-25 803l54 39q125 -128 125 -303q130 86 274 86q142 0 224.5 -88.5t58.5 -225.5q-26 -141 -144.5 -233t-267.5 -92q-135 0 -211.5 72.5t-58.5 168.5q9 58 55 96.5t102 38.5q55 0 87.5 -38.5t23.5 -94.5q-9 -52 -51 -89t-96 -42q57 -51 159 -51q123 0 221 74t119 190 q18 108 -51 180t-182 72q-145 0 -271 -104l-57 16q0 200 -113 328zM86 229q-6 -32 13 -54.5t51 -22.5t59 22.5t33 54.5q5 32 -14.5 55t-51.5 23t-59 -23t-31 -55z" />
<glyph unicode="&#xe57;" horiz-adv-x="1116" d="M10 121l53 297q14 87 95 147t170 60q116 0 170 -78q34 34 84.5 56t101.5 22q77 0 127.5 -50t36.5 -129l-70 -395q51 0 97.5 34.5t56.5 90.5l82 463q6 37 22.5 71t40.5 61.5t38 41t36 31.5l41 -37q-41 -29 -75 -75t-44 -101l-78 -447q-17 -95 -96 -145t-192 -47l79 444 q10 58 -25.5 92.5t-88.5 34.5q-40 0 -82.5 -20.5t-71.5 -59.5l-86 -483h-61l86 485q-19 39 -57.5 58.5t-84.5 19.5q-63 0 -121.5 -42t-68.5 -103l-33 -185q40 21 76 21q56 0 87 -39t21 -94q-9 -55 -54 -93t-101 -38t-88 38t-23 93zM66 121q-5 -32 14 -55t51 -23t59 23t31 55 q6 32 -12.5 55t-50.5 23t-59 -23t-33 -55z" />
<glyph unicode="&#xe58;" horiz-adv-x="858" d="M12 303q25 138 157.5 230t309.5 92q141 0 223 -31q93 110 127 248l62 -4q-42 -165 -176 -316q-105 41 -250 41q-144 0 -257.5 -74.5t-133.5 -185.5q-16 -88 24.5 -154.5t100.5 -87.5l174 170l147 -168q23 10 55.5 30.5t45.5 31.5q-43 6 -65.5 39.5t-14.5 77.5 q7 49 48 83.5t91 34.5q49 0 77 -36t19 -86q-11 -71 -89.5 -134.5t-194.5 -115.5l-132 149l-151 -149q-106 29 -162 112.5t-35 202.5zM596 242q-5 -26 10 -45t41 -19t49 19t27 45t-11.5 44.5t-41.5 18.5t-48 -18.5t-26 -44.5z" />
<glyph unicode="&#xe59;" horiz-adv-x="921" d="M14 313q23 134 129 225t236 91q142 0 225 -117q26 50 72 83.5t98 33.5q67 0 96 -51q31 46 55.5 119t30.5 151h62q-7 -118 -56.5 -219.5t-117.5 -157.5q-6 51 -28 73.5t-52 22.5q-42 0 -77.5 -37.5t-45.5 -80.5q79 -173 61 -445l-61 -8q2 75 1.5 153.5t-18 153.5 t-46 133.5t-82.5 94.5t-127 36q-105 0 -189.5 -74t-103.5 -184q-21 -112 28 -187t123 -75q-47 37 -34 105q9 55 55 94t102 39q55 0 86.5 -38.5t22.5 -94.5q-13 -72 -79.5 -118t-141.5 -46q-91 0 -148 47.5t-74 119.5t-2 158zM248 152q-6 -32 12.5 -55t50.5 -23t59 23t33 55 t-12.5 54.5t-50.5 22.5t-59 -22.5t-33 -54.5z" />
<glyph unicode="&#xe5a;" horiz-adv-x="935" d="M74 651q16 87 90.5 132.5t165.5 45.5q57 0 100 -14l-10 -61q-50 16 -98 16q-68 0 -122 -28t-65 -91q-6 -34 10 -60.5t45 -40.5t60.5 -21t62.5 -7q99 0 203 42t160 120l24 135h62l-35 -194q75 42 119 100l18 94h62l-146 -819h-61l112 639q-70 -59 -116 -78l-99 -561h-61 l104 598q-65 -64 -164 -97.5t-194 -33.5q-46 0 -88 9.5t-77.5 30t-53 57.5t-8.5 87z" />
<glyph unicode="&#xe5b;" horiz-adv-x="1392" d="M45.5 292.5q-6.5 60.5 7.5 121.5q10 57 33 113.5t58.5 109.5t89 86t114.5 33q89 0 129.5 -75.5t24.5 -168.5q-11 -68 -49.5 -124t-100.5 -56q-44 0 -67 37.5t-15 81.5q8 46 42 83t79 37q32 0 53 -18q2 58 -24 102.5t-80 44.5q-48 0 -89.5 -30.5t-69 -78t-45.5 -95 t-25 -90.5q-12 -50 -7.5 -99.5t20 -89t54 -64t94.5 -24.5q64 0 125 39t105.5 101t76 125t50.5 124q1 4 4 15l4.5 16.5t5 14t8 13t11.5 8t16 3.5q46 0 57 -242q3 7 22.5 70t38.5 107t35 44q20 0 35.5 -46.5t21 -88t7.5 -72.5q48 168 70 168q9 0 17 -6.5t15 -19.5t12 -25 t10.5 -31.5t8 -29.5t6.5 -28t4 -19q0 1 5.5 14.5t9 22.5t10 24t12.5 25.5t13 21t13.5 16t12.5 5.5q7 0 13.5 -8t12 -21.5t9.5 -26t8 -26.5t6 -19q8 26 23 46.5t37 17.5q2 0 40 -4.5t65 -10t34 -12.5q-9 -8 -33 -13t-44.5 -6.5t-50 -3t-32.5 -1.5q-7 -20 -20.5 -41t-26.5 -21 q-5 0 -11 9t-12 25.5t-10 29.5t-9 30.5t-5 18.5q-2 -5 -9 -24t-14 -36.5t-16.5 -36t-19.5 -29.5t-19 -11q-12 0 -24 30.5t-22 70t-15 48.5q-1 -2 -6 -18.5t-9 -29.5t-11 -32.5t-13.5 -34t-14 -28.5t-15.5 -21.5t-15 -7.5q-12 0 -23 40.5t-20.5 90.5t-16.5 62 q-7 -53 -41.5 -136.5t-70.5 -83.5q-11 0 -18 49.5t-12 110t-9 74.5q-19 -71 -57.5 -144.5t-92 -139t-125.5 -107t-147 -41.5q-67 0 -113.5 30t-66.5 78t-26.5 108.5zM319 453q-5 -24 5.5 -45t33.5 -21q25 0 43 20t23 46q5 27 -5 46t-36 19q-23 0 -42 -20.5t-22 -44.5z" />
<glyph unicode="&#x2000;" horiz-adv-x="799" />
<glyph unicode="&#x2001;" horiz-adv-x="1599" />
<glyph unicode="&#x2002;" horiz-adv-x="799" />
<glyph unicode="&#x2003;" horiz-adv-x="1599" />
<glyph unicode="&#x2004;" horiz-adv-x="533" />
<glyph unicode="&#x2005;" horiz-adv-x="399" />
<glyph unicode="&#x2006;" horiz-adv-x="266" />
<glyph unicode="&#x2007;" horiz-adv-x="266" />
<glyph unicode="&#x2008;" horiz-adv-x="199" />
<glyph unicode="&#x2009;" horiz-adv-x="319" />
<glyph unicode="&#x200a;" horiz-adv-x="88" />
<glyph unicode="&#x200c;" />
<glyph unicode="&#x200d;" />
<glyph unicode="&#x2010;" horiz-adv-x="475" d="M63 328l11 61h299l-11 -61h-299z" />
<glyph unicode="&#x2011;" horiz-adv-x="475" d="M63 328l11 61h299l-11 -61h-299z" />
<glyph unicode="&#x2012;" horiz-adv-x="475" d="M63 328l11 61h299l-11 -61h-299z" />
<glyph unicode="&#x2013;" horiz-adv-x="778" d="M37 328l10 61h655l-10 -61h-655z" />
<glyph unicode="&#x2014;" horiz-adv-x="1556" d="M37 328l10 61h1434l-11 -61h-1433z" />
<glyph unicode="&#x2018;" horiz-adv-x="385" d="M164 874q9 51 58 108.5t124 100.5l19 -22q-52 -30 -91 -73.5t-53 -84.5q20 15 49 15q28 0 45.5 -21t12.5 -49q-5 -30 -32 -53t-60 -23q-41 0 -59.5 30.5t-12.5 71.5z" />
<glyph unicode="&#x2019;" horiz-adv-x="385" d="M152 797q52 30 90.5 73t52.5 84q-19 -14 -49 -14q-28 0 -45.5 21t-12.5 49q5 30 31.5 52.5t59.5 22.5q41 0 60 -30.5t13 -71.5q-9 -51 -58 -108.5t-124 -100.5z" />
<glyph unicode="&#x201c;" horiz-adv-x="598" d="M164 874q9 51 58 108.5t124 100.5l19 -22q-52 -30 -91 -73.5t-53 -84.5q20 15 49 15q28 0 45.5 -21t12.5 -49q-5 -30 -32 -53t-60 -23q-41 0 -59.5 30.5t-12.5 71.5zM410 874q9 51 58 108.5t124 100.5l18 -22q-52 -30 -90.5 -73.5t-52.5 -84.5q20 15 49 15q28 0 45 -21 t12 -49q-5 -30 -32 -53t-60 -23q-41 0 -59 30.5t-12 71.5z" />
<glyph unicode="&#x201d;" horiz-adv-x="630" d="M152 797q52 30 90.5 73t52.5 84q-19 -14 -49 -14q-28 0 -45.5 21t-12.5 49q5 30 31.5 52.5t59.5 22.5q41 0 60 -30.5t13 -71.5q-9 -51 -58 -108.5t-124 -100.5zM397 797q53 30 91.5 73t52.5 84q-19 -14 -49 -14q-28 0 -45.5 21t-12.5 49q5 30 31 52.5t59 22.5 q41 0 60.5 -30.5t13.5 -71.5q-9 -51 -58 -108.5t-124 -100.5z" />
<glyph unicode="&#x2022;" horiz-adv-x="737" d="M51 410q23 127 129 217t234 90t201.5 -90t50.5 -217q-22 -127 -127.5 -217.5t-233.5 -90.5q-127 0 -201.5 90t-52.5 218z" />
<glyph unicode="&#x2026;" horiz-adv-x="917" d="M23 63q6 28 28 47t49 19q28 0 44 -19t10 -47q-4 -28 -26 -46.5t-50 -18.5t-43.5 18.5t-11.5 46.5zM322 63q6 28 28 47t49 19q28 0 44 -19t10 -47q-4 -28 -26 -46.5t-50 -18.5t-43.5 18.5t-11.5 46.5zM621 63q6 28 28 47t49 19q28 0 44 -19t10 -47q-4 -28 -26 -46.5 t-50 -18.5t-43.5 18.5t-11.5 46.5z" />
<glyph unicode="&#x202f;" horiz-adv-x="319" />
<glyph unicode="&#x205f;" horiz-adv-x="399" />
<glyph unicode="&#x2122;" horiz-adv-x="1306" d="M156 1020l10 61h452l-10 -61h-198l-97 -543h-57l96 543h-196zM623 477l106 604h100l109 -469h4l275 469h98l-107 -604h-57l96 547h-6l-323 -547h-5l-131 547h-6l-96 -547h-57z" />
<glyph unicode="&#x25fc;" horiz-adv-x="665" d="M0 0v666h666v-666h-666z" />
<glyph unicode="&#xf700;" horiz-adv-x="751" d="M35 690q159 144 368 144q109 0 183 -50l96 97l43 -37l-94 -94q109 -116 74 -324q-17 -95 -65 -178t-118 -141.5t-163 -89t-193 -23.5l-21 450h-82l11 52h133l20 -443q151 -1 269.5 106t146.5 267q26 152 -45 249t-211 97q-166 0 -309 -123z" />
<glyph unicode="&#xf701;" d="M-750 922l13 61h594l-13 -61h-594z" />
<glyph unicode="&#xf702;" d="M-750 922l13 61h532l17 102h61l-29 -163h-594z" />
<glyph unicode="&#xf703;" d="M-750 922l13 61h479q-3 13 0 25q6 35 36.5 61.5t65.5 26.5t57.5 -26.5t16.5 -61.5t-37 -60.5t-67 -25.5h-564zM-215 1008q-3 -17 7.5 -30t27.5 -13t32.5 13t18.5 30t-8.5 30t-28.5 13t-31.5 -13t-17.5 -30z" />
<glyph unicode="&#xf704;" d="M-750 922l13 61h409l17 102h61l-16 -102h61l17 102h61l-29 -163h-594z" />
<glyph unicode="&#xf705;" d="M-258 922l33 184h61l-33 -184h-61z" />
<glyph unicode="&#xf706;" d="M-287 1004l13 61h36q40 0 60 -17t14 -49l-2 -16h258l-12 -61h-320l9 39q3 22 -4 32.5t-29 10.5h-23z" />
<glyph unicode="&#xf707;" d="M-604 922l14 71q9 54 53 85.5t103 31.5h8l82 -68l106 68h9q58 0 90.5 -31.5t23.5 -85.5l-2 -10h209l-12 -61h-270l10 59q6 33 -8.5 50.5t-47.5 17.5h-6l-114 -74l-90 74h-7q-66 0 -79 -68v-8h81l-10 -51h-143z" />
<glyph unicode="&#xf708;" d="M-344 1008l8 53h82l16 86h62l-17 -86h82l-8 -53h-82l-16 -86h-62l17 86h-82z" />
<glyph unicode="&#xf709;" d="M-297 922l6 34q8 48 40 70.5t73 22.5h88l-8 -54h-60q-32 0 -49.5 -10t-21.5 -35l-7 -28h-61z" />
<glyph unicode="&#xf70a;" d="M-53 922l33 184h61l-33 -184h-61z" />
<glyph unicode="&#xf70b;" d="M-240 1004l13 61h37q40 0 59.5 -17t13.5 -49l-2 -16h258l-12 -61h-320l9 39q3 22 -4 32.5t-29 10.5h-23z" />
<glyph unicode="&#xf70c;" d="M-539 922l15 71q9 54 52.5 85.5t102.5 31.5h9l81 -68l107 68h8q59 0 91.5 -31.5t23.5 -85.5l-2 -10h137l-12 -61h-199l10 59q13 68 -55 68h-6l-115 -74l-90 74h-6q-67 0 -80 -68v-8h82l-10 -51h-144z" />
<glyph unicode="&#xf70d;" d="M-119 1008l8 53h82l17 86h61l-16 -86h82l-9 -53h-81l-17 -86h-61l16 86h-82z" />
<glyph unicode="&#xf70e;" d="M-125 922l6 34q8 48 40 70.5t73 22.5h88l-8 -54h-60q-32 0 -49.5 -10t-21.5 -35l-6 -28h-62z" />
<glyph unicode="&#xf70f;" horiz-adv-x="1310" d="M-10 0l116 668q143 166 349 166q134 0 213 -70.5t57 -196.5l-57 -321q-17 -94 40.5 -146.5t159.5 -52.5t178 52.5t93 146.5l102 573h62l-103 -573q-21 -118 -118.5 -189t-223.5 -71t-199.5 71t-52.5 189l53 303q19 106 -43.5 164.5t-173.5 58.5q-168 0 -276 -123 l-105 -588h123l-10 -61h-184z" />
<glyph unicode="&#xf710;" d="M-381 922l23 122h61l-10 -61h471l-12 -61h-533z" />
<glyph unicode="&#xf711;" d="M-258 1008q6 35 36.5 61.5t65.5 26.5t57.5 -26.5t16.5 -61.5t-37 -60.5t-67 -25.5q-35 0 -56.5 25.5t-15.5 60.5zM-215 1008q-3 -17 7.5 -30t27.5 -13t32.5 13t18.5 30t-8.5 30t-28.5 13t-31.5 -13t-17.5 -30z" />
<glyph unicode="&#xf712;" d="M-604 922l10 57q13 70 69 113t150 43h363l-11 -56h-368q-56 0 -94 -24t-45 -68l-2 -8h88l125 68l94 -68h119l-11 -57h-127l-86 65l-112 -65h-162z" />
<glyph unicode="&#xf713;" d="M-176 1147l24 143h62l-25 -143h-61z" />
<glyph unicode="&#xf714;" d="M-281 1225l11 57h34q39 0 58.5 -15.5t13.5 -45.5l-2 -17h246l-10 -57h-306l7 37q3 21 -3 31t-28 10h-21z" />
<glyph unicode="&#xf715;" d="M-307 1147l12 67q9 51 49.5 81t95.5 30h9l59 -63l82 63h6q57 0 88.5 -30t22.5 -81l-2 -10h131l-10 -57h-189l10 57q5 30 -9 47t-46 17h-6l-90 -70l-66 70h-4q-32 0 -51.5 -17t-24.5 -47l-2 -2h78l-8 -55h-135z" />
<glyph unicode="&#xf716;" d="M-238 1212l11 50h71l11 65h61l-10 -65h71l-10 -50h-71l-11 -65h-61l10 65h-72z" />
<glyph unicode="&#xf717;" d="M-254 1065l6 35q7 47 39 69.5t74 22.5h88l-10 -53h-60q-32 0 -49.5 -10t-21.5 -35l-5 -29h-61z" />
<glyph unicode="&#xf718;" d="M-373 -430l11 61h143l-39 -225h-61l28 164h-82z" />
<glyph unicode="&#xf719;" d="M-578 -430l11 61h123l-25 -145q17 -33 76 -33q32 0 60 20.5t34 51.5l18 106h62l-19 -108q-9 -54 -59.5 -88.5t-110.5 -34.5q-40 0 -75 17t-52 48l19 105h-62z" />
<glyph unicode="&#xf71a;" d="M-313 -424q3 23 21.5 39t41.5 16t36.5 -16t10.5 -39q-5 -23 -23.5 -39t-41.5 -16t-36 16t-9 39z" />
<glyph unicode="&#xf71d;" />
<glyph unicode="&#xf880;" />
<glyph horiz-adv-x="512" />
<glyph horiz-adv-x="538" d="M-258 1008q6 35 36.5 61.5t65.5 26.5t57.5 -26.5t16.5 -61.5t-37 -60.5t-67 -25.5q-35 0 -56.5 25.5t-15.5 60.5zM-215 1008q-3 -17 7.5 -30t27.5 -13t32.5 13t18.5 30t-8.5 30t-28.5 13t-31.5 -13t-17.5 -30zM68 727l10 64q90 43 170 43q140 0 197.5 -81t35.5 -206 l-96 -547h-61l92 528q21 115 -24.5 181.5t-155.5 66.5q-47 0 -96 -16.5t-72 -32.5z" />
<glyph d="M-418 1016q11 62 78.5 103.5t132.5 41.5q-24 12 -34 37.5t-5 54.5q9 52 55 87.5t113.5 50t118 19.5t102.5 5l-10 -55q-16 2 -47 2t-69 -5t-82.5 -16t-76.5 -34.5t-38 -55.5q-4 -20 6 -34t29 -20t36 -8.5t37 -2.5l-8 -53q-31 0 -69.5 -5t-84.5 -15.5t-79 -34t-39 -54.5 q-4 -26 15.5 -37.5t47.5 -11.5q48 0 115 29l18 -48q-96 -34 -145 -34q-48 0 -86 24.5t-31 69.5z" />
<glyph d="M-147 922l32 184h62l-33 -184h-61z" />
<glyph />
<glyph d="M-74 1147l25 143h61l-24 -143h-62z" />
<glyph d="M-238 1147l25 143h61l-24 -143h-62z" />
<glyph d="M-713 922l13 61h594l-13 -61h-594z" />
<glyph d="M-713 922l13 61h532l16 102h62l-29 -163h-594z" />
</font>
</defs>
</svg>
